<svg width="40" height="56" viewBox="0 0 40 56" fill="none" xmlns="http://www.w3.org/2000/svg">
<path fill-rule="evenodd" clip-rule="evenodd" d="M22.1742 27H37.05C37.5747 27 38 27.4477 38 28C38 28.5523 37.5747 29 37.05 29H22.1742L26.7593 34.3492C27.1187 34.7686 27.0701 35.3999 26.6508 35.7593C26.2315 36.1187 25.6002 36.0701 25.2407 35.6508L19.3401 28.7668C19.1322 28.5833 19 28.3079 19 28C19 27.692 19.1323 27.4166 19.3403 27.2331L25.2407 20.3492C25.6002 19.9299 26.2315 19.8813 26.6508 20.2408C27.0701 20.6002 27.1187 21.2315 26.7593 21.6508L22.1742 27Z" fill="#2D3142"/>
</svg>
