<svg width="75" height="54" viewBox="0 0 75 54" fill="none" xmlns="http://www.w3.org/2000/svg">
<path d="M20.5977 42.3086C20.5977 41.3086 19.8438 40.6094 18.7852 40.6094H17.4453V38.9961H20.0352V38.3633H16.7422V44H18.793C19.8516 44 20.5977 43.3047 20.5977 42.3086ZM17.4453 43.3672V41.2422H18.6094C19.4141 41.2422 19.875 41.625 19.875 42.3086C19.875 42.9883 19.418 43.3672 18.6094 43.3672H17.4453ZM22.4102 44L24.5078 40.8594H24.5703V44H25.2422V39.7891H24.5703L22.4727 42.9297H22.4102V39.7891H21.7383V44H22.4102ZM28.3164 44.0742C29.5156 44.0742 30.2578 43.2461 30.2578 41.8945C30.2578 40.5391 29.5156 39.7148 28.3164 39.7148C27.1172 39.7148 26.375 40.5391 26.375 41.8945C26.375 43.2461 27.1172 44.0742 28.3164 44.0742ZM28.3164 43.4688C27.5195 43.4688 27.0703 42.8906 27.0703 41.8945C27.0703 40.8945 27.5195 40.3203 28.3164 40.3203C29.1133 40.3203 29.5625 40.8945 29.5625 41.8945C29.5625 42.8906 29.1133 43.4688 28.3164 43.4688ZM34.875 41.0781C34.7578 40.3281 34.1328 39.7148 33.1094 39.7148C31.9297 39.7148 31.1797 40.5664 31.1797 41.8789C31.1797 43.2188 31.9336 44.0742 33.1133 44.0742C34.125 44.0742 34.7539 43.5039 34.875 42.7305H34.1953C34.0703 43.207 33.6758 43.4688 33.1094 43.4688C32.3594 43.4688 31.875 42.8516 31.875 41.8789C31.875 40.9258 32.3516 40.3203 33.1094 40.3203C33.7148 40.3203 34.0859 40.6602 34.1953 41.0781H34.875ZM38.7344 42.9102C38.5586 43.2812 38.1914 43.4805 37.6484 43.4805C36.9336 43.4805 36.4688 42.9531 36.4336 42.1211V42.0898H39.4609V41.832C39.4609 40.5234 38.7695 39.7148 37.6328 39.7148C36.4766 39.7148 35.7344 40.5742 35.7344 41.8984C35.7344 43.2305 36.4648 44.0742 37.6328 44.0742C38.5547 44.0742 39.2109 43.6289 39.4062 42.9102H38.7344ZM37.625 40.3086C38.293 40.3086 38.7383 40.8008 38.7539 41.5469H36.4336C36.4844 40.8008 36.9531 40.3086 37.625 40.3086ZM43.3633 44H44.0352V39.7891H43.3633V41.5312H41.2617V39.7891H40.5898V44H41.2617V42.0938H43.3633V44ZM48.8594 41.0781C48.7422 40.3281 48.1172 39.7148 47.0938 39.7148C45.9141 39.7148 45.1641 40.5664 45.1641 41.8789C45.1641 43.2188 45.918 44.0742 47.0977 44.0742C48.1094 44.0742 48.7383 43.5039 48.8594 42.7305H48.1797C48.0547 43.207 47.6602 43.4688 47.0938 43.4688C46.3438 43.4688 45.8594 42.8516 45.8594 41.8789C45.8594 40.9258 46.3359 40.3203 47.0938 40.3203C47.6992 40.3203 48.0703 40.6602 48.1797 41.0781H48.8594ZM51.6602 44.0742C52.8594 44.0742 53.6016 43.2461 53.6016 41.8945C53.6016 40.5391 52.8594 39.7148 51.6602 39.7148C50.4609 39.7148 49.7188 40.5391 49.7188 41.8945C49.7188 43.2461 50.4609 44.0742 51.6602 44.0742ZM51.6602 43.4688C50.8633 43.4688 50.4141 42.8906 50.4141 41.8945C50.4141 40.8945 50.8633 40.3203 51.6602 40.3203C52.457 40.3203 52.9062 40.8945 52.9062 41.8945C52.9062 42.8906 52.457 43.4688 51.6602 43.4688ZM56.7852 39.7148C56.2109 39.7148 55.707 40.0078 55.4375 40.4922H55.375V39.7891H54.7344V45.4062H55.4062V43.3672H55.4688C55.6992 43.8125 56.1836 44.0742 56.7852 44.0742C57.8555 44.0742 58.5547 43.2109 58.5547 41.8945C58.5547 40.5703 57.8594 39.7148 56.7852 39.7148ZM56.625 43.4688C55.8672 43.4688 55.3867 42.8594 55.3867 41.8945C55.3867 40.9258 55.8672 40.3203 56.6289 40.3203C57.3984 40.3203 57.8594 40.9102 57.8594 41.8945C57.8594 42.8789 57.3984 43.4688 56.625 43.4688Z" fill="#BBC3C6"/>
<path d="M43.7984 27.0923C44.8461 26.0446 45.6119 24.7271 46.0129 23.2821C46.3562 22.0452 46.434 20.7115 46.2438 19.3964L46.4659 19.1744C47.1663 18.4739 47.1663 17.3343 46.4659 16.6339L40.1146 10.2826C39.4142 9.58218 38.2745 9.58218 37.5741 10.2826L37.3526 10.5042C34.437 10.0784 31.644 10.9624 29.6562 12.9501C26.0607 16.5456 26.3077 22.6428 30.2067 26.5418C34.1057 30.4408 40.2029 30.6878 43.7984 27.0923ZM37.5741 12.8231L38.8444 11.5529L45.1956 17.9041L43.9254 19.1744L37.5734 12.824C37.5734 12.824 37.5736 12.8237 37.5741 12.8231ZM30.9265 14.2204C32.2345 12.9124 33.9926 12.2075 35.891 12.197C35.6547 12.8353 35.792 13.5815 36.3039 14.0934L42.6551 20.4446C43.1676 20.957 43.9149 21.0941 44.5535 20.8568C44.5455 22.754 43.8425 24.5076 42.5281 25.822C39.633 28.7171 34.6755 28.4701 31.4769 25.2716C28.2783 22.073 28.0314 17.1155 30.9265 14.2204Z" fill="#BBC3C6"/>
</svg>
