<svg width="24" height="24" viewBox="0 0 24 24" fill="none" xmlns="http://www.w3.org/2000/svg">
<path d="M17.0781 10.9844C17.5096 10.9844 17.8594 10.6346 17.8594 10.2031C17.8594 9.77165 17.5096 9.42188 17.0781 9.42188C16.6467 9.42188 16.2969 9.77165 16.2969 10.2031C16.2969 10.6346 16.6467 10.9844 17.0781 10.9844Z" fill="#0B8BD2"/>
<path d="M18.875 3.5625H17.8594V2.78125C17.8594 2.34977 17.5096 2 17.0781 2C16.6466 2 16.2969 2.34977 16.2969 2.78125V3.5625H12.7422V2.78125C12.7422 2.34977 12.3924 2 11.9609 2C11.5295 2 11.1797 2.34977 11.1797 2.78125V3.5625H7.66406V2.78125C7.66406 2.34977 7.3143 2 6.88281 2C6.45133 2 6.10156 2.34977 6.10156 2.78125V3.5625H5.125C3.40188 3.5625 2 4.96438 2 6.6875V18.875C2 20.5981 3.40188 22 5.125 22H11.1016C11.533 22 11.8828 21.6502 11.8828 21.2188C11.8828 20.7873 11.533 20.4375 11.1016 20.4375H5.125C4.26344 20.4375 3.5625 19.7366 3.5625 18.875V6.6875C3.5625 5.82594 4.26344 5.125 5.125 5.125H6.10156V5.90625C6.10156 6.33773 6.45133 6.6875 6.88281 6.6875C7.3143 6.6875 7.66406 6.33773 7.66406 5.90625V5.125H11.1797V5.90625C11.1797 6.33773 11.5295 6.6875 11.9609 6.6875C12.3924 6.6875 12.7422 6.33773 12.7422 5.90625V5.125H16.2969V5.90625C16.2969 6.33773 16.6466 6.6875 17.0781 6.6875C17.5096 6.6875 17.8594 6.33773 17.8594 5.90625V5.125H18.875C19.7366 5.125 20.4375 5.82594 20.4375 6.6875V11.1406C20.4375 11.5721 20.7873 11.9219 21.2188 11.9219C21.6502 11.9219 22 11.5721 22 11.1406V6.6875C22 4.96438 20.5981 3.5625 18.875 3.5625Z" fill="#0B8BD2"/>
<path d="M17.2734 12.5469C14.6672 12.5469 12.5469 14.6672 12.5469 17.2734C12.5469 19.8797 14.6672 22 17.2734 22C19.8797 22 22 19.8797 22 17.2734C22 14.6672 19.8797 12.5469 17.2734 12.5469ZM17.2734 20.4375C15.5288 20.4375 14.1094 19.0181 14.1094 17.2734C14.1094 15.5287 15.5288 14.1094 17.2734 14.1094C19.0181 14.1094 20.4375 15.5287 20.4375 17.2734C20.4375 19.0181 19.0181 20.4375 17.2734 20.4375Z" fill="#0B8BD2"/>
<path d="M18.4062 16.4922H18.0547V15.6719C18.0547 15.2404 17.7049 14.8906 17.2734 14.8906C16.842 14.8906 16.4922 15.2404 16.4922 15.6719V17.2734C16.4922 17.7049 16.842 18.0547 17.2734 18.0547H18.4062C18.8377 18.0547 19.1875 17.7049 19.1875 17.2734C19.1875 16.842 18.8377 16.4922 18.4062 16.4922Z" fill="#0B8BD2"/>
<path d="M13.6797 10.9844C14.1112 10.9844 14.4609 10.6346 14.4609 10.2031C14.4609 9.77165 14.1112 9.42188 13.6797 9.42188C13.2482 9.42188 12.8984 9.77165 12.8984 10.2031C12.8984 10.6346 13.2482 10.9844 13.6797 10.9844Z" fill="#0B8BD2"/>
<path d="M10.2812 14.3828C10.7127 14.3828 11.0625 14.033 11.0625 13.6016C11.0625 13.1701 10.7127 12.8203 10.2812 12.8203C9.84978 12.8203 9.5 13.1701 9.5 13.6016C9.5 14.033 9.84978 14.3828 10.2812 14.3828Z" fill="#0B8BD2"/>
<path d="M6.88281 10.9844C7.31428 10.9844 7.66406 10.6346 7.66406 10.2031C7.66406 9.77165 7.31428 9.42188 6.88281 9.42188C6.45134 9.42188 6.10156 9.77165 6.10156 10.2031C6.10156 10.6346 6.45134 10.9844 6.88281 10.9844Z" fill="#0B8BD2"/>
<path d="M6.88281 14.3828C7.31428 14.3828 7.66406 14.033 7.66406 13.6016C7.66406 13.1701 7.31428 12.8203 6.88281 12.8203C6.45134 12.8203 6.10156 13.1701 6.10156 13.6016C6.10156 14.033 6.45134 14.3828 6.88281 14.3828Z" fill="#0B8BD2"/>
<path d="M6.88281 17.7812C7.31428 17.7812 7.66406 17.4315 7.66406 17C7.66406 16.5685 7.31428 16.2188 6.88281 16.2188C6.45134 16.2188 6.10156 16.5685 6.10156 17C6.10156 17.4315 6.45134 17.7812 6.88281 17.7812Z" fill="#0B8BD2"/>
<path d="M10.2812 17.7812C10.7127 17.7812 11.0625 17.4315 11.0625 17C11.0625 16.5685 10.7127 16.2188 10.2812 16.2188C9.84978 16.2188 9.5 16.5685 9.5 17C9.5 17.4315 9.84978 17.7812 10.2812 17.7812Z" fill="#0B8BD2"/>
<path d="M10.2812 10.9844C10.7127 10.9844 11.0625 10.6346 11.0625 10.2031C11.0625 9.77165 10.7127 9.42188 10.2812 9.42188C9.84978 9.42188 9.5 9.77165 9.5 10.2031C9.5 10.6346 9.84978 10.9844 10.2812 10.9844Z" fill="#0B8BD2"/>
</svg>
