<svg width="60" height="60" viewBox="0 0 60 60" fill="none" xmlns="http://www.w3.org/2000/svg">
<path fill-rule="evenodd" clip-rule="evenodd" d="M30 60C46.5685 60 60 46.5685 60 30C60 13.4315 46.5685 0 30 0C13.4315 0 0 13.4315 0 30C0 46.5685 13.4315 60 30 60Z" fill="#BBC3C6"/>
<path fill-rule="evenodd" clip-rule="evenodd" d="M38 23H34.83L33.59 21.65C33.22 21.24 32.68 21 32.12 21H27.88C27.32 21 26.78 21.24 26.4 21.65L25.17 23H22C20.9 23 20 23.9 20 25V37C20 38.1 20.9 39 22 39H38C39.1 39 40 38.1 40 37V25C40 23.9 39.1 23 38 23ZM30 34C31.6568 34 33 32.6568 33 31C33 29.3431 31.6568 28 30 28C28.3431 28 27 29.3431 27 31C27 32.6568 28.3431 34 30 34ZM25 31C25 33.76 27.24 36 30 36C32.76 36 35 33.76 35 31C35 28.24 32.76 26 30 26C27.24 26 25 28.24 25 31Z" fill="white"/>
</svg>
