<svg width="75" height="54" viewBox="0 0 75 54" fill="none" xmlns="http://www.w3.org/2000/svg">
<path d="M25.9844 42.3086C25.9844 41.3086 25.2305 40.6094 24.1719 40.6094H22.832V38.9961H25.4219V38.3633H22.1289V44H24.1797C25.2383 44 25.9844 43.3047 25.9844 42.3086ZM22.832 43.3672V41.2422H23.9961C24.8008 41.2422 25.2617 41.625 25.2617 42.3086C25.2617 42.9883 24.8047 43.3672 23.9961 43.3672H22.832ZM28.8594 44.0742C30.0586 44.0742 30.8008 43.2461 30.8008 41.8945C30.8008 40.5391 30.0586 39.7148 28.8594 39.7148C27.6602 39.7148 26.918 40.5391 26.918 41.8945C26.918 43.2461 27.6602 44.0742 28.8594 44.0742ZM28.8594 43.4688C28.0625 43.4688 27.6133 42.8906 27.6133 41.8945C27.6133 40.8945 28.0625 40.3203 28.8594 40.3203C29.6562 40.3203 30.1055 40.8945 30.1055 41.8945C30.1055 42.8906 29.6562 43.4688 28.8594 43.4688ZM32.9023 42.1523L33.0352 40.3516H34.5078V44H35.1797V39.7891H32.4258L32.2617 42.1367C32.207 42.918 32.0469 43.4062 31.6289 43.4062C31.5312 43.4062 31.4531 43.3867 31.418 43.375V43.9922C31.4648 44.0117 31.543 44.0352 31.6641 44.0352C32.5391 44.0352 32.8164 43.3086 32.9023 42.1523ZM38.1992 40.3086C38.8672 40.3086 39.3125 40.8008 39.3281 41.5469H37.0078C37.0586 40.8008 37.5273 40.3086 38.1992 40.3086ZM39.3086 42.9102C39.1328 43.2812 38.7656 43.4805 38.2227 43.4805C37.5078 43.4805 37.043 42.9531 37.0078 42.1211V42.0898H40.0352V41.832C40.0352 40.5234 39.3438 39.7148 38.207 39.7148C37.0508 39.7148 36.3086 40.5742 36.3086 41.8984C36.3086 43.2305 37.0391 44.0742 38.207 44.0742C39.1289 44.0742 39.7852 43.6289 39.9805 42.9102H39.3086ZM42.5977 44.0703C43.5781 44.0703 44.2539 43.5391 44.2539 42.7578C44.2539 42.2891 43.9648 41.9492 43.4062 41.8281V41.7656C43.8242 41.668 44.1016 41.2812 44.1016 40.8516C44.1016 40.1797 43.5625 39.7148 42.6211 39.7148C41.75 39.7148 41.1328 40.1523 41.043 40.8438H41.707C41.7617 40.5039 42.1289 40.2852 42.6211 40.2852C43.1641 40.2852 43.4375 40.5469 43.4375 40.9023C43.4375 41.3438 43.1367 41.5586 42.5977 41.5586H41.9414V42.1211H42.5977C43.2422 42.1211 43.5859 42.332 43.5859 42.793C43.5859 43.2109 43.2188 43.5039 42.5977 43.5039C42.0703 43.5039 41.6992 43.2891 41.6172 42.9219H40.9258C41 43.6211 41.6836 44.0703 42.5977 44.0703ZM48.1562 44H48.8281V39.7891H48.1562V41.5312H46.0547V39.7891H45.3828V44H46.0547V42.0938H48.1562V44ZM51.668 41.7031C52.2188 41.7031 52.5781 42.043 52.5781 42.5703C52.5781 43.0938 52.2227 43.4375 51.668 43.4375H50.8359V41.7031H51.668ZM50.1641 44H51.668C52.6328 44 53.25 43.4453 53.25 42.5703C53.25 41.6953 52.6328 41.1406 51.668 41.1406H50.8359V39.7891H50.1641V44Z" fill="#CA3123"/>
<path d="M27.5879 22H29.9999L32.9999 17L35.9999 22H41.9999" stroke="#CA3123" stroke-width="2" stroke-miterlimit="10" stroke-linecap="round" stroke-linejoin="round"/>
<path d="M42.5 11C39.75 11 38.245 12.438 37 13.7C35.755 12.438 34.25 11 31.5 11C27.833 11 26 14.071 26 17.3C26 22.737 32.417 27.2 37 29C41.583 27.2 48 22.737 48 17.3C48 14.071 46.167 11 42.5 11V11Z" stroke="#CA3123" stroke-width="2" stroke-miterlimit="10" stroke-linecap="round" stroke-linejoin="round"/>
</svg>
