<svg width="75" height="54" viewBox="0 0 75 54" fill="none" xmlns="http://www.w3.org/2000/svg">
<path d="M24.043 44H28.2461V45.1133H28.8984V43.3672H28.1953V38.3633H24.6289L24.4141 41.9102C24.3711 42.6484 24.2188 43.1484 23.8086 43.3672H23.3906V45.1133H24.043V44ZM25.0742 41.9258L25.2578 38.9961H27.4922V43.3672H24.6797V43.3203C24.957 42.9883 25.0352 42.5625 25.0742 41.9258ZM31.5742 44.0742C32.7734 44.0742 33.5156 43.2461 33.5156 41.8945C33.5156 40.5391 32.7734 39.7148 31.5742 39.7148C30.375 39.7148 29.6328 40.5391 29.6328 41.8945C29.6328 43.2461 30.375 44.0742 31.5742 44.0742ZM31.5742 43.4688C30.7773 43.4688 30.3281 42.8906 30.3281 41.8945C30.3281 40.8945 30.7773 40.3203 31.5742 40.3203C32.3711 40.3203 32.8203 40.8945 32.8203 41.8945C32.8203 42.8906 32.3711 43.4688 31.5742 43.4688ZM35.5391 42.082L37.1875 44H38.0586L36.0938 41.7734L37.9844 39.7891H37.168L35.5391 41.5508H35.3164V39.7891H34.6445V44H35.3164V42.082H35.5391ZM41.8516 39.7891H38.4453V40.3516H39.8125V44H40.4844V40.3516H41.8516V39.7891ZM44.4102 44.0742C45.6094 44.0742 46.3516 43.2461 46.3516 41.8945C46.3516 40.5391 45.6094 39.7148 44.4102 39.7148C43.2109 39.7148 42.4688 40.5391 42.4688 41.8945C42.4688 43.2461 43.2109 44.0742 44.4102 44.0742ZM44.4102 43.4688C43.6133 43.4688 43.1641 42.8906 43.1641 41.8945C43.1641 40.8945 43.6133 40.3203 44.4102 40.3203C45.207 40.3203 45.6562 40.8945 45.6562 41.8945C45.6562 42.8906 45.207 43.4688 44.4102 43.4688ZM49.5352 39.7148C48.9609 39.7148 48.457 40.0078 48.1875 40.4922H48.125V39.7891H47.4844V45.4062H48.1562V43.3672H48.2188C48.4492 43.8125 48.9336 44.0742 49.5352 44.0742C50.6055 44.0742 51.3047 43.2109 51.3047 41.8945C51.3047 40.5703 50.6094 39.7148 49.5352 39.7148ZM49.375 43.4688C48.6172 43.4688 48.1367 42.8594 48.1367 41.8945C48.1367 40.9258 48.6172 40.3203 49.3789 40.3203C50.1484 40.3203 50.6094 40.9102 50.6094 41.8945C50.6094 42.8789 50.1484 43.4688 49.375 43.4688Z" fill="#BBC3C6"/>
<g clip-path="url(#clip0)">
<path d="M36.3961 10.404C37.0599 10.404 37.5981 9.86585 37.5981 9.202C37.5981 8.53816 37.0599 8 36.3961 8C35.7322 8 35.1941 8.53816 35.1941 9.202C35.1941 9.86585 35.7322 10.404 36.3961 10.404Z" fill="#BBC3C6"/>
<path d="M42.7645 10.404C43.4284 10.404 43.9665 9.86585 43.9665 9.202C43.9665 8.53816 43.4284 8 42.7645 8C42.1007 8 41.5625 8.53816 41.5625 9.202C41.5625 9.86585 42.1007 10.404 42.7645 10.404Z" fill="#BBC3C6"/>
<path d="M46.3458 10.2953C45.7351 9.23754 44.6414 8.60608 43.4199 8.60608V9.79818C44.2104 9.79818 44.9182 10.2068 45.3135 10.8913C45.7088 11.576 45.7088 12.3933 45.3136 13.0779L41.4843 19.7103C41.0891 20.3948 40.3812 20.8035 39.5908 20.8036C38.8003 20.8036 38.0924 20.395 37.6971 19.7103L33.8679 13.0778C33.4727 12.3933 33.4727 11.5759 33.8679 10.8913C34.2631 10.2068 34.9711 9.79807 35.7616 9.79807V8.60596C34.5401 8.60596 33.4463 9.23742 32.8356 10.2953C32.2248 11.3532 32.2248 12.6161 32.8356 13.6738L36.6647 20.3063C37.174 21.1883 38.0197 21.7724 38.9947 21.9427V25.1413C38.9947 28.266 37.1501 30.808 34.8829 30.808C32.6156 30.808 30.7712 28.266 30.7712 25.1413V21.3328C32.129 21.056 33.154 19.8524 33.154 18.4138C33.154 16.7712 31.8176 15.4348 30.175 15.4348C28.5324 15.4348 27.196 16.7712 27.196 18.4138C27.196 19.8523 28.221 21.0559 29.5789 21.3328V25.1413C29.5789 28.9233 31.9583 32.0001 34.8829 32.0001C37.8074 32.0001 40.1867 28.9233 40.1867 25.1413V21.9427C41.1616 21.7724 42.0074 21.1883 42.5165 20.3063L46.3458 13.6738C46.9567 12.6161 46.9567 11.3531 46.3458 10.2953Z" fill="#BBC3C6"/>
</g>
<defs>
<clipPath id="clip0">
<rect width="24" height="24" fill="white" transform="translate(25 8)"/>
</clipPath>
</defs>
</svg>
