<svg width="21" height="32" viewBox="0 0 21 32" fill="none" xmlns="http://www.w3.org/2000/svg">
<path d="M9.21413 32V26.816H3.55013V24.56H9.21413V20.336C7.58213 20.112 6.11013 19.536 4.79813 18.608C3.48613 17.68 2.44613 16.496 1.67813 15.056C0.910125 13.616 0.526125 12.064 0.526125 10.4C0.526125 8.608 0.974125 6.976 1.87013 5.504C2.79813 4 4.01413 2.8 5.51813 1.904C7.05413 1.008 8.71813 0.559999 10.5101 0.559999C12.3341 0.559999 13.9981 1.008 15.5021 1.904C17.0381 2.8 18.2541 4 19.1501 5.504C20.0461 6.976 20.4941 8.608 20.4941 10.4C20.4941 12.032 20.1101 13.568 19.3421 15.008C18.5741 16.448 17.5341 17.648 16.2221 18.608C14.9421 19.536 13.4701 20.112 11.8061 20.336V24.56H17.1341V26.816H11.8061V32H9.21413ZM10.5101 17.984C11.8861 17.984 13.1501 17.648 14.3021 16.976C15.4541 16.272 16.3661 15.344 17.0381 14.192C17.7421 13.04 18.0941 11.776 18.0941 10.4C18.0941 9.056 17.7421 7.824 17.0381 6.704C16.3661 5.584 15.4541 4.688 14.3021 4.016C13.1501 3.312 11.8861 2.96 10.5101 2.96C9.13413 2.96 7.87013 3.312 6.71813 4.016C5.56613 4.688 4.63813 5.584 3.93413 6.704C3.26213 7.824 2.92613 9.056 2.92613 10.4C2.92613 11.776 3.26213 13.04 3.93413 14.192C4.63813 15.344 5.56613 16.272 6.71813 16.976C7.87013 17.648 9.13413 17.984 10.5101 17.984Z" fill="#2D3142"/>
</svg>
