<svg width="75" height="54" viewBox="0 0 75 54" fill="none" xmlns="http://www.w3.org/2000/svg">
<path d="M20.375 41.4336H21.168C22.0195 41.4336 22.5039 41.8281 22.5039 42.4609C22.5039 43.0703 21.9883 43.5078 21.1953 43.5078C20.4141 43.5078 19.8828 43.1211 19.8203 42.5312H19.1406C19.1914 43.4922 20.0117 44.1328 21.2031 44.1328C22.3398 44.1328 23.2266 43.4102 23.2266 42.4805C23.2266 41.6719 22.6953 41.168 21.9766 41.0938V41.0312C22.6016 40.875 23.0273 40.3516 23.0273 39.7383C23.0273 38.8594 22.2773 38.2305 21.2188 38.2305C20.0977 38.2305 19.3672 38.832 19.2969 39.8086H19.9805C20.0391 39.2109 20.4961 38.8555 21.1914 38.8555C21.9023 38.8555 22.3125 39.2344 22.3125 39.8008C22.3125 40.3906 21.8516 40.8086 21.1367 40.8086H20.375V41.4336ZM24.3828 45.1133V44H27.6758V45.1133H28.3086V43.4375H27.6367V39.7891H24.7656L24.6016 42.1367C24.5625 42.7031 24.4102 43.2344 24.1016 43.4375H23.75V45.1133H24.3828ZM26.9648 43.4375H24.8867V43.375C25.0859 43.1133 25.1953 42.6641 25.2344 42.1523L25.3672 40.3516H26.9648V43.4375ZM30.9258 44.0742C32.125 44.0742 32.8672 43.2461 32.8672 41.8945C32.8672 40.5391 32.125 39.7148 30.9258 39.7148C29.7266 39.7148 28.9844 40.5391 28.9844 41.8945C28.9844 43.2461 29.7266 44.0742 30.9258 44.0742ZM30.9258 43.4688C30.1289 43.4688 29.6797 42.8906 29.6797 41.8945C29.6797 40.8945 30.1289 40.3203 30.9258 40.3203C31.7227 40.3203 32.1719 40.8945 32.1719 41.8945C32.1719 42.8906 31.7227 43.4688 30.9258 43.4688ZM36.0508 39.7148C35.4766 39.7148 34.9727 40.0078 34.7031 40.4922H34.6406V39.7891H34V45.4062H34.6719V43.3672H34.7344C34.9648 43.8125 35.4492 44.0742 36.0508 44.0742C37.1211 44.0742 37.8203 43.2109 37.8203 41.8945C37.8203 40.5703 37.125 39.7148 36.0508 39.7148ZM35.8906 43.4688C35.1328 43.4688 34.6523 42.8594 34.6523 41.8945C34.6523 40.9258 35.1328 40.3203 35.8945 40.3203C36.6641 40.3203 37.125 40.9102 37.125 41.8945C37.125 42.8789 36.6641 43.4688 35.8906 43.4688ZM40.6836 44.0742C41.8828 44.0742 42.625 43.2461 42.625 41.8945C42.625 40.5391 41.8828 39.7148 40.6836 39.7148C39.4844 39.7148 38.7422 40.5391 38.7422 41.8945C38.7422 43.2461 39.4844 44.0742 40.6836 44.0742ZM40.6836 43.4688C39.8867 43.4688 39.4375 42.8906 39.4375 41.8945C39.4375 40.8945 39.8867 40.3203 40.6836 40.3203C41.4805 40.3203 41.9297 40.8945 41.9297 41.8945C41.9297 42.8906 41.4805 43.4688 40.6836 43.4688ZM45.5469 44C46.4531 44 46.9883 43.5234 46.9883 42.7891C46.9883 42.2969 46.6484 41.9219 46.1133 41.8477V41.7852C46.5078 41.7031 46.8008 41.3047 46.8008 40.8867C46.8008 40.2227 46.3359 39.7891 45.5391 39.7891H43.7539V44H45.5469ZM44.4258 40.3516H45.4531C45.9258 40.3516 46.1367 40.5938 46.1367 40.957C46.1367 41.3594 45.8906 41.5703 45.3438 41.5703H44.4258V40.3516ZM44.4258 42.1328H45.4023C46.0078 42.1328 46.3203 42.332 46.3203 42.7773C46.3203 43.2031 46.0469 43.4375 45.5312 43.4375H44.4258V42.1328ZM48.1367 44H49.6406C50.6055 44 51.2227 43.4453 51.2227 42.5703C51.2227 41.6953 50.6055 41.1406 49.6406 41.1406H48.8086V39.7891H48.1367V44ZM49.6406 41.7031C50.1914 41.7031 50.5508 42.043 50.5508 42.5703C50.5508 43.0938 50.1953 43.4375 49.6406 43.4375H48.8086V41.7031H49.6406ZM55.0625 42.9102C54.8867 43.2812 54.5195 43.4805 53.9766 43.4805C53.2617 43.4805 52.7969 42.9531 52.7617 42.1211V42.0898H55.7891V41.832C55.7891 40.5234 55.0977 39.7148 53.9609 39.7148C52.8047 39.7148 52.0625 40.5742 52.0625 41.8984C52.0625 43.2305 52.793 44.0742 53.9609 44.0742C54.8828 44.0742 55.5391 43.6289 55.7344 42.9102H55.0625ZM53.9531 40.3086C54.6211 40.3086 55.0664 40.8008 55.082 41.5469H52.7617C52.8125 40.8008 53.2812 40.3086 53.9531 40.3086Z" fill="#0B8BD2"/>
<path d="M39.8439 17.4939C40.8492 17.0148 41.1773 15.606 40.5798 14.3544C39.9813 13.0986 38.6804 12.4665 37.6751 12.9456C36.6699 13.4246 36.3418 14.8334 36.9403 16.0892C37.5389 17.3429 38.8397 17.975 39.8439 17.4939Z" fill="#0B8BD2"/>
<path d="M42.8566 10C43.8231 16.0494 39.518 20.584 39.518 20.584C39.518 20.584 35.9687 14.5787 30 12.7663C41.6103 21.256 35.0022 31.84 35.0022 31.84H38.3628C38.3639 31.84 46.1753 18.3586 42.8566 10Z" fill="#0B8BD2"/>
</svg>
