<svg width="68" height="80" viewBox="0 0 68 80" fill="none" xmlns="http://www.w3.org/2000/svg">
<g clip-path="url(#clip0)">
<path d="M18.1862 26.4732C18.1862 26.4732 19.2385 26.9217 18.9395 27.6624C18.6406 28.4032 17.6094 31.4276 17.4948 32.9774C17.3802 34.5273 17.2746 36.0637 17.5866 38.0455C17.8986 40.0274 18.5275 41.5351 18.5275 41.5351L16.1616 41.7473C16.1616 41.7473 13.9012 33.9272 13.9058 33.891C13.9103 33.8549 15.8996 28.5608 15.8996 28.5608L17.4635 26.147L18.1862 26.4732Z" fill="#CA3123"/>
<path fill-rule="evenodd" clip-rule="evenodd" d="M15.9255 42.0923L18.9946 41.8171L18.8252 41.411L18.8252 41.4109L18.825 41.4105L18.8239 41.4079C18.8229 41.4054 18.8213 41.4015 18.8192 41.3962C18.8149 41.3857 18.8084 41.3695 18.7999 41.3479C18.7829 41.3049 18.7579 41.2404 18.7268 41.1565C18.6646 40.9886 18.5781 40.7434 18.4818 40.4368C18.289 39.823 18.0582 38.9666 17.9053 37.9953C17.5995 36.053 17.702 34.5486 17.8165 33.0012C17.871 32.2644 18.1478 31.1504 18.4572 30.1083C18.7648 29.0724 19.0941 28.1413 19.2387 27.7831C19.464 27.2248 19.1559 26.7907 18.8917 26.551C18.7559 26.4278 18.6124 26.3354 18.5058 26.2746C18.4518 26.2438 18.4054 26.2201 18.3719 26.2037C18.355 26.1956 18.3413 26.1892 18.3312 26.1846C18.3262 26.1823 18.3221 26.1805 18.319 26.1791L18.3168 26.1782L17.3435 25.7389L15.6099 28.4146L15.5977 28.4473L15.8996 28.5608C15.5977 28.4473 15.5977 28.4472 15.5977 28.4473L15.5122 28.6749C15.4577 28.8197 15.38 29.0267 15.2867 29.2751C15.1001 29.772 14.8513 30.435 14.6023 31.0991C14.3534 31.7631 14.1042 32.4284 13.917 32.9301C13.8234 33.1808 13.7452 33.391 13.6902 33.5396C13.6627 33.6139 13.6408 33.6733 13.6257 33.7149C13.6182 33.7356 13.612 33.7527 13.6076 33.7654C13.6054 33.7716 13.6031 33.7781 13.6012 33.784C13.6003 33.7867 13.5988 33.7913 13.5972 33.7965C13.5965 33.799 13.5951 33.8036 13.5936 33.8094L13.5935 33.8097C13.5928 33.8126 13.5884 33.8292 13.5857 33.8502C13.5857 33.8505 13.5857 33.8507 13.5856 33.8509C13.5838 33.8708 13.5833 33.9009 13.5838 33.9117C13.5843 33.9185 13.5855 33.93 13.5861 33.9347C13.5873 33.944 13.5887 33.9514 13.5894 33.9548C13.5908 33.9623 13.5924 33.9688 13.5932 33.9724C13.5951 33.9805 13.5974 33.9895 13.5997 33.9982C13.6044 34.0161 13.611 34.0407 13.6193 34.0707C13.6359 34.1311 13.6602 34.2178 13.6909 34.3266C13.7524 34.5445 13.8405 34.8533 13.9461 35.2225C14.1575 35.961 14.4397 36.9422 14.7219 37.922C15.0042 38.9018 15.2867 39.8805 15.4985 40.6143C15.6045 40.9811 15.6927 41.2868 15.7545 41.5007L15.8516 41.8367C15.8517 41.8368 15.8517 41.8368 16.1616 41.7472L15.8517 41.8368L15.9255 42.0923ZM16.3976 41.4022L16.3744 41.3216C16.3126 41.1077 16.2243 40.8021 16.1184 40.4353C15.9065 39.7016 15.6242 38.7231 15.3419 37.7434C15.0597 36.7636 14.7776 35.783 14.5664 35.045C14.4608 34.676 14.373 34.368 14.3118 34.1513C14.2822 34.0464 14.2589 33.9634 14.243 33.9055C14.2566 33.8683 14.2741 33.8207 14.2953 33.7635C14.3499 33.6157 14.4279 33.4063 14.5214 33.1557C14.7085 32.6545 14.9575 31.9895 15.2064 31.3256C15.4554 30.6616 15.7042 29.9988 15.8907 29.5019C15.984 29.2535 16.0617 29.0466 16.1161 28.9017L16.1893 28.7069L17.5834 26.555L18.0565 26.7686L18.0588 26.7695L18.0593 26.7697C18.0602 26.7701 18.0619 26.7709 18.0646 26.7721C18.0698 26.7745 18.0783 26.7784 18.0897 26.784C18.1125 26.795 18.1461 26.8122 18.1861 26.835C18.2674 26.8814 18.3683 26.9474 18.4582 27.0289C18.6454 27.1987 18.714 27.3592 18.6404 27.5416C18.486 27.9242 18.1502 28.8757 17.8388 29.9247C17.5292 30.9674 17.2332 32.1405 17.1731 32.9536C17.0582 34.506 16.9497 36.0743 17.2679 38.0956C17.427 39.1062 17.6666 39.9946 17.8663 40.6301C17.944 40.8778 18.0159 41.0876 18.0749 41.2518L16.3976 41.4022Z" fill="#1C1C1C"/>
<path d="M17.3048 25.0808C17.3048 25.0808 18.2979 25.6486 17.9147 26.3496C17.5316 27.0506 16.1556 29.9345 15.8616 31.4605C15.5675 32.9865 15.284 34.5002 15.3634 36.5049C15.4428 38.5096 15.8919 40.0802 15.8919 40.0802L13.5175 40.0159C13.5175 40.0159 12.182 31.9859 12.1907 31.9505C12.1994 31.9151 14.791 26.8883 14.791 26.8883L16.6249 24.6728L17.3048 25.0808Z" fill="#CA3123"/>
<path fill-rule="evenodd" clip-rule="evenodd" d="M15.4754 39.7462L13.7921 39.7006L13.7784 39.6178C13.7419 39.3982 13.6897 39.0844 13.6272 38.7078C13.5022 37.9544 13.3355 36.9496 13.1691 35.9438C13.0027 34.9378 12.8367 33.931 12.7127 33.1735C12.6508 32.7947 12.5994 32.4786 12.5638 32.2562C12.5466 32.1486 12.5331 32.0635 12.524 32.004C12.5418 31.9687 12.5648 31.9234 12.5925 31.8691C12.6639 31.7287 12.7657 31.5298 12.8878 31.2917C13.1318 30.8157 13.4565 30.1842 13.781 29.5537C14.1054 28.9232 14.4296 28.2938 14.6727 27.822C14.7942 27.5861 14.8955 27.3896 14.9664 27.2521L15.0618 27.0671L16.6967 25.0921L17.1418 25.3591L17.1439 25.3603L17.1441 25.3605L17.1444 25.3606C17.1451 25.3611 17.1468 25.3621 17.1493 25.3635C17.1542 25.3665 17.1622 25.3714 17.1729 25.3782C17.1942 25.3919 17.2256 25.4128 17.2627 25.4401C17.3381 25.4957 17.4306 25.573 17.5105 25.6644C17.6766 25.8548 17.7261 26.0222 17.6317 26.1948C17.4339 26.5569 16.9896 27.4629 16.5583 28.4685C16.1296 29.4681 15.6991 30.5989 15.5449 31.3994C15.2503 32.928 14.9601 34.473 15.0411 36.5176C15.0816 37.5399 15.2162 38.4501 15.3406 39.1045C15.389 39.3595 15.436 39.5762 15.4754 39.7462ZM14.791 26.8883C14.5043 26.7404 14.5043 26.7405 14.5043 26.7405L14.3929 26.9565C14.322 27.0941 14.2207 27.2906 14.0992 27.5265C13.8561 27.9983 13.5318 28.6278 13.2073 29.2585C12.8828 29.8891 12.5579 30.5209 12.3136 30.9974C12.1915 31.2355 12.0894 31.4351 12.0175 31.5764C11.9816 31.647 11.953 31.7034 11.9331 31.743C11.9232 31.7627 11.9151 31.779 11.9092 31.7911C11.9063 31.797 11.9033 31.8032 11.9007 31.8088C11.8995 31.8114 11.8974 31.8158 11.8953 31.8208C11.8942 31.8232 11.8923 31.8277 11.8902 31.8332L11.8901 31.8335C11.889 31.8363 11.8827 31.8523 11.8776 31.873C11.8775 31.8732 11.8775 31.8735 11.8774 31.8737C11.8733 31.8932 11.8693 31.923 11.8686 31.9337C11.8683 31.9406 11.8681 31.9521 11.8682 31.9569C11.8683 31.9662 11.8689 31.9737 11.8691 31.9771C11.8697 31.9847 11.8704 31.9913 11.8709 31.995C11.8718 32.0032 11.8731 32.0125 11.8743 32.0214C11.8769 32.0397 11.8806 32.0649 11.8853 32.0957C11.8948 32.1575 11.9088 32.2465 11.9267 32.3581C11.9625 32.5817 12.014 32.8987 12.076 33.2777C12.2 34.0357 12.3662 35.043 12.5326 36.049C12.699 37.0551 12.8657 38.06 12.9907 38.8134C13.0533 39.1901 13.1054 39.5039 13.1419 39.7236L13.1993 40.0687C13.1993 40.0687 13.1993 40.0688 13.5175 40.0158L13.1993 40.0688L13.2429 40.3311L16.3231 40.4146L16.2022 39.9916L16.2021 39.9915L16.202 39.991L16.2012 39.9883C16.2005 39.9858 16.1994 39.9817 16.1979 39.9762C16.1948 39.9652 16.1903 39.9484 16.1843 39.926C16.1724 39.8812 16.1551 39.8143 16.134 39.7273C16.0918 39.5534 16.0344 39.2998 15.9744 38.9841C15.8543 38.3521 15.7247 37.4746 15.6858 36.4921C15.6079 34.5274 15.8848 33.0451 16.1784 31.5215C16.3182 30.796 16.7227 29.7219 17.1513 28.7228C17.5772 27.7297 18.0126 26.8432 18.1979 26.5043C18.4866 25.9759 18.2311 25.5089 17.9965 25.2402C17.8759 25.102 17.7442 24.9935 17.6454 24.9207C17.5953 24.8838 17.5521 24.8549 17.5206 24.8348C17.5048 24.8247 17.4919 24.8168 17.4825 24.8111C17.4777 24.8082 17.4739 24.8059 17.4709 24.8042L17.4689 24.803L16.5533 24.2536L14.5203 26.7094L14.5043 26.7405L14.791 26.8883Z" fill="#1C1C1C"/>
<path d="M16.6876 23.2305C16.6876 23.2305 17.6323 23.8756 17.1945 24.5439C16.7567 25.2121 15.1553 27.9771 14.7405 29.4749C14.3258 30.9726 13.9225 32.4588 13.8419 34.4635C13.7612 36.4682 14.0838 38.0696 14.0838 38.0696L11.722 37.8161C11.722 37.8161 11.0307 29.7053 11.0423 29.6707C11.0538 29.6362 14.0377 24.8319 14.0377 24.8319L16.0424 22.7696L16.6876 23.2305Z" fill="#CA3123"/>
<path fill-rule="evenodd" clip-rule="evenodd" d="M13.6952 37.7034L12.0208 37.5237L12.0137 37.4402C11.9948 37.2183 11.9679 36.9014 11.9356 36.5209C11.8709 35.76 11.7849 34.7452 11.6992 33.7292C11.6135 32.7133 11.5282 31.6964 11.4651 30.9314C11.4335 30.5489 11.4075 30.2297 11.3897 30.0052C11.3811 29.8965 11.3745 29.8107 11.3701 29.7507C11.3907 29.7169 11.4172 29.6736 11.4491 29.6216C11.5316 29.4874 11.6489 29.2972 11.7895 29.0696C12.0708 28.6146 12.4447 28.011 12.8184 27.4083C13.1921 26.8057 13.5654 26.2041 13.8453 25.7532C13.9853 25.5277 14.1019 25.3399 14.1835 25.2085L14.2933 25.0317L16.0804 23.1932L16.5028 23.4949L16.5048 23.4963L16.505 23.4964L16.5053 23.4966C16.506 23.4971 16.5076 23.4982 16.51 23.4999C16.5146 23.5032 16.5223 23.5088 16.5323 23.5164C16.5525 23.5318 16.5821 23.5551 16.6169 23.5853C16.6876 23.6467 16.7737 23.7311 16.846 23.8286C16.9965 24.0316 17.0325 24.2024 16.9246 24.367C16.6985 24.7121 16.1835 25.5798 15.6734 26.5479C15.1664 27.5101 14.6472 28.603 14.4296 29.3887C14.0142 30.8889 13.6018 32.4059 13.5195 34.4505C13.4784 35.4727 13.5401 36.3907 13.6119 37.053C13.6398 37.3111 13.6694 37.5309 13.6952 37.7034ZM14.0377 24.8318C13.7637 24.6616 13.7636 24.6616 13.7636 24.6617L13.6354 24.8682C13.5538 24.9996 13.4372 25.1874 13.2972 25.4129C13.0173 25.8639 12.6439 26.4655 12.2701 27.0683C11.8964 27.671 11.5222 28.275 11.2407 28.7304C11.1 28.9581 10.9823 29.149 10.8993 29.284C10.8579 29.3515 10.8249 29.4055 10.8019 29.4434C10.7905 29.4622 10.7811 29.4778 10.7743 29.4894C10.7709 29.495 10.7675 29.5009 10.7644 29.5063C10.763 29.5088 10.7606 29.513 10.7581 29.5177C10.7569 29.52 10.7546 29.5243 10.7521 29.5297L10.7519 29.5299C10.7506 29.5327 10.743 29.5483 10.7362 29.5687C10.7305 29.5877 10.724 29.6177 10.7224 29.6285C10.7215 29.6353 10.7205 29.6467 10.7201 29.6515C10.7196 29.6607 10.7195 29.6682 10.7195 29.6717C10.7195 29.6793 10.7197 29.6859 10.7198 29.6897C10.7201 29.6979 10.7206 29.7073 10.7211 29.7162C10.7222 29.7347 10.724 29.7601 10.7262 29.7911C10.7307 29.8535 10.7376 29.9433 10.7465 30.056C10.7644 30.2817 10.7905 30.6018 10.8221 30.9845C10.8853 31.7501 10.9706 32.7674 11.0563 33.7835C11.142 34.7996 11.2281 35.8146 11.2927 36.5755C11.325 36.956 11.352 37.273 11.3708 37.4949L11.4005 37.8434C11.4005 37.8434 11.4005 37.8435 11.722 37.8161L11.4005 37.8435L11.4231 38.1085L14.4869 38.4373L14.4 38.006L14.4 38.0058L14.3999 38.0054L14.3994 38.0026C14.3989 38 14.3981 37.9959 14.397 37.9903C14.3948 37.9791 14.3916 37.962 14.3875 37.9392C14.3792 37.8936 14.3673 37.8255 14.3532 37.7371C14.325 37.5604 14.2879 37.303 14.2533 36.9835C14.1839 36.3439 14.1246 35.4589 14.1642 34.4764C14.2432 32.5117 14.6373 31.0562 15.0514 29.5609C15.2485 28.8489 15.7374 27.8104 16.2442 26.8486C16.748 25.8926 17.2526 25.0437 17.4643 24.7206C17.7943 24.2169 17.5768 23.731 17.3643 23.4444C17.2552 23.2971 17.1325 23.1785 17.0397 23.098C16.9928 23.0573 16.952 23.025 16.9222 23.0024C16.9073 22.9911 16.8951 22.9822 16.8861 22.9757C16.8816 22.9725 16.8779 22.9699 16.8751 22.9679L16.8732 22.9666L16.0043 22.3459L13.7821 24.632L13.7636 24.6617L14.0377 24.8318Z" fill="#1C1C1C"/>
<path d="M49.3616 26.4732C49.3616 26.4732 48.3091 26.9217 48.6082 27.6624C48.9072 28.4032 49.9385 31.4276 50.053 32.9774C50.1676 34.5273 50.2731 36.0637 49.9611 38.0455C49.6491 40.0274 49.0203 41.5351 49.0203 41.5351L51.3862 41.7473C51.3862 41.7473 53.6465 33.9272 53.642 33.891C53.6374 33.8549 51.6481 28.5608 51.6481 28.5608L50.0843 26.147L49.3616 26.4732Z" fill="#CA3123"/>
<path fill-rule="evenodd" clip-rule="evenodd" d="M51.696 41.8368L51.3861 41.7472C51.696 41.8368 51.696 41.8368 51.696 41.8367L51.7931 41.5007C51.8549 41.2868 51.9432 40.9811 52.0491 40.6143C52.261 39.8805 52.5434 38.9018 52.8257 37.922C53.1079 36.9422 53.3901 35.961 53.6014 35.2225C53.7071 34.8533 53.7951 34.5445 53.8567 34.3266C53.8874 34.2178 53.9117 34.1311 53.9283 34.0707C53.9365 34.0408 53.9432 34.0162 53.9479 33.9982C53.9501 33.9896 53.9525 33.9805 53.9544 33.9725C53.9552 33.9689 53.9567 33.9624 53.9582 33.955C53.9588 33.9516 53.9602 33.9442 53.9615 33.935C53.9621 33.9303 53.9632 33.9189 53.9638 33.9121C53.9643 33.9013 53.9638 33.8707 53.962 33.851L53.9619 33.8509C53.9592 33.8286 53.9544 33.8112 53.954 33.8094C53.9525 33.8036 53.9511 33.799 53.9504 33.7965C53.9488 33.7913 53.9473 33.7867 53.9464 33.784C53.9445 33.7781 53.9422 33.7716 53.94 33.7654C53.9356 33.7527 53.9294 33.7356 53.9219 33.7149C53.9067 33.6733 53.8849 33.6139 53.8574 33.5396C53.8024 33.391 53.7242 33.1808 53.6306 32.9301C53.4434 32.4284 53.1942 31.7631 52.9453 31.0991C52.6963 30.435 52.4475 29.772 52.2609 29.2751C52.1676 29.0267 52.0899 28.8197 52.0354 28.6749L51.95 28.4473C51.9499 28.4473 51.9499 28.4473 51.648 28.5608L51.95 28.4473L51.9377 28.4146L50.2041 25.7389L49.2308 26.1782L49.2287 26.1791C49.2255 26.1805 49.2214 26.1823 49.2164 26.1846C49.2063 26.1892 49.1926 26.1956 49.1757 26.2037C49.1422 26.2201 49.0959 26.2438 49.0418 26.2746C48.9352 26.3354 48.7917 26.4278 48.6559 26.551C48.3916 26.7907 48.0835 27.2248 48.3089 27.7832C48.4535 28.1414 48.7828 29.0724 49.0904 30.1083C49.3998 31.1505 49.6767 32.2644 49.7312 33.0012C49.8456 34.5486 49.9481 36.053 49.6423 37.9953C49.4894 38.9666 49.2586 39.823 49.0658 40.4368C48.9695 40.7434 48.883 40.9886 48.8208 41.1565C48.7897 41.2404 48.7647 41.3049 48.7477 41.3479C48.7392 41.3695 48.7327 41.3857 48.7284 41.3962C48.7263 41.4015 48.7247 41.4054 48.7237 41.4079L48.7226 41.4105L48.7224 41.4109L48.553 41.8171L51.6222 42.0923L51.696 41.8368ZM49.4727 41.2518C49.5317 41.0876 49.6036 40.8778 49.6814 40.6301C49.881 39.9946 50.1206 39.1062 50.2797 38.0956C50.5979 36.0743 50.4894 34.506 50.3746 32.9536C50.3145 32.1406 50.0185 30.9674 49.7089 29.9247C49.3974 28.8757 49.0616 27.9242 48.9072 27.5416C48.8336 27.3592 48.9021 27.1987 49.0893 27.0289C49.1792 26.9474 49.2802 26.8814 49.3615 26.835C49.4015 26.8122 49.4351 26.795 49.4579 26.784C49.4693 26.7784 49.4778 26.7745 49.483 26.7721C49.4856 26.7709 49.4874 26.7701 49.4882 26.7698L49.4885 26.7696L49.4888 26.7695L49.4911 26.7686L49.9642 26.555L51.3583 28.7069L51.4315 28.9017C51.4859 29.0466 51.5636 29.2535 51.6569 29.5019C51.8434 29.9988 52.0922 30.6616 52.3412 31.3256C52.5901 31.9895 52.8391 32.6545 53.0262 33.1557C53.1197 33.4063 53.1977 33.6157 53.2523 33.7635C53.2735 33.8207 53.291 33.8683 53.3046 33.9054C53.2886 33.9634 53.2654 34.0464 53.2358 34.1513C53.1746 34.368 53.0868 34.676 52.9812 35.045C52.77 35.783 52.4879 36.7637 52.2057 37.7434C51.9235 38.7231 51.6411 39.7016 51.4293 40.4353C51.3234 40.8021 51.2351 41.1077 51.1733 41.3216L51.15 41.4022L49.4727 41.2518Z" fill="#1C1C1C"/>
<path d="M50.2429 25.0808C50.2429 25.0808 49.2498 25.6486 49.633 26.3496C50.0161 27.0506 51.3921 29.9345 51.6861 31.4605C51.9802 32.9865 52.2637 34.5002 52.1843 36.5049C52.1049 38.5096 51.6557 40.0802 51.6557 40.0802L54.0302 40.0159C54.0302 40.0159 55.3658 31.9859 55.357 31.9505C55.3484 31.9151 52.7567 26.8883 52.7567 26.8883L50.9228 24.6728L50.2429 25.0808Z" fill="#CA3123"/>
<path fill-rule="evenodd" clip-rule="evenodd" d="M51.2245 40.4146L54.3048 40.3311L54.3484 40.0688L54.0302 40.0158C54.3484 40.0688 54.3484 40.0687 54.3484 40.0687L54.4058 39.7236C54.4423 39.5039 54.4944 39.1901 54.557 38.8134C54.682 38.06 54.8487 37.0551 55.0151 36.049C55.1815 35.043 55.3477 34.0357 55.4717 33.2777C55.5337 32.8987 55.5852 32.5817 55.621 32.3581C55.6389 32.2465 55.6529 32.1575 55.6624 32.0957C55.6671 32.0649 55.6708 32.0397 55.6734 32.0214C55.6746 32.0125 55.6759 32.0032 55.6768 31.995C55.6773 31.9913 55.678 31.9847 55.6786 31.9771C55.6789 31.9737 55.6794 31.9662 55.6795 31.9569C55.6796 31.9521 55.6794 31.9406 55.6791 31.9337C55.6784 31.923 55.6744 31.8932 55.6703 31.8737C55.6702 31.8735 55.6702 31.8732 55.6701 31.873M55.6701 31.873C55.6648 31.8514 55.6582 31.8349 55.6575 31.8332C55.6562 31.8297 55.6549 31.8266 55.6539 31.8242C55.6533 31.8228 55.6528 31.8217 55.6524 31.8208C55.6503 31.8158 55.6483 31.8114 55.647 31.8088C55.6444 31.8032 55.6414 31.797 55.6385 31.7911C55.6326 31.779 55.6245 31.7627 55.6146 31.743C55.5948 31.7034 55.5661 31.647 55.5302 31.5764C55.4583 31.4351 55.3562 31.2355 55.2341 30.9974C54.9898 30.5209 54.6649 29.8891 54.3404 29.2585C54.0158 28.6278 53.6916 27.9983 53.4485 27.5265C53.3269 27.2906 53.2256 27.0941 53.1547 26.9565L53.0435 26.7407L53.0434 26.7405C53.0433 26.7405 53.0433 26.7404 52.7566 26.8883L53.0434 26.7405L53.0274 26.7094L50.9945 24.2536L50.0788 24.803L50.0768 24.8042C50.0739 24.8059 50.07 24.8082 50.0652 24.8111C50.0558 24.8168 50.0429 24.8247 50.0271 24.8348C49.9957 24.8549 49.9524 24.8838 49.9024 24.9207C49.8035 24.9935 49.6718 25.102 49.5512 25.2402C49.3166 25.5089 49.0611 25.9759 49.3499 26.5043C49.5351 26.8432 49.9705 27.7297 50.3965 28.7228C50.825 29.7219 51.2295 30.796 51.3693 31.5215C51.6629 33.045 51.9398 34.5274 51.8619 36.4921C51.823 37.4746 51.6934 38.3521 51.5733 38.9841C51.5133 39.2998 51.4558 39.5534 51.4136 39.7273C51.3925 39.8143 51.3752 39.8812 51.3633 39.926C51.3574 39.9484 51.3528 39.9652 51.3498 39.9762C51.3482 39.9817 51.3471 39.9858 51.3464 39.9883L51.3456 39.991L51.3455 39.9914L51.2245 40.4146M52.0722 39.7462C52.1117 39.5762 52.1586 39.3595 52.2071 39.1045C52.3315 38.4501 52.4661 37.5399 52.5066 36.5176C52.5066 36.5176 52.5066 36.5176 52.5066 36.5176C52.5876 34.473 52.2974 32.9279 52.0028 31.3994C51.8486 30.5989 51.4182 29.4681 50.9894 28.4685C50.5581 27.4629 50.1139 26.5569 49.916 26.1948C49.8216 26.0222 49.8711 25.8548 50.0373 25.6644C50.1171 25.573 50.2097 25.4957 50.2851 25.4401C50.3221 25.4128 50.3535 25.3919 50.3748 25.3782C50.3855 25.3714 50.3935 25.3665 50.3984 25.3635C50.4009 25.3621 50.4025 25.3611 50.4033 25.3606L50.4036 25.3605L50.4039 25.3603L50.406 25.3591L50.851 25.0921L52.4859 27.0671L52.5812 27.2521C52.6521 27.3896 52.7534 27.5861 52.8749 27.822C53.118 28.2938 53.4422 28.9232 53.7667 29.5537C54.0912 30.1842 54.4159 30.8157 54.6599 31.2917C54.782 31.5298 54.8838 31.7287 54.9553 31.8691C54.9829 31.9235 55.0059 31.9688 55.0237 32.004C55.0146 32.0635 55.0012 32.1486 54.9839 32.2562C54.9483 32.4786 54.897 32.7947 54.835 33.1735C54.7111 33.931 54.545 34.9378 54.3786 35.9438C54.2122 36.9496 54.0456 37.9544 53.9205 38.7078C53.858 39.0844 53.8058 39.3982 53.7693 39.6178L53.7556 39.7006L52.0722 39.7462Z" fill="#1C1C1C"/>
<path d="M50.8601 23.2305C50.8601 23.2305 49.9154 23.8756 50.3532 24.5439C50.791 25.2121 52.3924 27.9771 52.8072 29.4749C53.222 30.9726 53.6252 32.4588 53.7058 34.4635C53.7865 36.4682 53.4639 38.0696 53.4639 38.0696L55.8257 37.8161C55.8257 37.8161 56.517 29.7053 56.5055 29.6707C56.4939 29.6362 53.51 24.8319 53.51 24.8319L51.5053 22.7696L50.8601 23.2305Z" fill="#CA3123"/>
<path fill-rule="evenodd" clip-rule="evenodd" d="M53.0607 38.4373L56.1246 38.1085L56.1471 37.8435L55.8257 37.8161C56.1471 37.8435 56.1471 37.8434 56.1471 37.8434L56.1472 37.8431L56.1768 37.4949C56.1957 37.273 56.2227 36.956 56.255 36.5755C56.3196 35.8146 56.4057 34.7996 56.4914 33.7835C56.577 32.7674 56.6624 31.7501 56.7256 30.9845C56.7572 30.6018 56.7833 30.2817 56.8011 30.056C56.8101 29.9433 56.817 29.8535 56.8215 29.7911C56.8237 29.7601 56.8254 29.7347 56.8265 29.7162C56.8271 29.7073 56.8276 29.6979 56.8279 29.6897C56.828 29.6859 56.8282 29.6793 56.8282 29.6717C56.8282 29.6682 56.8281 29.6607 56.8275 29.6515C56.8272 29.6467 56.8261 29.6353 56.8253 29.6285C56.8237 29.6177 56.8172 29.5877 56.8115 29.5687C56.8044 29.5474 56.7964 29.5313 56.7956 29.5297C56.793 29.5243 56.7908 29.52 56.7896 29.5177C56.787 29.513 56.7847 29.5088 56.7833 29.5063C56.7802 29.5009 56.7767 29.495 56.7734 29.4894C56.7666 29.4778 56.7572 29.4622 56.7458 29.4434C56.7228 29.4055 56.6898 29.3515 56.6483 29.284C56.5654 29.149 56.4477 28.9581 56.307 28.7304C56.0255 28.275 55.6513 27.671 55.2776 27.0683C54.9038 26.4655 54.5304 25.8639 54.2505 25.4129C54.1105 25.1874 53.9939 24.9996 53.9123 24.8682L53.784 24.6617C53.784 24.6616 53.784 24.6616 53.51 24.8318L53.784 24.6617L53.7656 24.632L51.5434 22.3459L50.6744 22.9666L50.6725 22.9679C50.6697 22.9699 50.666 22.9725 50.6615 22.9757C50.6526 22.9822 50.6403 22.9911 50.6254 23.0024C50.5957 23.025 50.5549 23.0573 50.5079 23.098C50.4152 23.1785 50.2925 23.2971 50.1833 23.4444C49.9709 23.731 49.7534 24.2169 50.0834 24.7206C50.295 25.0437 50.7997 25.8926 51.3034 26.8486C51.8102 27.8104 52.2991 28.8489 52.4963 29.5609C52.9104 31.0562 53.3045 32.5117 53.3835 34.4764C53.423 35.4589 53.3637 36.3439 53.2944 36.9835C53.2598 37.303 53.2227 37.5604 53.1945 37.7371C53.1804 37.8255 53.1685 37.8936 53.1602 37.9392C53.1561 37.962 53.1528 37.9791 53.1507 37.9903C53.1496 37.9959 53.1488 38 53.1483 38.0026L53.1477 38.0054L53.1476 38.0058L53.0607 38.4373ZM53.8525 37.7034C53.8783 37.5309 53.9078 37.3111 53.9358 37.053C54.0076 36.3907 54.0693 35.4727 54.0282 34.4505C53.9459 32.4059 53.5335 30.8889 53.1181 29.3887C52.9005 28.603 52.3813 27.5101 51.8742 26.5479C51.3641 25.5798 50.8491 24.7121 50.623 24.367C50.5152 24.2024 50.5512 24.0316 50.7016 23.8286C50.7739 23.7311 50.86 23.6467 50.9308 23.5853C50.9655 23.5551 50.9951 23.5318 51.0153 23.5164C51.0254 23.5088 51.033 23.5032 51.0377 23.4999C51.0391 23.4989 51.0402 23.4981 51.041 23.4975L51.042 23.4968L51.0422 23.4967L51.0423 23.4966L51.0426 23.4964L51.0428 23.4963L51.0449 23.4949L51.4672 23.1932L53.2543 25.0317L53.3642 25.2085C53.4458 25.3399 53.5624 25.5277 53.7023 25.7532C53.9822 26.2041 54.3556 26.8057 54.7292 27.4083C55.1029 28.011 55.4769 28.6146 55.7581 29.0696C55.8988 29.2972 56.0161 29.4874 56.0985 29.6216C56.1304 29.6736 56.157 29.7169 56.1775 29.7507C56.1732 29.8107 56.1666 29.8965 56.158 30.0052C56.1402 30.2297 56.1142 30.5489 56.0826 30.9314C56.0194 31.6964 55.9341 32.7133 55.8485 33.7292C55.7628 34.7452 55.6767 35.76 55.6121 36.5209C55.5798 36.9014 55.5528 37.2183 55.534 37.4402L55.5268 37.5237L53.8525 37.7034Z" fill="#1C1C1C"/>
<path d="M54.1118 42.7509C54.1118 54.0006 44.9922 63.1202 33.7425 63.1202C22.4929 63.1202 13.3733 54.0006 13.3733 42.7509C13.3733 31.5013 22.4929 22.3817 33.7425 22.3817C44.9922 22.3817 54.1118 31.5013 54.1118 42.7509Z" fill="#89AE3A"/>
<path fill-rule="evenodd" clip-rule="evenodd" d="M13.1429 42.751C13.1429 54.1279 22.3657 63.3506 33.7426 63.3506C45.1195 63.3506 54.3423 54.1279 54.3423 42.751C54.3423 31.3741 45.1195 22.1513 33.7426 22.1513C22.3657 22.1513 13.1429 31.3741 13.1429 42.751ZM33.7426 62.8898C22.6202 62.8898 13.6038 53.8734 13.6038 42.751C13.6038 31.6286 22.6202 22.6122 33.7426 22.6122C44.865 22.6122 53.8814 31.6286 53.8814 42.751C53.8814 53.8734 44.865 62.8898 33.7426 62.8898Z" fill="#1C1C1C"/>
<path d="M21.561 53.2427V29.2328C21.561 29.2328 21.6647 27.5623 19.6255 27.5623C17.5862 27.5623 17.6669 29.1983 17.6669 29.1983V35.6155C17.6669 35.6155 17.3097 37.7469 15.2244 37.7469C13.1391 37.7469 12.252 36.2031 12.2635 34.6823C12.275 33.1615 12.8511 29.8665 13.6115 28.0346C14.3718 26.2028 15.7889 23.9677 16.388 23.1958C16.9871 22.4239 17.7706 21.8709 17.5171 20.7764C17.2636 19.6819 16.5263 19.3017 16.123 19.1634C15.7198 19.0252 15.0401 18.933 14.4294 19.3017C13.8188 19.6703 12.2981 21.2603 11.8372 21.8709C11.3764 22.4815 9.61364 24.9816 9.07215 27.1475C8.53066 29.3135 8.02374 30.8803 8.02374 33.1961C8.02374 35.5118 7.88548 37.1017 9.07215 40.512C10.2588 43.9222 12.6782 46.5029 12.9317 46.7449C13.1852 46.9868 14.3373 48.5537 14.7175 49.9592C15.0977 51.3648 15.1783 52.0215 15.1783 52.4017V53.2082L21.561 53.2427Z" fill="#CA3123"/>
<path fill-rule="evenodd" clip-rule="evenodd" d="M21.8835 53.5671V29.2404C21.8837 29.2365 21.8839 29.2318 21.884 29.2264C21.8841 29.2247 21.8841 29.2228 21.8841 29.221C21.8845 29.2041 21.8846 29.1811 21.8839 29.1529C21.8825 29.0967 21.8778 29.0189 21.8647 28.9266C21.8388 28.7434 21.779 28.4946 21.6408 28.2425C21.501 27.9876 21.2824 27.7321 20.9469 27.5425C20.6125 27.3534 20.1797 27.2397 19.6254 27.2397C18.5017 27.2397 17.8994 27.7009 17.6016 28.2197C17.4596 28.4671 17.3961 28.7116 17.3675 28.8922C17.3531 28.983 17.3472 29.0597 17.345 29.1152C17.3439 29.143 17.3437 29.1657 17.3438 29.1824C17.3439 29.1908 17.3441 29.1977 17.3442 29.203C17.3442 29.2033 17.3442 29.2037 17.3442 29.204V35.5847C17.3418 35.5966 17.3383 35.6127 17.3336 35.6326C17.3216 35.683 17.3019 35.7573 17.2722 35.8473C17.2123 36.0283 17.1134 36.2674 16.958 36.5041C16.6524 36.9693 16.1333 37.4243 15.2244 37.4243C14.2694 37.4243 13.62 37.0749 13.2052 36.5781C12.7832 36.0727 12.5807 35.386 12.586 34.6847C12.5916 33.9526 12.7345 32.7705 12.9733 31.5364C13.2121 30.3026 13.5413 29.0451 13.9094 28.1583C14.6574 26.3562 16.059 24.1458 16.6428 23.3936C16.7559 23.2479 16.8747 23.1117 16.9983 22.9702C17.0308 22.933 17.0635 22.8954 17.0966 22.8572C17.2514 22.6785 17.4107 22.4881 17.5435 22.2816C17.8188 21.8537 17.9818 21.3535 17.8313 20.7036C17.5441 19.4631 16.6937 19.018 16.2276 18.8583C15.7768 18.7037 14.987 18.5882 14.2627 19.0255C13.9173 19.234 13.3571 19.7536 12.8478 20.2687C12.3307 20.7916 11.8232 21.3538 11.5797 21.6765C11.3432 21.9899 10.7798 22.7783 10.2061 23.7636C9.63465 24.7451 9.04086 25.9425 8.75916 27.0693C8.68087 27.3825 8.6029 27.6843 8.52684 27.9788C8.08133 29.7036 7.70112 31.1757 7.70112 33.1961C7.70112 33.4182 7.69983 33.6341 7.69857 33.8459C7.68669 35.8445 7.67694 37.4841 8.76745 40.618C9.97714 44.0944 12.435 46.7168 12.7089 46.9782C12.8041 47.069 13.1377 47.4913 13.5022 48.0846C13.8624 48.6708 14.2276 49.3837 14.406 50.0435C14.7842 51.4413 14.8557 52.065 14.8557 52.4017V53.529L21.8835 53.5671ZM17.6668 35.6155L17.985 35.6688L17.9894 35.6423V29.1903L17.9891 29.1844C17.9891 29.1847 17.9891 29.1846 17.9891 29.1842C17.9891 29.1841 17.9891 29.1841 17.9891 29.184C17.9891 29.183 17.989 29.1808 17.989 29.1774C17.989 29.1702 17.989 29.1577 17.9897 29.1408C17.991 29.1068 17.9948 29.0556 18.0047 28.9931C18.0247 28.8669 18.0685 28.7024 18.1612 28.5408C18.333 28.2416 18.7099 27.8849 19.6254 27.8849C20.0908 27.8849 20.4097 27.9799 20.6294 28.1041C20.848 28.2277 20.9858 28.3898 21.075 28.5526C21.1658 28.7181 21.2075 28.887 21.2259 29.017C21.235 29.0813 21.2381 29.134 21.2389 29.1691C21.2394 29.1866 21.2393 29.1996 21.2391 29.2072C21.239 29.211 21.2389 29.2134 21.2389 29.2144L21.2389 29.2147L21.2384 29.2228V52.9184L15.5009 52.8873V52.4017C15.5009 51.978 15.4111 51.2883 15.0288 49.875C14.8271 49.1292 14.4261 48.3559 14.0519 47.7468C13.682 47.1447 13.3128 46.6627 13.1544 46.5115C12.9214 46.2891 10.5404 43.75 9.37679 40.4059C8.32284 37.3771 8.33204 35.8262 8.34375 33.8503C8.34501 33.6379 8.34629 33.4206 8.34629 33.1961C8.34629 31.2629 8.70488 29.8727 9.14924 28.15C9.22577 27.8532 9.30485 27.5467 9.38508 27.2257C9.64487 26.1866 10.2032 25.0509 10.7637 24.0882C11.322 23.1293 11.8704 22.3624 12.0947 22.0652C12.312 21.7773 12.7954 21.2392 13.3065 20.7224C13.8254 20.1976 14.3309 19.738 14.5962 19.5778C15.093 19.2778 15.6628 19.3466 16.0184 19.4686C16.3588 19.5853 16.9831 19.9006 17.2028 20.8491C17.3057 21.2937 17.2038 21.6173 17.001 21.9325C16.8948 22.0975 16.7617 22.2585 16.609 22.4348C16.5795 22.4689 16.5491 22.5037 16.5181 22.5391C16.3933 22.6821 16.2588 22.8361 16.1332 22.998C15.5188 23.7896 14.0862 26.0493 13.3135 27.911C12.9212 28.856 12.5821 30.162 12.3399 31.4138C12.0977 32.6654 11.9469 33.8912 11.9409 34.6798C11.9347 35.4994 12.17 36.3449 12.71 36.9916C13.2572 37.647 14.094 38.0695 15.2244 38.0695C16.4008 38.0695 17.1029 37.4588 17.4972 36.8583C17.6917 36.5622 17.8125 36.2684 17.8847 36.0498C17.921 35.94 17.9456 35.8477 17.9613 35.7816C17.9691 35.7485 17.9748 35.7219 17.9786 35.7028C17.9805 35.6932 17.982 35.6855 17.983 35.6798C17.9836 35.6769 17.984 35.6746 17.9843 35.6728L17.9847 35.6704L17.9849 35.6695L17.9849 35.6691C17.985 35.669 17.985 35.6688 17.6668 35.6155Z" fill="#1C1C1C"/>
<path d="M45.9931 53.2427V29.2328C45.9931 29.2328 45.8894 27.5623 47.9286 27.5623C49.9678 27.5623 49.8872 29.1983 49.8872 29.1983V35.6155C49.8872 35.6155 50.2443 37.7469 52.3297 37.7469C54.415 37.7469 55.3021 36.2031 55.2906 34.6823C55.279 33.1615 54.703 29.8665 53.9426 28.0346C53.1822 26.2028 51.7651 23.9677 51.166 23.1958C50.5669 22.4239 49.7835 21.8709 50.037 20.7764C50.2904 19.6819 51.0278 19.3017 51.431 19.1634C51.8342 19.0252 52.514 18.933 53.1246 19.3017C53.7352 19.6703 55.256 21.2603 55.7168 21.8709C56.1777 22.4815 57.9404 24.9816 58.4819 27.1475C59.0234 29.3135 59.5303 30.8803 59.5303 33.1961C59.5303 35.5118 59.6686 37.1017 58.4819 40.512C57.2952 43.9222 54.8758 46.5029 54.6223 46.7449C54.3689 46.9868 53.2168 48.5537 52.8366 49.9592C52.4564 51.3648 52.3757 52.0215 52.3757 52.4017V53.2082L45.9931 53.2427Z" fill="#CA3123"/>
<path fill-rule="evenodd" clip-rule="evenodd" d="M45.6704 53.5671L52.6983 53.529V52.4017C52.6983 52.065 52.7698 51.4413 53.1479 50.0435C53.3264 49.3837 53.6916 48.6708 54.0518 48.0846C54.4163 47.4913 54.7499 47.069 54.845 46.9782C55.1189 46.7168 57.5768 44.0944 58.7865 40.618C59.877 37.4841 59.8673 35.8445 59.8554 33.8459C59.8542 33.6341 59.8529 33.4182 59.8529 33.1961C59.8529 31.1757 59.4727 29.7036 59.0271 27.9788C58.9511 27.6843 58.8731 27.3825 58.7948 27.0693C58.5131 25.9425 57.9193 24.7451 57.3479 23.7636C56.7742 22.7783 56.2108 21.9899 55.9743 21.6765C55.7308 21.3538 55.2233 20.7916 54.7062 20.2687C54.1969 19.7536 53.6367 19.234 53.2913 19.0255C52.567 18.5882 51.7772 18.7037 51.3263 18.8583C50.8603 19.018 50.0099 19.4631 49.7226 20.7036C49.5721 21.3535 49.7352 21.8537 50.0105 22.2816C50.1433 22.4881 50.3026 22.6785 50.4573 22.8572C50.4904 22.8954 50.5232 22.933 50.5557 22.9702C50.6792 23.1117 50.7981 23.2479 50.9111 23.3936C51.4949 24.1458 52.8966 26.3562 53.6446 28.1583C54.0127 29.0451 54.3419 30.3026 54.5807 31.5364C54.8195 32.7705 54.9624 33.9526 54.9679 34.6847C54.9733 35.386 54.7708 36.0727 54.3488 36.5781C53.934 37.0749 53.2846 37.4243 52.3296 37.4243C51.4207 37.4243 50.9016 36.9693 50.596 36.5041C50.4406 36.2674 50.3417 36.0283 50.2818 35.8473C50.2521 35.7573 50.2324 35.683 50.2204 35.6326C50.2157 35.6127 50.2122 35.5966 50.2097 35.5847V29.204L50.2098 29.203C50.2099 29.1977 50.2101 29.1908 50.2101 29.1824C50.2103 29.1657 50.2101 29.143 50.209 29.1152C50.2068 29.0597 50.2009 28.983 50.1865 28.8922C50.1579 28.7116 50.0944 28.4671 49.9524 28.2197C49.6546 27.7009 49.0523 27.2397 47.9286 27.2397C47.3743 27.2397 46.9415 27.3534 46.6071 27.5425C46.2716 27.7321 46.0529 27.9876 45.9132 28.2425C45.775 28.4946 45.7152 28.7434 45.6893 28.9266C45.6762 29.0189 45.6715 29.0967 45.6701 29.1529C45.6694 29.1811 45.6695 29.2041 45.6698 29.221C45.67 29.2287 45.6702 29.2352 45.6704 29.2404V53.5671ZM49.8871 35.6155C49.569 35.6688 49.569 35.669 49.569 35.6691L49.5691 35.6695L49.5693 35.6704L49.5697 35.6728C49.57 35.6746 49.5704 35.6769 49.5709 35.6798C49.572 35.6855 49.5734 35.6932 49.5754 35.7028C49.5792 35.7219 49.5848 35.7485 49.5927 35.7816C49.6084 35.8477 49.6329 35.94 49.6693 36.0498C49.7415 36.2684 49.8623 36.5622 50.0568 36.8583C50.4511 37.4588 51.1532 38.0695 52.3296 38.0695C53.4599 38.0695 54.2968 37.647 54.844 36.9916C55.384 36.3449 55.6193 35.4994 55.6131 34.6798C55.6071 33.8912 55.4563 32.6654 55.2141 31.4138C54.9718 30.162 54.6328 28.856 54.2405 27.911C53.4678 26.0493 52.0352 23.7896 51.4208 22.998C51.2952 22.8361 51.1607 22.6821 51.0359 22.5391C51.0049 22.5037 50.9745 22.4689 50.945 22.4348C50.7923 22.2585 50.6592 22.0975 50.553 21.9325C50.3502 21.6173 50.2482 21.2937 50.3512 20.8491C50.5709 19.9006 51.1952 19.5853 51.5356 19.4686C51.8912 19.3466 52.461 19.2778 52.9578 19.5778C53.2231 19.738 53.7286 20.1976 54.2475 20.7224C54.7586 21.2392 55.242 21.7773 55.4593 22.0652C55.6836 22.3624 56.232 23.1293 56.7903 24.0882C57.3508 25.0509 57.9091 26.1866 58.1689 27.2257C58.2491 27.5467 58.3282 27.8532 58.4047 28.1499C58.8491 29.8727 59.2077 31.2629 59.2077 33.1961C59.2077 33.4206 59.209 33.6379 59.2102 33.8503C59.2219 35.8262 59.2311 37.3771 58.1772 40.4059C57.0135 43.75 54.6326 46.2891 54.3996 46.5115C54.2412 46.6627 53.872 47.1447 53.5021 47.7468C53.1278 48.3559 52.7269 49.1292 52.5251 49.875C52.1429 51.2883 52.0531 51.978 52.0531 52.4017V52.8873L46.3156 52.9184V29.2228L46.3151 29.2147L46.3151 29.2144C46.3151 29.2134 46.315 29.211 46.3149 29.2072C46.3147 29.1996 46.3146 29.1866 46.315 29.1691C46.3159 29.134 46.319 29.0813 46.3281 29.017C46.3465 28.887 46.3882 28.7181 46.479 28.5526C46.5682 28.3898 46.706 28.2277 46.9246 28.1041C47.1443 27.9799 47.4632 27.8849 47.9286 27.8849C48.8441 27.8849 49.221 28.2416 49.3928 28.5408C49.4855 28.7024 49.5293 28.8669 49.5493 28.9931C49.5592 29.0556 49.5629 29.1068 49.5643 29.1408C49.565 29.1577 49.565 29.1702 49.565 29.1774C49.565 29.1808 49.5649 29.1831 49.5649 29.184C49.5649 29.1841 49.5649 29.1841 49.5649 29.1842C49.5649 29.1846 49.5648 29.1847 49.5649 29.1844L49.5646 29.1903V35.6423L49.569 35.6688L49.8871 35.6155Z" fill="#1C1C1C"/>
<path d="M13.7727 51.7065C13.7727 51.7065 16.5732 52.8125 20.4496 52.8125C24.326 52.8125 27.5807 50.324 33.5456 50.324C39.5108 50.324 43.1254 52.7051 46.157 52.8125C49.1885 52.9201 53.7278 51.7065 53.7278 51.7065V56.1306C53.7278 56.1306 49.969 57.2366 46.157 57.2366C42.345 57.2366 39.1563 54.7481 33.5154 54.7481C27.8745 54.7481 24.404 57.2366 20.2981 57.2366C16.1921 57.2366 13.7784 56.1306 13.7784 56.1306L13.7727 51.7065Z" fill="#0B8BD2"/>
<path fill-rule="evenodd" clip-rule="evenodd" d="M15.41 57.0416C16.5522 57.3244 18.212 57.6054 20.2982 57.6054C22.2454 57.6054 24.0522 57.0622 25.9365 56.4957C26.1025 56.4458 26.2692 56.3957 26.4366 56.3458C28.5161 55.7255 30.7513 55.1169 33.5155 55.1169C36.2785 55.1169 38.4425 55.7251 40.4115 56.3442C40.6051 56.405 40.7972 56.4662 40.9883 56.527C42.7276 57.0806 44.3765 57.6054 46.1571 57.6054C48.0955 57.6054 50.0137 57.3246 51.4426 57.0456C52.1582 56.9058 52.7537 56.7661 53.171 56.661C53.3797 56.6085 53.5439 56.5647 53.6565 56.5338C53.7128 56.5183 53.7561 56.5061 53.7857 56.4977C53.8004 56.4935 53.8118 56.4903 53.8195 56.488L53.8285 56.4854L53.8309 56.4847L53.8316 56.4845L53.8318 56.4844C53.8319 56.4844 53.832 56.4844 53.7279 56.1307L53.832 56.4844L54.0966 56.4065V51.2264L53.6327 51.3505L53.6299 51.3512L53.6206 51.3536C53.6123 51.3558 53.5998 51.3591 53.5831 51.3635C53.5499 51.3721 53.5005 51.3849 53.4363 51.4012C53.3079 51.4337 53.1206 51.4803 52.8862 51.5358C52.4172 51.647 51.7604 51.7941 51.0099 51.9379C49.5015 52.2268 47.6425 52.4964 46.1701 52.4442C45.4552 52.4189 44.6935 52.2588 43.8451 52.0232C43.3284 51.8798 42.7954 51.7132 42.2273 51.5355C41.8543 51.419 41.4662 51.2976 41.0575 51.175C39.014 50.5617 36.5798 49.9554 33.5457 49.9554C30.5084 49.9554 28.162 50.5902 26.1072 51.2157C25.8873 51.2826 25.6714 51.3492 25.4589 51.4147C23.6717 51.9658 22.1208 52.444 20.4497 52.444C18.5458 52.444 16.9052 52.1722 15.7414 51.9006C15.1598 51.7649 14.6983 51.6294 14.3836 51.5284C14.2263 51.4779 14.1058 51.4361 14.0254 51.4072C13.9852 51.3928 13.9551 51.3816 13.9354 51.3741C13.9256 51.3704 13.9184 51.3676 13.9138 51.3659L13.909 51.364L13.9082 51.3637L13.9081 51.3637L13.4034 51.1644L13.4102 56.3675L13.625 56.4659L13.7785 56.1307C13.625 56.4659 13.6251 56.4659 13.6252 56.466L13.6255 56.4661L13.6262 56.4665L13.6284 56.4674L13.6354 56.4706C13.6413 56.4732 13.6494 56.4768 13.66 56.4814C13.681 56.4905 13.7113 56.5034 13.7508 56.5195C13.8298 56.5518 13.9453 56.597 14.0959 56.6507C14.3971 56.7583 14.8389 56.9002 15.41 57.0416ZM14.1469 55.8834L14.1422 52.2253C14.1475 52.227 14.1529 52.2287 14.1583 52.2305C14.4899 52.3369 14.9707 52.4779 15.5738 52.6187C16.7793 52.9 18.4772 53.1813 20.4497 53.1813C22.2391 53.1813 23.9009 52.6679 25.6718 52.1209C25.8867 52.0545 26.1033 51.9876 26.3219 51.9211C28.3547 51.3023 30.6181 50.6928 33.5457 50.6928C36.4768 50.6928 38.8326 51.2771 40.8455 51.8812C41.2349 51.998 41.6163 52.1172 41.9878 52.2333C42.5675 52.4144 43.1232 52.588 43.6478 52.7337C44.5163 52.9748 45.3432 53.1527 46.144 53.1811C47.7031 53.2364 49.6296 52.953 51.1487 52.6621C51.9119 52.5159 52.5794 52.3663 53.0563 52.2533C53.1681 52.2268 53.2695 52.2023 53.3592 52.1803V55.8504C53.2612 55.8767 53.1376 55.9091 52.991 55.946C52.5844 56.0484 52.0019 56.1851 51.3013 56.3219C49.8978 56.5959 48.0306 56.8681 46.1571 56.8681C44.4977 56.8681 42.9606 56.3797 41.202 55.821C41.0149 55.7615 40.8252 55.7013 40.6327 55.6408C38.6442 55.0156 36.3934 54.3795 33.5155 54.3795C30.6389 54.3795 28.3183 55.0151 26.2259 55.6392C26.0631 55.6877 25.902 55.7361 25.7423 55.784C23.8362 56.3563 22.1317 56.8681 20.2982 56.8681C18.2784 56.8681 16.6783 56.596 15.5872 56.3259C15.0417 56.1908 14.6235 56.0562 14.3438 55.9563C14.2679 55.9292 14.2021 55.9047 14.1469 55.8834Z" fill="#1C1C1C"/>
<path d="M13.7727 56.1307C13.7727 56.1307 16.5732 57.2367 20.4496 57.2367C24.326 57.2367 27.5807 54.7481 33.5456 54.7481C39.5108 54.7481 43.1254 57.1292 46.157 57.2367C49.1885 57.3442 53.7278 56.1307 53.7278 56.1307V60.5547C53.7278 60.5547 49.969 61.6608 46.157 61.6608C42.345 61.6608 39.1563 59.1722 33.5154 59.1722C27.8745 59.1722 24.404 61.6608 20.2981 61.6608C16.1921 61.6608 13.7784 60.5547 13.7784 60.5547L13.7727 56.1307Z" fill="#0B8BD2"/>
<path fill-rule="evenodd" clip-rule="evenodd" d="M15.41 61.4657C16.5522 61.7485 18.212 62.0295 20.2982 62.0295C22.2454 62.0295 24.0522 61.4863 25.9365 60.9198C26.1025 60.8699 26.2692 60.8198 26.4366 60.7698C28.5161 60.1496 30.7513 59.5409 33.5155 59.5409C36.2785 59.5409 38.4425 60.1492 40.4115 60.7682C40.6051 60.8291 40.7972 60.8902 40.9883 60.951C42.7276 61.5047 44.3765 62.0295 46.1571 62.0295C48.0955 62.0295 50.0137 61.7486 51.4426 61.4696C52.1582 61.3299 52.7537 61.1901 53.171 61.0851C53.3797 61.0326 53.5439 60.9887 53.6565 60.9578C53.7128 60.9424 53.7561 60.9302 53.7857 60.9218C53.8004 60.9176 53.8118 60.9143 53.8195 60.9121L53.8285 60.9095L53.8309 60.9088L53.8316 60.9086L53.8318 60.9085C53.8319 60.9085 53.832 60.9085 53.7279 60.5548L53.832 60.9085L54.0966 60.8306V55.6505L53.6327 55.7745L53.6299 55.7753L53.6206 55.7777C53.6123 55.7799 53.5998 55.7832 53.5831 55.7875C53.5499 55.7962 53.5005 55.809 53.4363 55.8253C53.3079 55.8578 53.1206 55.9043 52.8862 55.9599C52.4172 56.0711 51.7604 56.2182 51.0099 56.3619C49.5015 56.6509 47.6425 56.9205 46.1701 56.8683C45.4552 56.8429 44.6935 56.6829 43.8451 56.4473C43.3284 56.3038 42.7954 56.1372 42.2273 55.9596C41.8543 55.843 41.4662 55.7217 41.0575 55.599C39.014 54.9857 36.5798 54.3795 33.5457 54.3795C30.5084 54.3795 28.162 55.0142 26.1072 55.6397C25.8873 55.7067 25.6714 55.7732 25.4589 55.8388C23.6717 56.3898 22.1208 56.868 20.4497 56.868C18.5458 56.868 16.9052 56.5963 15.7414 56.3247C15.1598 56.1889 14.6983 56.0534 14.3836 55.9525C14.2263 55.902 14.1058 55.8602 14.0254 55.8313C13.9852 55.8168 13.9551 55.8056 13.9354 55.7982C13.9256 55.7945 13.9184 55.7917 13.9138 55.79L13.909 55.7881L13.9082 55.7878L13.9081 55.7877L13.4034 55.5884L13.4102 60.7915L13.625 60.8899L13.7785 60.5548C13.625 60.8899 13.6251 60.89 13.6252 60.8901L13.6255 60.8902L13.6262 60.8905L13.6284 60.8915L13.6354 60.8947C13.6413 60.8973 13.6494 60.9009 13.66 60.9054C13.681 60.9146 13.7113 60.9275 13.7508 60.9436C13.8298 60.9758 13.9453 61.021 14.0959 61.0748C14.3971 61.1823 14.8389 61.3242 15.41 61.4657ZM14.1469 60.3074L14.1422 56.6494C14.1475 56.6511 14.1529 56.6528 14.1583 56.6545C14.4899 56.7609 14.9707 56.902 15.5738 57.0427C16.7793 57.3241 18.4772 57.6054 20.4497 57.6054C22.2391 57.6054 23.9009 57.092 25.6718 56.545C25.8867 56.4786 26.1033 56.4117 26.3219 56.3451C28.3547 55.7264 30.6181 55.1168 33.5457 55.1168C36.4768 55.1168 38.8326 55.7011 40.8455 56.3052C41.2349 56.4221 41.6163 56.5413 41.9878 56.6573C42.5675 56.8385 43.1232 57.0121 43.6478 57.1578C44.5163 57.3989 45.3432 57.5768 46.144 57.6052C47.7031 57.6605 49.6296 57.3771 51.1487 57.0861C51.9119 56.9399 52.5794 56.7904 53.0563 56.6774C53.1681 56.6509 53.2695 56.6264 53.3592 56.6044V60.2745C53.2612 60.3008 53.1376 60.3332 52.991 60.3701C52.5844 60.4724 52.0019 60.6092 51.3013 60.746C49.8978 61.02 48.0306 61.2921 46.1571 61.2921C44.4977 61.2921 42.9606 60.8038 41.202 60.2451C41.0149 60.1856 40.8252 60.1254 40.6327 60.0648C38.6442 59.4396 36.3934 58.8036 33.5155 58.8036C30.6389 58.8036 28.3183 59.4392 26.2259 60.0632C26.0631 60.1118 25.902 60.1601 25.7423 60.2081C23.8362 60.7804 22.1317 61.2921 20.2982 61.2921C18.2784 61.2921 16.6783 61.0201 15.5872 60.7499C15.0417 60.6148 14.6235 60.4802 14.3438 60.3804C14.2679 60.3533 14.2021 60.3287 14.1469 60.3074Z" fill="#1C1C1C"/>
<path d="M13.7727 60.5548C13.7727 60.5548 16.5732 61.6608 20.4496 61.6608C24.326 61.6608 27.5807 59.1723 33.5456 59.1723C39.5108 59.1723 43.1254 61.5533 46.157 61.6608C49.1885 61.7684 53.7278 60.5548 53.7278 60.5548V64.9789C53.7278 64.9789 49.969 66.0849 46.157 66.0849C42.345 66.0849 39.1563 63.5963 33.5154 63.5963C27.8745 63.5963 24.404 66.0849 20.2981 66.0849C16.1921 66.0849 13.7784 64.9789 13.7784 64.9789L13.7727 60.5548Z" fill="#0B8BD2"/>
<path fill-rule="evenodd" clip-rule="evenodd" d="M15.41 65.8897C16.5522 66.1726 18.212 66.4536 20.2982 66.4536C22.2454 66.4536 24.0522 65.9103 25.9365 65.3439C26.1025 65.2939 26.2692 65.2438 26.4366 65.1939C28.5161 64.5737 30.7513 63.965 33.5155 63.965C36.2785 63.965 38.4425 64.5732 40.4115 65.1923C40.6051 65.2532 40.7972 65.3143 40.9883 65.3751C42.7276 65.9287 44.3765 66.4536 46.1571 66.4536C48.0955 66.4536 50.0137 66.1727 51.4426 65.8937C52.1582 65.754 52.7537 65.6142 53.171 65.5092C53.3797 65.4567 53.5439 65.4128 53.6565 65.3819C53.7128 65.3665 53.7561 65.3543 53.7857 65.3459C53.8004 65.3417 53.8118 65.3384 53.8195 65.3362L53.8285 65.3336L53.8309 65.3328L53.8316 65.3326L53.8318 65.3326C53.8319 65.3326 53.832 65.3325 53.7279 64.9789L53.832 65.3325L54.0966 65.2547V60.0746L53.6327 60.1986L53.6299 60.1993L53.6206 60.2018C53.6123 60.204 53.5998 60.2073 53.5831 60.2116C53.5499 60.2203 53.5005 60.2331 53.4363 60.2493C53.3079 60.2819 53.1206 60.3284 52.8862 60.384C52.4172 60.4951 51.7604 60.6423 51.0099 60.786C49.5015 61.0749 47.6425 61.3446 46.1701 61.2923C45.4552 61.267 44.6935 61.1069 43.8451 60.8714C43.3284 60.7279 42.7954 60.5613 42.2273 60.3837C41.8543 60.2671 41.4662 60.1458 41.0575 60.0231C39.014 59.4098 36.5798 58.8036 33.5457 58.8036C30.5084 58.8036 28.162 59.4383 26.1072 60.0638C25.8873 60.1307 25.6714 60.1973 25.4589 60.2628C23.6717 60.8139 22.1208 61.2921 20.4497 61.2921C18.5458 61.2921 16.9052 61.0204 15.7414 60.7488C15.1598 60.613 14.6983 60.4775 14.3836 60.3765C14.2263 60.3261 14.1058 60.2842 14.0254 60.2553C13.9852 60.2409 13.9551 60.2297 13.9354 60.2223C13.9256 60.2186 13.9184 60.2158 13.9138 60.214L13.909 60.2122L13.9082 60.2119L13.9081 60.2118L13.4034 60.0125L13.4102 65.2156L13.625 65.314L13.7785 64.9789C13.625 65.314 13.6251 65.3141 13.6252 65.3141L13.6255 65.3143L13.6262 65.3146L13.6284 65.3156L13.6354 65.3187C13.6413 65.3213 13.6494 65.325 13.66 65.3295C13.681 65.3386 13.7113 65.3515 13.7508 65.3677C13.8298 65.3999 13.9453 65.4451 14.0959 65.4989C14.3971 65.6064 14.8389 65.7483 15.41 65.8897ZM14.1469 64.7315L14.1422 61.0734C14.1475 61.0752 14.1529 61.0769 14.1583 61.0786C14.4899 61.185 14.9707 61.326 15.5738 61.4668C16.7793 61.7482 18.4772 62.0295 20.4497 62.0295C22.2391 62.0295 23.9009 61.5161 25.6718 60.969C25.8867 60.9026 26.1033 60.8357 26.3219 60.7692C28.3547 60.1504 30.6181 59.5409 33.5457 59.5409C36.4768 59.5409 38.8326 60.1252 40.8455 60.7293C41.2349 60.8462 41.6163 60.9653 41.9878 61.0814C42.5675 61.2625 43.1232 61.4362 43.6478 61.5818C44.5163 61.823 45.3432 62.0008 46.144 62.0292C47.7031 62.0845 49.6296 61.8012 51.1487 61.5102C51.9119 61.364 52.5794 61.2145 53.0563 61.1014C53.1681 61.0749 53.2695 61.0504 53.3592 61.0284V64.6986C53.2612 64.7249 53.1376 64.7573 52.991 64.7941C52.5844 64.8965 52.0019 65.0332 51.3013 65.17C49.8978 65.444 48.0306 65.7162 46.1571 65.7162C44.4977 65.7162 42.9606 65.2278 41.202 64.6691C41.0149 64.6097 40.8252 64.5494 40.6327 64.4889C38.6442 63.8637 36.3934 63.2277 33.5155 63.2277C30.6389 63.2277 28.3183 63.8632 26.2259 64.4873C26.0631 64.5358 25.902 64.5842 25.7423 64.6322C23.8362 65.2045 22.1317 65.7162 20.2982 65.7162C18.2784 65.7162 16.6783 65.4442 15.5872 65.174C15.0417 65.0389 14.6235 64.9043 14.3438 64.8045C14.2679 64.7774 14.2021 64.7528 14.1469 64.7315Z" fill="#1C1C1C"/>
<path d="M47.4373 5.14226C47.4373 7.15927 45.8022 8.79443 43.7851 8.79443C41.768 8.79443 40.1329 7.15927 40.1329 5.14226C40.1329 3.12525 41.768 1.49009 43.7851 1.49009C45.8022 1.49009 47.4373 3.12525 47.4373 5.14226Z" fill="#E85427"/>
<path fill-rule="evenodd" clip-rule="evenodd" d="M39.9025 5.14229C39.9025 7.28657 41.6407 9.0249 43.7851 9.0249C45.9295 9.0249 47.6677 7.28657 47.6677 5.14229C47.6677 2.99802 45.9295 1.25968 43.7851 1.25968C41.6407 1.25968 39.9025 2.99802 39.9025 5.14229ZM43.7851 8.56406C41.8952 8.56406 40.3633 7.03206 40.3633 5.14229C40.3633 3.25253 41.8952 1.72053 43.7851 1.72053C45.6749 1.72053 47.2068 3.25253 47.2068 5.14229C47.2068 7.03206 45.6749 8.56406 43.7851 8.56406Z" fill="#1C1C1C"/>
<path d="M26.78 8.34518C26.78 8.34518 27.7868 6.2372 29.787 5.46491C32.1142 4.56627 33.9576 5.53404 33.9576 5.53404C33.9576 5.53404 35.5057 3.80809 37.6328 3.86348C39.8449 3.92109 40.973 5.05651 41.5845 6.36356C42.1721 7.61936 42.0684 8.56408 42.0684 8.56408C42.0684 8.56408 43.6353 8.11476 44.9487 8.64473C46.2621 9.1747 46.4548 10.664 46.2621 11.3522C46.0202 12.2163 44.8796 12.9191 44.8796 12.9191C44.8796 12.9191 45.4556 13.5412 45.4095 14.5781C45.3635 15.615 44.8335 16.0758 44.8335 16.0758C44.8335 16.0758 45.7091 17.0666 45.6169 18.4722C45.5284 19.8217 45.11 21.3064 43.7275 22.4815C42.3449 23.6567 40.6398 23.818 39.8103 23.841C38.9808 23.8641 36.9531 23.3111 36.9531 23.3111C36.9531 23.3111 35.7318 23.7489 33.9806 23.7028C32.2294 23.6567 31.4114 23.3341 30.6741 22.8848C30.1447 22.5622 29.6026 21.9285 29.6026 21.9285C29.6026 21.9285 28.2892 22.6083 26.9297 22.447C25.5703 22.2857 24.3906 21.0916 24.0149 20.4999C23.5541 19.7741 23.3219 18.481 23.4158 17.3777C23.508 16.2947 23.9804 15.638 23.9804 15.638C23.9804 15.638 23.0932 14.7394 23.0471 13.2877C23.0011 11.8361 23.3467 10.2577 24.7868 9.19774C25.8317 8.42878 26.78 8.34518 26.78 8.34518Z" fill="#0A633C"/>
<path fill-rule="evenodd" clip-rule="evenodd" d="M38.0208 23.8096C38.6265 23.9439 39.3687 24.0838 39.8168 24.0713C40.6608 24.0479 42.4326 23.8846 43.8768 22.6571C45.3227 21.428 45.756 19.8745 45.8469 18.4872C45.8964 17.7329 45.6861 17.0932 45.4668 16.6455C45.3569 16.4212 45.2438 16.243 45.1575 16.1201C45.1493 16.1085 45.1413 16.0973 45.1336 16.0866C45.1849 16.0212 45.2447 15.9357 45.3049 15.829C45.4595 15.5554 45.615 15.1459 45.6398 14.5883C45.6649 14.024 45.5205 13.5712 45.3692 13.2592C45.314 13.1453 45.2577 13.0498 45.2082 12.9741C45.3226 12.8915 45.4746 12.7746 45.6343 12.6309C45.9577 12.34 46.3448 11.9116 46.484 11.4143C46.5943 11.0207 46.5903 10.4274 46.3871 9.86124C46.1814 9.28793 45.7644 8.72535 45.035 8.43101C44.3311 8.147 43.5703 8.12847 42.9971 8.17599C42.7172 8.1992 42.4774 8.23856 42.3042 8.27305C42.3009 8.172 42.2928 8.04891 42.2756 7.90705C42.2256 7.49305 42.0988 6.91879 41.7933 6.26587C41.4755 5.58658 41.0181 4.94071 40.343 4.45757C39.6663 3.97323 38.7853 3.66296 37.6389 3.63311C36.5117 3.60375 35.5467 4.04601 34.872 4.48478C34.5333 4.70498 34.2638 4.92686 34.0784 5.09411C34.0089 5.1568 33.9511 5.21195 33.9058 5.25667C33.8534 5.23442 33.7887 5.20841 33.7126 5.18049C33.4925 5.0998 33.1758 5.0029 32.7842 4.93538C32.0005 4.80026 30.9144 4.78257 29.704 5.24992C28.652 5.65614 27.8695 6.40949 27.354 7.05016C27.0952 7.37174 26.9009 7.66841 26.7709 7.88527C26.7098 7.98739 26.6627 8.07206 26.6298 8.13361C26.6124 8.13654 26.5934 8.13992 26.5728 8.14379C26.4594 8.16519 26.299 8.20186 26.1054 8.26349C25.7182 8.38673 25.1964 8.61023 24.6503 9.01212C23.1239 10.1356 22.7696 11.8054 22.8169 13.295C22.8414 14.0667 23.0894 14.6903 23.3301 15.1198C23.4505 15.3348 23.5698 15.5023 23.6598 15.6171C23.672 15.6327 23.6837 15.6473 23.6948 15.661C23.6465 15.7455 23.585 15.8628 23.5212 16.0102C23.3837 16.3281 23.2349 16.7874 23.1863 17.3581C23.0897 18.4927 23.3239 19.8413 23.8204 20.6234C24.0244 20.9446 24.4326 21.4105 24.9632 21.8176C25.4938 22.2246 26.1671 22.5885 26.9027 22.6757C27.6258 22.7615 28.328 22.6235 28.8424 22.4689C29.101 22.3911 29.3156 22.3081 29.4662 22.2443C29.495 22.2321 29.5216 22.2205 29.5457 22.2098C29.6052 22.2742 29.6848 22.3578 29.7782 22.4498C29.9839 22.6525 30.2667 22.9063 30.5542 23.0815C31.3304 23.5545 32.1888 23.8861 33.9746 23.9331C34.8705 23.9566 35.6309 23.8565 36.1683 23.7502C36.4372 23.697 36.6507 23.6422 36.798 23.6003C36.8669 23.5807 36.9214 23.5639 36.9603 23.5515C36.9674 23.5534 36.975 23.5554 36.983 23.5575C37.0407 23.5728 37.1239 23.5945 37.2263 23.6204C37.4309 23.6723 37.7126 23.7413 38.0208 23.8096ZM36.8753 23.0941L36.8735 23.0948C36.8717 23.0954 36.8687 23.0964 36.8646 23.0978C36.8564 23.1006 36.8436 23.1049 36.8265 23.1104C36.7921 23.1215 36.7401 23.1377 36.6719 23.1571C36.5355 23.1958 36.3343 23.2476 36.0789 23.2981C35.5679 23.3992 34.8421 23.4949 33.9868 23.4724C32.2702 23.4272 31.4926 23.1136 30.7941 22.688C30.5521 22.5406 30.2992 22.3162 30.1016 22.1215C30.0041 22.0254 29.9225 21.939 29.8655 21.8768C29.837 21.8457 29.8147 21.8208 29.7997 21.8038C29.7922 21.7953 29.7866 21.7888 29.7829 21.7846L29.7788 21.7799L29.7779 21.7788L29.7778 21.7787L29.659 21.6399L29.497 21.7237L29.4969 21.7238L29.4968 21.7238L29.4967 21.7239L29.4947 21.7249C29.4927 21.7259 29.4895 21.7275 29.4852 21.7297C29.4764 21.734 29.4629 21.7406 29.445 21.7491C29.409 21.7662 29.3553 21.7908 29.2863 21.82C29.1481 21.8786 28.9494 21.9555 28.7097 22.0275C28.2275 22.1725 27.5933 22.2936 26.957 22.2181C26.333 22.1441 25.7368 21.8302 25.2437 21.452C24.7507 21.0737 24.3812 20.6467 24.2095 20.3763C23.7843 19.7067 23.5542 18.4692 23.6455 17.3972C23.6891 16.8849 23.8225 16.4744 23.9442 16.1932C24.005 16.0527 24.0626 15.9449 24.1043 15.8735C24.1251 15.8378 24.1418 15.8112 24.1529 15.7942C24.1585 15.7857 24.1626 15.7796 24.1651 15.776C24.1663 15.7742 24.1672 15.773 24.1676 15.7724L24.1676 15.7723L24.1677 15.7721L24.1679 15.772L24.2811 15.6146L24.1447 15.4765L24.1446 15.4763L24.1444 15.4761L24.1438 15.4755C24.1434 15.475 24.1427 15.4744 24.1419 15.4735C24.141 15.4725 24.1398 15.4713 24.1385 15.4699C24.1333 15.4644 24.1252 15.4556 24.1145 15.4435C24.093 15.4193 24.0612 15.3822 24.0224 15.3327C23.9446 15.2336 23.8392 15.0857 23.7321 14.8946C23.5177 14.5119 23.2991 13.9603 23.2775 13.2804C23.2326 11.8667 23.5696 10.3797 24.9235 9.38328C25.4222 9.01621 25.897 8.81344 26.2451 8.70263C26.4192 8.64724 26.5612 8.61495 26.6582 8.59665C26.7067 8.5875 26.7439 8.58186 26.7682 8.57857C26.7803 8.57693 26.7891 8.57588 26.7946 8.57528C26.7973 8.57498 26.7991 8.57479 26.8001 8.5747L26.8003 8.57467L26.8004 8.57466L26.8007 8.57463L26.8008 8.57462L26.9313 8.56313L26.9879 8.44461L26.988 8.44445L26.9882 8.44396L26.9899 8.44047C26.9915 8.43716 26.9941 8.43192 26.9977 8.42484C27.0048 8.41068 27.0158 8.38919 27.0307 8.3612C27.0604 8.3052 27.1056 8.2233 27.1663 8.12214C27.2876 7.91962 27.47 7.64102 27.713 7.33907C28.2009 6.73267 28.922 6.04589 29.87 5.67983C30.9869 5.24855 31.9861 5.26541 32.7059 5.38952C33.0661 5.45161 33.3557 5.54049 33.554 5.61317C33.653 5.64949 33.729 5.68168 33.7794 5.70433C33.8046 5.71565 33.8233 5.72457 33.8353 5.73042C33.8413 5.73334 33.8456 5.73549 33.8481 5.73679L33.8505 5.73802L33.8507 5.73808L33.8508 5.73816L34.0094 5.82141M34.1291 5.68795L34.1292 5.68786L34.132 5.68481C34.1344 5.68219 34.1382 5.67801 34.1435 5.67236C34.1541 5.66107 34.1705 5.64394 34.1923 5.62183C34.236 5.57759 34.3016 5.51348 34.3871 5.43626C34.5585 5.28164 34.8089 5.07549 35.1232 4.87113C35.7542 4.46078 36.6269 4.06775 37.6269 4.09379C38.6925 4.12154 39.4816 4.40778 40.0748 4.83232C40.6697 5.25806 41.0822 5.83342 41.3759 6.46117C41.658 7.06404 41.7731 7.59005 41.8181 7.96236C41.8406 8.14855 41.8456 8.29622 41.8451 8.39566C41.8448 8.44537 41.8432 8.48298 41.8418 8.50727C41.8411 8.51942 41.8404 8.52823 41.8399 8.53356C41.8397 8.53622 41.8395 8.53801 41.8394 8.5389L41.8394 8.53906L41.8394 8.5392L41.8394 8.53941L41.8394 8.53958L41.802 8.88017L42.1318 8.78559L42.132 8.78554L42.1322 8.78548L42.1346 8.7848C42.137 8.78414 42.1408 8.78309 42.1461 8.78169C42.1565 8.77889 42.1726 8.77469 42.1938 8.76943C42.2363 8.75891 42.2993 8.74417 42.3795 8.72797C42.54 8.69553 42.7678 8.65742 43.0351 8.63526C43.5737 8.59061 44.253 8.61241 44.8625 8.85837C45.4465 9.094 45.7826 9.54103 45.9534 10.0169C46.1267 10.4999 46.1228 10.9953 46.0403 11.29C45.9376 11.6567 45.6334 12.0118 45.3261 12.2883C45.1762 12.4231 45.033 12.5327 44.9274 12.6084C44.8747 12.6462 44.8316 12.6754 44.8021 12.6948C44.7874 12.7046 44.7761 12.7118 44.7687 12.7166C44.765 12.7189 44.7623 12.7206 44.7606 12.7217L44.7589 12.7228L44.7588 12.7228L44.7586 12.7229L44.5201 12.8699L44.7099 13.0748L44.7101 13.075C44.7104 13.0754 44.7113 13.0764 44.7127 13.078C44.7154 13.0811 44.7201 13.0865 44.7264 13.0942C44.739 13.1095 44.7581 13.1337 44.7815 13.1664C44.8283 13.232 44.8919 13.331 44.9546 13.4602C45.0798 13.7185 45.2004 14.0952 45.1794 14.5678C45.1581 15.0471 45.0256 15.3865 44.9036 15.6024C44.8424 15.7109 44.7834 15.789 44.7414 15.8385C44.7204 15.8632 44.7037 15.8807 44.6932 15.8913C44.6912 15.8933 44.6895 15.895 44.688 15.8965C44.6855 15.8989 44.6836 15.9007 44.6824 15.9018L44.6817 15.9025L44.6813 15.9028L44.6812 15.9029L44.6809 15.9031L44.5071 16.0543L44.6606 16.228L44.6608 16.2282L44.6609 16.2284L44.6616 16.2292C44.6626 16.2304 44.6644 16.2325 44.667 16.2355C44.6721 16.2416 44.6802 16.2514 44.6907 16.2646C44.7119 16.2912 44.7429 16.3316 44.7803 16.385C44.8553 16.4918 44.9554 16.6492 45.0529 16.8482C45.2484 17.2473 45.4298 17.8058 45.3871 18.4571C45.301 19.7689 44.8974 21.1847 43.5783 22.3059C42.2573 23.4287 40.619 23.588 39.804 23.6106C39.4225 23.6212 38.7361 23.4961 38.1205 23.3597C37.8181 23.2926 37.5411 23.2248 37.3396 23.1737C37.2389 23.1482 37.1572 23.1269 37.1007 23.1119C37.0725 23.1045 37.0507 23.0986 37.0359 23.0947L37.0192 23.0902L37.0138 23.0887L36.9437 23.0696L36.8755 23.0941L36.8753 23.0941" fill="#1C1C1C"/>
<path d="M26.3088 19.9823L26.3077 25.1544H34.4646V19.9856" fill="#FEFEFE"/>
<path fill-rule="evenodd" clip-rule="evenodd" d="M26.0771 25.3848H34.695V19.9856H34.2341V24.924H26.5381L26.5391 19.9824L26.0783 19.9823L26.0771 25.3848Z" fill="#1C1C1C"/>
<path d="M42.0684 21.0414V26.5369H34.5106V21.0429" fill="#FEFEFE"/>
<path fill-rule="evenodd" clip-rule="evenodd" d="M34.2802 26.7674H42.2988V21.0414H41.838V26.3066H34.741V21.0429H34.2802V26.7674Z" fill="#1C1C1C"/>
<path d="M38.291 16.8985L34.1466 21.0429H42.3921C42.3921 21.0429 38.291 16.8333 38.291 16.8985Z" fill="#2C2A26"/>
<path d="M30.4171 15.5456L25.9774 19.9852H34.8103C34.8103 19.9852 30.4171 15.4758 30.4171 15.5456Z" fill="#2C2A26"/>
<path d="M29.6334 21.8671H31.0774V24.924H29.6334V21.8671Z" fill="#2C2A26"/>
<path d="M37.9669 21.7671V23.8255H39.1344V21.7595L37.9669 21.7671Z" fill="#2C2A26"/>
<path d="M31.807 28.0039C31.807 28.81 31.1536 29.4633 30.3477 29.4633C29.5417 29.4633 28.8883 28.81 28.8883 28.0039C28.8883 27.198 29.5417 26.5446 30.3477 26.5446C31.1536 26.5446 31.807 27.198 31.807 28.0039Z" fill="white"/>
<path fill-rule="evenodd" clip-rule="evenodd" d="M28.6578 28.0039C28.6578 28.9372 29.4144 29.6936 30.3477 29.6936C31.2808 29.6936 32.0374 28.9372 32.0374 28.0039C32.0374 27.0707 31.2808 26.3141 30.3477 26.3141C29.4144 26.3141 28.6578 27.0707 28.6578 28.0039ZM30.3477 29.2328C29.6689 29.2328 29.1187 28.6826 29.1187 28.0039C29.1187 27.3252 29.6689 26.775 30.3477 26.775C31.0263 26.775 31.5766 27.3252 31.5766 28.0039C31.5766 28.6826 31.0263 29.2328 30.3477 29.2328Z" fill="#1C1C1C"/>
<path d="M36.2005 29.1254C36.2005 29.9313 35.5471 30.5847 34.7412 30.5847C33.9352 30.5847 33.2819 29.9313 33.2819 29.1254C33.2819 28.3193 33.9352 27.6661 34.7412 27.6661C35.5471 27.6661 36.2005 28.3193 36.2005 29.1254Z" fill="white"/>
<path fill-rule="evenodd" clip-rule="evenodd" d="M33.0513 29.1253C33.0513 30.0585 33.8078 30.815 34.741 30.815C35.6742 30.815 36.4307 30.0585 36.4307 29.1253C36.4307 28.192 35.6742 27.4355 34.741 27.4355C33.8078 27.4355 33.0513 28.192 33.0513 29.1253ZM34.741 30.3542C34.0623 30.3542 33.5121 29.8039 33.5121 29.1253C33.5121 28.4465 34.0623 27.8964 34.741 27.8964C35.4197 27.8964 35.9699 28.4465 35.9699 29.1253C35.9699 29.8039 35.4197 30.3542 34.741 30.3542Z" fill="#1C1C1C"/>
<path d="M28.0128 47.7818H32.6673V32.3897C32.6673 32.3897 32.5406 30.2237 30.3401 30.2237C28.1395 30.2237 28.0359 32.3897 28.0359 32.3897L28.0128 47.7818Z" fill="white"/>
<path fill-rule="evenodd" clip-rule="evenodd" d="M27.782 48.0122H32.8977V32.3829L32.8973 32.3762L32.6673 32.3896C32.8973 32.3762 32.8973 32.3761 32.8973 32.3759L32.8972 32.3749L32.8971 32.3728C32.897 32.3718 32.897 32.3706 32.8969 32.3693L32.8966 32.3662C32.8962 32.3608 32.8956 32.3534 32.8948 32.3441C32.893 32.3255 32.8903 32.2993 32.886 32.2666C32.8774 32.2013 32.8627 32.1095 32.8378 32C32.7881 31.782 32.6968 31.4887 32.5293 31.1931C32.1882 30.5908 31.5356 29.9933 30.34 29.9933C29.144 29.9933 28.4967 30.5913 28.1613 31.1947C27.9968 31.4906 27.9086 31.7842 27.8612 32.0023C27.8374 32.1118 27.8236 32.2037 27.8158 32.269C27.8118 32.3017 27.8094 32.3279 27.8078 32.3465C27.8071 32.3559 27.8066 32.3633 27.8062 32.3687C27.806 32.3714 27.8059 32.3735 27.8058 32.3752L27.8057 32.3773L27.8057 32.3781L27.8056 32.3784C27.8056 32.3785 27.8056 32.3786 28.0358 32.3896L27.8056 32.3786L27.8054 32.384L27.782 48.0122ZM28.2662 32.3967C28.2664 32.3938 28.2667 32.3896 28.2672 32.3841C28.2682 32.371 28.2701 32.3506 28.2733 32.3241C28.2797 32.271 28.2912 32.1937 28.3115 32.1001C28.3524 31.9121 28.4276 31.6642 28.5641 31.4186C28.8307 30.9391 29.3355 30.4541 30.34 30.4541C31.3449 30.4541 31.856 30.9395 32.1284 31.4202C32.2677 31.6662 32.3456 31.9143 32.3884 32.1024C32.4098 32.196 32.4221 32.2734 32.4291 32.3265C32.4325 32.353 32.4347 32.3734 32.4359 32.3865C32.4363 32.3913 32.4366 32.3951 32.4369 32.3979V47.5514H28.2435L28.2662 32.3967Z" fill="#1C1C1C"/>
<path d="M34.4729 47.7818H38.9808V32.8745C38.9808 32.8745 38.858 30.7767 36.7268 30.7767C34.5956 30.7767 34.4952 32.8745 34.4952 32.8745L34.4729 47.7818Z" fill="white"/>
<path fill-rule="evenodd" clip-rule="evenodd" d="M34.2421 48.0122H39.2111V32.8677L39.2107 32.861L38.9807 32.8744C39.2107 32.861 39.2107 32.8609 39.2107 32.8607L39.2107 32.8604L39.2107 32.8597L39.2105 32.8576C39.2104 32.856 39.2103 32.8538 39.2101 32.8512C39.2097 32.846 39.2091 32.8387 39.2083 32.8297C39.2066 32.8116 39.2039 32.7861 39.1997 32.7544C39.1914 32.6909 39.1771 32.6018 39.1529 32.4955C39.1047 32.2839 39.016 31.999 38.8534 31.712C38.5219 31.1268 37.8877 30.5463 36.7267 30.5463C35.5654 30.5463 34.9362 31.1272 34.6103 31.7136C34.4506 32.001 34.3649 32.2861 34.3189 32.4978C34.2959 32.6041 34.2825 32.6933 34.2748 32.7568C34.271 32.7885 34.2686 32.814 34.2671 32.8321C34.2664 32.8412 34.2659 32.8484 34.2655 32.8537C34.2654 32.8563 34.2652 32.8584 34.2652 32.8601L34.265 32.8621L34.265 32.8629L34.265 32.8632C34.265 32.8633 34.265 32.8634 34.4951 32.8744L34.265 32.8634L34.2647 32.8688L34.2421 48.0122ZM34.7255 32.8815C34.7257 32.8788 34.726 32.8748 34.7264 32.8697C34.7275 32.857 34.7293 32.8374 34.7324 32.8119C34.7385 32.7606 34.7497 32.6859 34.7693 32.5956C34.8087 32.414 34.8814 32.1746 35.0131 31.9375C35.2702 31.475 35.7568 31.0071 36.7267 31.0071C37.697 31.0071 38.1898 31.4755 38.4524 31.9391C38.5869 32.1765 38.6622 32.4162 38.7036 32.5979C38.7242 32.6882 38.7361 32.763 38.7428 32.8143C38.7462 32.8398 38.7482 32.8595 38.7494 32.8721C38.7498 32.8765 38.7501 32.8801 38.7503 32.8827V47.5514H34.7036L34.7255 32.8815Z" fill="#1C1C1C"/>
<path d="M30.5558 48.427H33.4512V42.4469C33.4512 42.4469 33.3723 41.0996 32.0035 41.0996C30.6346 41.0996 30.5702 42.4469 30.5702 42.4469L30.5558 48.427Z" fill="white"/>
<path fill-rule="evenodd" clip-rule="evenodd" d="M30.3247 48.6573H33.6815V42.4401L33.6811 42.4334L33.4511 42.4469C33.6811 42.4334 33.6811 42.4333 33.6811 42.4331L33.6811 42.4329L33.681 42.4322L33.6809 42.4306L33.6806 42.4258C33.6803 42.4219 33.6799 42.4168 33.6793 42.4105C33.6781 42.3979 33.6763 42.3805 33.6735 42.359C33.6678 42.316 33.6582 42.2562 33.642 42.1851C33.6098 42.0439 33.5505 41.8529 33.441 41.6596C33.2157 41.262 32.7831 40.8691 32.0034 40.8691C31.2232 40.8691 30.7936 41.2625 30.572 41.6612C30.4644 41.8548 30.407 42.0461 30.3763 42.1874C30.3609 42.2586 30.3519 42.3184 30.3467 42.3614C30.3441 42.3829 30.3425 42.4004 30.3415 42.413C30.3409 42.4193 30.3406 42.4244 30.3403 42.4282L30.3401 42.433L30.34 42.4347L30.3399 42.4353L30.3399 42.4356C30.3399 42.4357 30.3399 42.4358 30.5701 42.4469L30.3399 42.4358L30.3397 42.4411L30.3247 48.6573ZM30.8005 42.4545C30.8005 42.4533 30.8006 42.452 30.8008 42.4505C30.8014 42.4433 30.8024 42.4318 30.8043 42.4165C30.808 42.3858 30.8147 42.3404 30.8267 42.2852C30.8509 42.174 30.8952 42.0284 30.9748 41.8851C31.1276 41.6103 31.4147 41.33 32.0034 41.33C32.5924 41.33 32.8836 41.6107 33.04 41.8868C33.1214 42.0304 33.1673 42.1762 33.1927 42.2875C33.2053 42.3427 33.2125 42.3882 33.2165 42.4189C33.2185 42.4342 33.2197 42.4458 33.2204 42.4529C33.2205 42.4539 33.2206 42.4548 33.2206 42.4556V48.1965H30.7867L30.8005 42.4545Z" fill="#1C1C1C"/>
<path d="M33.2049 39.1255C33.2049 39.7661 32.6856 40.2854 32.0451 40.2854C31.4045 40.2854 30.8853 39.7661 30.8853 39.1255C30.8853 38.4851 31.4045 37.9658 32.0451 37.9658C32.6856 37.9658 33.2049 38.4851 33.2049 39.1255Z" fill="white"/>
<path fill-rule="evenodd" clip-rule="evenodd" d="M30.6549 39.1256C30.6549 39.8934 31.2773 40.5159 32.0452 40.5159C32.8129 40.5159 33.4354 39.8934 33.4354 39.1256C33.4354 38.3579 32.8129 37.7354 32.0452 37.7354C31.2774 37.7354 30.6549 38.3578 30.6549 39.1256ZM32.0452 40.055C31.5319 40.055 31.1158 39.6389 31.1158 39.1256C31.1158 38.6124 31.5319 38.1963 32.0452 38.1963C32.5584 38.1963 32.9745 38.6124 32.9745 39.1256C32.9745 39.6389 32.5584 40.055 32.0452 40.055Z" fill="#1C1C1C"/>
<path d="M31.6879 32.4011C31.5551 31.9526 30.7155 31.1049 30.0635 31.3757C29.1172 31.7687 29.1778 32.4751 29.3376 32.9771C29.5705 33.7089 30.4258 34.7377 31.0543 35.2929C31.6828 35.848 33.231 36.8079 33.7387 37.0671C34.2463 37.3264 35.2677 37.894 35.7203 37.4704C35.7203 37.4704 36.2439 36.8885 35.4899 36.3989C34.7358 35.9093 33.9345 35.4657 33.6119 35.2122C33.1789 34.872 32.6327 34.2675 32.4138 33.8988C32.2146 33.5633 31.6879 32.4011 31.6879 32.4011Z" fill="white"/>
<path fill-rule="evenodd" clip-rule="evenodd" d="M33.9396 36.9113C33.9063 36.8942 33.8742 36.8776 33.8435 36.862C33.6002 36.7377 33.094 36.438 32.5669 36.0975C32.0384 35.7561 31.507 35.3854 31.2069 35.1202C30.9047 34.8533 30.5437 34.4683 30.2303 34.0608C29.914 33.6494 29.6615 33.2347 29.5573 32.9073C29.4824 32.6722 29.4428 32.4228 29.5072 32.1994C29.5674 31.9905 29.7307 31.7635 30.1519 31.5886C30.3607 31.5018 30.6422 31.5827 30.931 31.8022C31.0684 31.9066 31.192 32.0318 31.2879 32.1551C31.386 32.2812 31.4451 32.3924 31.4671 32.4666L31.4716 32.4818L31.4781 32.4962L31.688 32.4011C31.4781 32.4962 31.4781 32.4962 31.4781 32.4962L31.4842 32.5096C31.4881 32.5183 31.4939 32.531 31.5014 32.5473C31.5162 32.5799 31.5377 32.6269 31.564 32.6842C31.6167 32.7988 31.6891 32.9553 31.7677 33.1224C31.9227 33.4515 32.1092 33.8372 32.2157 34.0165C32.4518 34.4142 33.0189 35.0393 33.4697 35.3935C33.6442 35.5306 33.9389 35.7128 34.2694 35.9139C34.3191 35.9441 34.3698 35.9749 34.4213 36.0062C34.7194 36.1871 35.0461 36.3855 35.3645 36.5922C35.5252 36.6966 35.6 36.7941 35.6348 36.8695C35.6691 36.9437 35.6725 37.0135 35.661 37.078C35.6491 37.1453 35.6208 37.2067 35.5928 37.2533C35.5792 37.276 35.5666 37.2936 35.5581 37.3048C35.5565 37.3069 35.5551 37.3087 35.5539 37.3103C35.4953 37.3604 35.4112 37.3905 35.288 37.3922C35.156 37.394 34.997 37.3625 34.8211 37.3056C34.5091 37.2048 34.1903 37.0405 33.9396 36.9113ZM35.7204 37.4704L35.8916 37.6245L35.885 37.6319L35.8778 37.6386C35.7103 37.7954 35.4993 37.8501 35.2943 37.853C35.0917 37.8558 34.8788 37.8086 34.6793 37.7441C34.3284 37.6307 33.9735 37.4475 33.7262 37.3198C33.6935 37.303 33.6627 37.287 33.634 37.2724M35.7204 37.4704C35.8916 37.6245 35.8917 37.6244 35.8918 37.6243L35.892 37.6241L35.8924 37.6237L35.8934 37.6226L35.8959 37.6197C35.8978 37.6175 35.9003 37.6147 35.9031 37.6113C35.9087 37.6045 35.9161 37.5954 35.9247 37.5841C35.9419 37.5615 35.9643 37.5298 35.988 37.4904C36.0346 37.4126 36.0901 37.2979 36.1148 37.1585C36.14 37.0164 36.1329 36.849 36.0533 36.6764C35.9742 36.505 35.8317 36.3461 35.6154 36.2057C35.2907 35.9948 34.9572 35.7924 34.6594 35.6116C34.6081 35.5805 34.5579 35.55 34.509 35.5202C34.1697 35.3138 33.9024 35.1474 33.7544 35.0311C33.3392 34.7049 32.8136 34.1209 32.6119 33.7812C32.5192 33.625 32.3428 33.2619 32.1847 32.926C32.1068 32.7606 32.0351 32.6055 31.9828 32.4918C31.9566 32.4349 31.9354 32.3884 31.9207 32.3561C31.9162 32.3463 31.9123 32.3378 31.9091 32.3307C31.9071 32.3263 31.9053 32.3225 31.9039 32.3192C31.8575 32.1738 31.7645 32.0172 31.6517 31.8722C31.5324 31.7188 31.3805 31.565 31.2099 31.4353C30.8826 31.1865 30.4183 30.9789 29.9751 31.163C29.4501 31.381 29.1705 31.7037 29.0644 32.0718C28.9625 32.4253 29.0331 32.7801 29.1181 33.0471C29.2468 33.4514 29.5384 33.917 29.865 34.3417C30.1946 34.7704 30.5755 35.1774 30.9018 35.4656C31.2301 35.7556 31.7871 36.1424 32.3168 36.4846C32.8479 36.8276 33.3696 37.1374 33.634 37.2724" fill="#1C1C1C"/>
<path d="M35.6473 32.6354C35.8777 32.2283 36.5998 31.4987 37.4523 32.067C38.3049 32.6354 38.1589 33.3267 37.8901 33.7799C37.4984 34.4403 36.5229 35.1854 35.7855 35.5848C35.0482 35.9842 34.1573 36.3606 33.6043 36.4988C33.0513 36.6371 32.0988 36.9366 31.7532 36.422C31.7532 36.422 31.323 35.7154 32.1679 35.4081C33.0128 35.1009 33.7195 34.6938 34.0804 34.4173C34.4414 34.1408 34.8716 33.7568 35.102 33.4419C35.3324 33.1269 35.6473 32.6354 35.6473 32.6354Z" fill="white"/>
<path fill-rule="evenodd" clip-rule="evenodd" d="M33.5256 36.7569C33.5735 36.7445 33.6186 36.7328 33.6602 36.7224C34.2392 36.5776 35.1491 36.1916 35.8954 35.7874C36.2776 35.5804 36.7182 35.2858 37.1145 34.9577C37.5077 34.6321 37.8728 34.2609 38.0884 33.8974C38.2372 33.6465 38.3654 33.3084 38.3205 32.9389C38.2744 32.5588 38.0508 32.189 37.5802 31.8753C37.0758 31.539 36.5919 31.585 36.2113 31.7804C35.8491 31.9665 35.5828 32.2842 35.4501 32.5161L35.4397 32.5323C35.4308 32.5462 35.4177 32.5664 35.4013 32.5916C35.3685 32.6422 35.3223 32.7129 35.2691 32.7933C35.162 32.9548 35.0281 33.1528 34.9161 33.3058C34.7055 33.5937 34.2964 33.9617 33.9404 34.2344C33.6007 34.4946 32.9154 34.8912 32.0893 35.1916C31.8454 35.2802 31.6711 35.4062 31.5595 35.5619C31.4472 35.7184 31.4121 35.8858 31.4134 36.0323C31.4147 36.1761 31.4508 36.3021 31.484 36.389C31.5009 36.4332 31.5178 36.4694 31.5309 36.4953C31.5375 36.5083 31.5433 36.5189 31.5476 36.5267C31.5498 36.5306 31.5517 36.5338 31.5532 36.5363L31.5551 36.5396L31.5558 36.5408L31.5562 36.5413L31.5563 36.5416C31.5564 36.5417 31.5564 36.5418 31.7532 36.422L31.5564 36.5418L31.5591 36.5462L31.562 36.5504C31.8099 36.9196 32.2546 36.9639 32.6193 36.9349C32.9351 36.9099 33.2705 36.823 33.5256 36.7569ZM31.9485 36.2993C31.9469 36.2964 31.9447 36.2922 31.9419 36.2867C31.9348 36.2728 31.9247 36.2514 31.9145 36.2246C31.8934 36.1694 31.8748 36.0995 31.8742 36.0282C31.8736 35.9597 31.8893 35.8928 31.934 35.8304C31.9793 35.7672 32.0681 35.6896 32.2467 35.6247M31.9485 36.2993C32.0477 36.4407 32.251 36.5019 32.5828 36.4756C32.8543 36.454 33.1427 36.3796 33.3991 36.3134C33.4503 36.3002 33.5002 36.2874 33.5485 36.2753C34.0755 36.1435 34.9474 35.7768 35.6759 35.3822C36.031 35.1899 36.4468 34.9122 36.8206 34.6028C37.1973 34.2909 37.5159 33.9593 37.692 33.6623C37.812 33.4601 37.8911 33.2259 37.863 32.9944C37.8362 32.7734 37.7066 32.5134 37.3246 32.2587C36.9765 32.0267 36.6731 32.0613 36.4219 32.1904C36.1553 32.3273 35.9468 32.5742 35.8479 32.7489L35.8448 32.7544L35.8414 32.7597L35.6474 32.6354C35.8414 32.7597 35.8414 32.7597 35.8414 32.7597L35.8376 32.7655L35.8271 32.782C35.8179 32.7962 35.8045 32.8169 35.7878 32.8426C35.7544 32.8941 35.7074 32.966 35.6532 33.0478C35.5453 33.2107 35.4065 33.416 35.2881 33.5779C35.0379 33.9199 34.5866 34.3199 34.2206 34.6002C33.8384 34.893 33.1104 35.3107 32.2467 35.6247" fill="#1C1C1C"/>
<path fill-rule="evenodd" clip-rule="evenodd" d="M33.5043 44.9364C33.4878 44.9252 33.4718 44.9144 33.4566 44.9041C33.3355 44.8227 33.0864 44.6316 32.8288 44.4176C32.5706 44.203 32.3127 43.9728 32.1707 43.8133C32.0277 43.6527 31.8611 43.4261 31.7213 43.1906C31.5801 42.9529 31.473 42.7176 31.4389 42.538C31.4145 42.4091 31.4096 42.2749 31.4582 42.1612C31.5037 42.0549 31.605 41.9457 31.8398 41.8808C31.9562 41.8486 32.1003 41.9096 32.2392 42.0442C32.3053 42.1083 32.3628 42.1824 32.4057 42.2537C32.4496 42.3267 32.4737 42.3892 32.4806 42.4298L32.482 42.4381L32.4845 42.4462L32.602 42.4096C32.4845 42.4462 32.4845 42.4461 32.4845 42.4462L32.4869 42.4536C32.4884 42.4584 32.4906 42.4655 32.4935 42.4746C32.4993 42.4928 32.5077 42.519 32.5179 42.5509C32.5384 42.6149 32.5667 42.7021 32.5976 42.7954C32.6585 42.9792 32.7325 43.1949 32.7773 43.2965C32.8768 43.5217 33.1371 43.8885 33.3533 44.1048C33.4371 44.1885 33.5816 44.3039 33.7439 44.4315C33.7683 44.4507 33.7932 44.4702 33.8185 44.4901C33.9649 44.605 34.1254 44.731 34.2809 44.8608C34.3594 44.9263 34.3928 44.9827 34.4063 45.0247C34.4197 45.0661 34.417 45.1032 34.4067 45.1365C34.396 45.1712 34.377 45.2017 34.3592 45.2245C34.3505 45.2356 34.3427 45.2441 34.3374 45.2495C34.3365 45.2505 34.3356 45.2513 34.3348 45.2521C34.3005 45.2747 34.2539 45.2851 34.1885 45.278C34.1183 45.2703 34.036 45.2434 33.9464 45.2019C33.7874 45.1284 33.629 45.0209 33.5043 44.9364ZM34.4128 45.3474L34.4937 45.4399L34.4897 45.4434L34.4854 45.4465C34.3864 45.5183 34.2709 45.5334 34.162 45.5216C34.0543 45.5099 33.9444 45.4711 33.8428 45.4241C33.664 45.3414 33.4876 45.2216 33.3647 45.1381C33.3484 45.1271 33.3331 45.1167 33.3188 45.1071M34.4128 45.3474C34.4937 45.4399 34.4937 45.4399 34.4938 45.4398L34.4939 45.4397L34.4941 45.4395L34.4947 45.439L34.4962 45.4376C34.4974 45.4366 34.4989 45.4353 34.5006 45.4336C34.504 45.4304 34.5085 45.4261 34.5138 45.4207C34.5244 45.4099 34.5383 45.3947 34.5535 45.3754C34.5832 45.3374 34.6201 45.2804 34.6422 45.2085C34.6648 45.1351 34.6719 45.0463 34.6408 44.95C34.6099 44.8544 34.5446 44.7613 34.439 44.6731C34.2804 44.5407 34.1166 44.4122 33.9703 44.2974C33.9451 44.2776 33.9205 44.2582 33.8965 44.2394C33.7298 44.1083 33.5988 44.0031 33.5278 43.9321C33.3287 43.7329 33.0878 43.3905 33.0028 43.1981C32.9637 43.1096 32.8936 42.9065 32.8315 42.719C32.8009 42.6266 32.7729 42.5401 32.7525 42.4766C32.7423 42.4449 32.7341 42.419 32.7284 42.401C32.7266 42.3955 32.7251 42.3908 32.7239 42.3869C32.7231 42.3844 32.7224 42.3823 32.7218 42.3804C32.7066 42.3007 32.6675 42.212 32.617 42.1281C32.5637 42.0394 32.4931 41.9483 32.4109 41.8688C32.2535 41.7162 32.0206 41.5764 31.7736 41.6447C31.4809 41.7256 31.3117 41.8777 31.2316 42.065C31.1546 42.2449 31.1691 42.4368 31.1969 42.5832C31.239 42.805 31.3635 43.0697 31.5093 43.3151C31.6564 43.5628 31.8321 43.8024 31.9865 43.9757C32.1419 44.1501 32.4123 44.3905 32.6711 44.6056C32.9306 44.8212 33.1873 45.0187 33.3188 45.1071" fill="#1C1C1C"/>
<path d="M15.169 80L17.5616 72.4212H15.4701L14.0493 77.9989H13.9489L12.4859 72.4212H10.2623L12.7183 80H15.169Z" fill="#89AE3A"/>
<path d="M20.4454 80V72.4212H18.507V80H20.4454Z" fill="#89AE3A"/>
<path d="M25.6215 80V73.9706H27.8239V72.4212H21.4912V73.9706H23.6884V80H25.6215Z" fill="#89AE3A"/>
<path d="M32.9525 80H35.0651L32.5035 72.4212H30.132L27.5757 80H29.4982L29.9894 78.3351H32.4771L32.9525 80ZM31.1937 74.1281H31.294L32.1127 76.9485H30.3592L31.1937 74.1281Z" fill="#89AE3A"/>
<path d="M41.1866 78.4086H37.9489V72.4212H36.0106V80H41.1866V78.4086Z" fill="#89AE3A"/>
<path d="M47.4877 78.4506H44.2025V76.9012H47.2923V75.4832H44.2025V73.9706H47.4877V72.4212H42.2641V80H47.4877V78.4506Z" fill="#89AE3A"/>
<path d="M57.169 80V72.4212H54.882L53.0387 77.0693H52.9384L51.0898 72.4212H48.8028V80H50.5933V75.2153H50.6884L52.3891 79.4328H53.588L55.2835 75.2153H55.3785V80H57.169Z" fill="#89AE3A"/>
</g>
<defs>
<clipPath id="clip0">
<rect width="68" height="80" fill="white"/>
</clipPath>
</defs>
</svg>
