<svg width="327" height="244" viewBox="0 0 327 244" fill="none" xmlns="http://www.w3.org/2000/svg">
<path d="M74.543 199.422C78.4453 199.422 81.3047 197.113 81.7031 193.691H78.7266C78.3164 195.59 76.6875 196.797 74.543 196.797C71.6602 196.797 69.8672 194.395 69.8672 190.539C69.8672 186.695 71.6602 184.293 74.5312 184.293C76.6641 184.293 78.293 185.617 78.7148 187.656H81.6914C81.3398 184.152 78.375 181.668 74.5312 181.668C69.7383 181.668 66.7734 185.055 66.7734 190.551C66.7734 196.023 69.75 199.422 74.543 199.422ZM93.3516 195.496C92.9297 196.457 91.9336 196.996 90.4922 196.996C88.582 196.996 87.3516 195.637 87.2812 193.469V193.316H96.2344V192.391C96.2344 188.371 94.043 185.945 90.3867 185.945C86.6719 185.945 84.3633 188.535 84.3633 192.648C84.3633 196.75 86.6367 199.258 90.4102 199.258C93.4336 199.258 95.5781 197.805 96.1055 195.496H93.3516ZM90.375 188.207C92.1211 188.207 93.2695 189.438 93.3281 191.383H87.293C87.4219 189.461 88.6406 188.207 90.375 188.207ZM102.949 193.469L107.215 199H110.742L105.316 192.121L110.496 186.191H107.145L102.926 191.336H102.281V186.191H99.375V199H102.281V193.469H102.949ZM120.34 185.98C118.582 185.98 117.094 186.859 116.355 188.312H116.156V186.191H113.355V203.254H116.262V197.055H116.461C117.117 198.414 118.535 199.211 120.375 199.211C123.609 199.211 125.625 196.668 125.625 192.602C125.625 188.5 123.586 185.98 120.34 185.98ZM119.426 196.797C117.445 196.797 116.215 195.191 116.203 192.602C116.215 190.012 117.457 188.406 119.438 188.406C121.43 188.406 122.637 189.977 122.637 192.602C122.637 195.227 121.441 196.797 119.426 196.797ZM137.133 195.496C136.711 196.457 135.715 196.996 134.273 196.996C132.363 196.996 131.133 195.637 131.062 193.469V193.316H140.016V192.391C140.016 188.371 137.824 185.945 134.168 185.945C130.453 185.945 128.145 188.535 128.145 192.648C128.145 196.75 130.418 199.258 134.191 199.258C137.215 199.258 139.359 197.805 139.887 195.496H137.133ZM134.156 188.207C135.902 188.207 137.051 189.438 137.109 191.383H131.074C131.203 189.461 132.422 188.207 134.156 188.207ZM152.262 186.191H141.457V188.465H145.406V199H148.312V188.465H152.262V186.191ZM166.969 199H169.863V186.191H166.969V199ZM155.016 199H160.465C163.453 199 165.363 197.266 165.363 194.535C165.363 191.805 163.453 190.059 160.465 190.059H157.922V186.191H155.016V199ZM160.113 192.309C161.543 192.309 162.469 193.188 162.469 194.523C162.469 195.848 161.555 196.738 160.113 196.738H157.922V192.309H160.113ZM197.824 199V182.09H194.285L189.199 194.641H188.988L183.902 182.09H180.363V199H183.176V187.012H183.34L188.016 198.473H190.172L194.848 187.012H195.012V199H197.824ZM207.457 199.258C211.289 199.258 213.621 196.75 213.621 192.59C213.621 188.453 211.277 185.945 207.457 185.945C203.648 185.945 201.293 188.465 201.293 192.59C201.293 196.75 203.613 199.258 207.457 199.258ZM207.457 196.879C205.43 196.879 204.27 195.309 204.27 192.602C204.27 189.895 205.43 188.324 207.457 188.324C209.473 188.324 210.633 189.895 210.633 192.602C210.633 195.309 209.484 196.879 207.457 196.879ZM225.141 195.496C224.719 196.457 223.723 196.996 222.281 196.996C220.371 196.996 219.141 195.637 219.07 193.469V193.316H228.023V192.391C228.023 188.371 225.832 185.945 222.176 185.945C218.461 185.945 216.152 188.535 216.152 192.648C216.152 196.75 218.426 199.258 222.199 199.258C225.223 199.258 227.367 197.805 227.895 195.496H225.141ZM222.164 188.207C223.91 188.207 225.059 189.438 225.117 191.383H219.082C219.211 189.461 220.43 188.207 222.164 188.207ZM239.801 188.465V186.191H231.164V199H234.07V188.465H239.801ZM247.887 199.258C251.719 199.258 254.051 196.75 254.051 192.59C254.051 188.453 251.707 185.945 247.887 185.945C244.078 185.945 241.723 188.465 241.723 192.59C241.723 196.75 244.043 199.258 247.887 199.258ZM247.887 196.879C245.859 196.879 244.699 195.309 244.699 192.602C244.699 189.895 245.859 188.324 247.887 188.324C249.902 188.324 251.062 189.895 251.062 192.602C251.062 195.309 249.914 196.879 247.887 196.879ZM110.332 220.617H112.641C114.844 220.617 116.109 221.602 116.109 223.195C116.109 224.789 114.762 225.914 112.711 225.914C110.637 225.914 109.242 224.906 109.113 223.336H106.207C106.359 226.406 108.938 228.422 112.699 228.422C116.402 228.422 119.215 226.289 119.215 223.371C119.215 221.039 117.656 219.516 115.441 219.293V219.094C117.328 218.672 118.617 217.102 118.617 215.238C118.617 212.531 116.203 210.668 112.77 210.668C109.125 210.668 106.781 212.613 106.629 215.684H109.453C109.57 214.09 110.812 213.105 112.676 213.105C114.574 213.105 115.688 214.078 115.688 215.578C115.688 217.125 114.48 218.18 112.594 218.18H110.332V220.617ZM123.504 231.34V228H132.691V231.34H135.363V225.738H133.395V215.191H123.75L123.305 221.918C123.188 223.641 122.789 225.176 121.84 225.738H120.832V231.34H123.504ZM130.488 225.738H124.957V225.527C125.52 224.73 125.812 223.477 125.918 222.07L126.246 217.453H130.488V225.738ZM143.379 228.258C147.211 228.258 149.543 225.75 149.543 221.59C149.543 217.453 147.199 214.945 143.379 214.945C139.57 214.945 137.215 217.465 137.215 221.59C137.215 225.75 139.535 228.258 143.379 228.258ZM143.379 225.879C141.352 225.879 140.191 224.309 140.191 221.602C140.191 218.895 141.352 217.324 143.379 217.324C145.395 217.324 146.555 218.895 146.555 221.602C146.555 224.309 145.406 225.879 143.379 225.879ZM159.691 214.98C157.934 214.98 156.445 215.859 155.707 217.312H155.508V215.191H152.707V232.254H155.613V226.055H155.812C156.469 227.414 157.887 228.211 159.727 228.211C162.961 228.211 164.977 225.668 164.977 221.602C164.977 217.5 162.938 214.98 159.691 214.98ZM158.777 225.797C156.797 225.797 155.566 224.191 155.555 221.602C155.566 219.012 156.809 217.406 158.789 217.406C160.781 217.406 161.988 218.977 161.988 221.602C161.988 224.227 160.793 225.797 158.777 225.797ZM173.66 228.258C177.492 228.258 179.824 225.75 179.824 221.59C179.824 217.453 177.48 214.945 173.66 214.945C169.852 214.945 167.496 217.465 167.496 221.59C167.496 225.75 169.816 228.258 173.66 228.258ZM173.66 225.879C171.633 225.879 170.473 224.309 170.473 221.602C170.473 218.895 171.633 217.324 173.66 217.324C175.676 217.324 176.836 218.895 176.836 221.602C176.836 224.309 175.688 225.879 173.66 225.879ZM189.117 228C191.965 228 193.699 226.535 193.699 224.344C193.699 222.785 192.586 221.613 190.898 221.426V221.227C192.199 221.004 193.125 219.82 193.125 218.473C193.125 216.492 191.613 215.191 189.035 215.191H182.977V228H189.117ZM185.848 217.207H188.367C189.656 217.207 190.277 217.863 190.277 218.848C190.277 219.926 189.574 220.512 188.133 220.512H185.848V217.207ZM185.848 222.469H188.344C189.938 222.469 190.758 223.055 190.758 224.215C190.758 225.328 190.02 225.984 188.613 225.984H185.848V222.469ZM196.945 228H202.395C205.383 228 207.293 226.266 207.293 223.535C207.293 220.805 205.383 219.059 202.395 219.059H199.852V215.191H196.945V228ZM202.043 221.309C203.473 221.309 204.398 222.188 204.398 223.523C204.398 224.848 203.484 225.738 202.043 225.738H199.852V221.309H202.043ZM217.254 228H220.113V215.191H214.828C211.84 215.191 209.871 216.867 209.871 219.551C209.871 221.32 210.938 222.691 212.684 223.207L209.25 228H212.578L215.578 223.688H217.254V228ZM215.051 221.531C213.656 221.531 212.742 220.711 212.742 219.551C212.742 218.262 213.645 217.453 215.051 217.453H217.254V221.531H215.051Z" fill="black"/>
<g clip-path="url(#clip0)">
<path d="M131.372 52.9464C131.372 52.9464 133.477 53.8434 132.879 55.3249C132.281 56.8064 130.219 62.8552 129.989 65.9549C129.76 69.0547 129.549 72.1274 130.173 76.091C130.797 80.0548 132.055 83.0702 132.055 83.0702L127.323 83.4945C127.323 83.4945 122.802 67.8545 122.811 67.782C122.82 67.7098 126.799 57.1216 126.799 57.1216L129.927 52.294L131.372 52.9464Z" fill="#CA3123"/>
<path fill-rule="evenodd" clip-rule="evenodd" d="M126.851 84.1846L132.989 83.6341L132.65 82.822L132.65 82.8218L132.65 82.8209L132.648 82.8158C132.646 82.8109 132.643 82.8031 132.638 82.7925C132.63 82.7714 132.617 82.739 132.6 82.6959C132.566 82.6097 132.516 82.4807 132.454 82.3129C132.329 81.9773 132.156 81.4868 131.964 80.8736C131.578 79.6461 131.116 77.9332 130.811 75.9906C130.199 72.106 130.404 69.0971 130.633 66.0024C130.742 64.5288 131.296 62.3009 131.914 60.2166C132.53 58.1448 133.188 56.2826 133.477 55.5663C133.928 54.4496 133.312 53.5814 132.783 53.1021C132.512 52.8557 132.225 52.6709 132.012 52.5492C131.903 52.4876 131.811 52.4402 131.744 52.4075C131.71 52.3912 131.683 52.3784 131.662 52.3692C131.652 52.3647 131.644 52.361 131.638 52.3583L131.634 52.3564L129.687 51.4778L126.22 56.8293L126.195 56.8946L126.799 57.1215C126.195 56.8946 126.195 56.8945 126.195 56.8946L126.024 57.3498C125.915 57.6394 125.76 58.0534 125.573 58.5503C125.2 59.5441 124.703 60.87 124.205 62.1981C123.707 63.5263 123.208 64.8569 122.834 65.8602C122.647 66.3617 122.49 66.782 122.38 67.0793C122.325 67.2278 122.282 67.3466 122.251 67.4299C122.236 67.4712 122.224 67.5055 122.215 67.5309C122.211 67.5432 122.206 67.5562 122.202 67.568C122.201 67.5734 122.198 67.5826 122.194 67.593C122.193 67.598 122.19 67.6073 122.187 67.6188L122.187 67.6194C122.186 67.6252 122.177 67.6584 122.171 67.7005C122.171 67.701 122.171 67.7015 122.171 67.7019C122.168 67.7416 122.167 67.8018 122.168 67.8234C122.169 67.8371 122.171 67.86 122.172 67.8695C122.175 67.888 122.177 67.9028 122.179 67.9096C122.182 67.9245 122.185 67.9376 122.186 67.9448C122.19 67.961 122.195 67.9791 122.199 67.9964C122.209 68.0323 122.222 68.0815 122.239 68.1415C122.272 68.2622 122.32 68.4356 122.382 68.6532C122.505 69.089 122.681 69.7067 122.892 70.4451C123.315 71.9221 123.879 73.8844 124.444 75.844C125.008 77.8037 125.573 79.7611 125.997 81.2286C126.209 81.9623 126.385 82.5736 126.509 83.0014L126.703 83.6735C126.703 83.6736 126.703 83.6737 127.323 83.4945L126.703 83.6737L126.851 84.1846ZM127.795 82.8044L127.749 82.6432C127.625 82.2155 127.449 81.6043 127.237 80.8706C126.813 79.4033 126.248 77.4462 125.684 75.4868C125.119 73.5273 124.555 71.566 124.133 70.0901C123.922 69.352 123.746 68.736 123.624 68.3025C123.564 68.0928 123.518 67.9269 123.486 67.8109C123.513 67.7367 123.548 67.6414 123.591 67.527C123.7 67.2315 123.856 66.8126 124.043 66.3114C124.417 65.309 124.915 63.9791 125.413 62.6511C125.911 61.3232 126.408 59.9976 126.781 59.0039C126.968 58.507 127.123 58.0932 127.232 57.8035L127.379 57.4138L130.167 53.1101L131.113 53.5372L131.118 53.5391L131.119 53.5395C131.12 53.5403 131.124 53.5419 131.129 53.5442C131.14 53.549 131.157 53.5569 131.179 53.5679C131.225 53.5901 131.292 53.6244 131.372 53.67C131.535 53.7628 131.737 53.8948 131.916 54.0579C132.291 54.3974 132.428 54.7184 132.281 55.0833C131.972 55.8485 131.3 57.7515 130.678 59.8494C130.058 61.9348 129.466 64.2811 129.346 65.9072C129.116 69.0121 128.899 72.1487 129.536 76.1913C129.854 78.2125 130.333 79.9892 130.733 81.2603C130.888 81.7557 131.032 82.1752 131.15 82.5036L127.795 82.8044Z" fill="#1C1C1C"/>
<path d="M129.61 50.1616C129.61 50.1616 131.596 51.2973 130.83 52.6992C130.063 54.1013 127.311 59.869 126.723 62.9211C126.135 65.9732 125.568 69.0005 125.727 73.0099C125.886 77.0194 126.784 80.1605 126.784 80.1605L122.035 80.0318C122.035 80.0318 119.364 63.9718 119.382 63.901C119.399 63.8302 124.582 53.7767 124.582 53.7767L128.25 49.3458L129.61 50.1616Z" fill="#CA3123"/>
<path fill-rule="evenodd" clip-rule="evenodd" d="M125.951 79.4924L122.584 79.4011L122.557 79.2357C122.484 78.7965 122.379 78.1689 122.254 77.4155C122.004 75.9089 121.671 73.8993 121.338 71.8876C121.005 69.8757 120.673 67.862 120.425 66.347C120.301 65.5894 120.199 64.9572 120.127 64.5124C120.093 64.2971 120.066 64.127 120.048 64.0081C120.083 63.9375 120.129 63.8469 120.185 63.7382C120.328 63.4574 120.531 63.0596 120.775 62.5835C121.263 61.6314 121.913 60.3685 122.562 59.1074C123.211 57.8464 123.859 56.5876 124.345 55.644C124.588 55.1723 124.791 54.7793 124.933 54.5043L125.123 54.1342L128.393 50.1841L129.283 50.7182L129.287 50.7207L129.288 50.7209L129.288 50.7212C129.29 50.7222 129.293 50.7242 129.298 50.7271C129.308 50.733 129.324 50.7429 129.346 50.7565C129.388 50.7838 129.451 50.8257 129.525 50.8803C129.676 50.9914 129.861 51.146 130.021 51.3289C130.353 51.7097 130.452 52.0444 130.263 52.3897C129.867 53.1138 128.979 54.9258 128.116 56.937C127.259 58.9362 126.398 61.1978 126.09 62.7989C125.5 65.856 124.92 68.9461 125.082 73.0353C125.163 75.0798 125.432 76.9001 125.681 78.209C125.778 78.7191 125.872 79.1525 125.951 79.4924ZM124.582 53.7766C124.008 53.4809 124.008 53.4809 124.008 53.481L123.786 53.9131C123.644 54.1882 123.441 54.5812 123.198 55.053C122.712 55.9967 122.063 57.2557 121.414 58.517C120.765 59.7781 120.116 61.0418 119.627 61.9947C119.383 62.4711 119.179 62.8703 119.035 63.1529C118.963 63.294 118.906 63.4069 118.866 63.4861C118.846 63.5254 118.83 63.5581 118.818 63.5822C118.812 63.594 118.806 63.6064 118.801 63.6176C118.799 63.6229 118.795 63.6316 118.79 63.6416C118.788 63.6464 118.784 63.6554 118.78 63.6665L118.78 63.6671C118.778 63.6727 118.765 63.7047 118.755 63.746C118.755 63.7465 118.755 63.747 118.755 63.7475C118.746 63.7864 118.738 63.846 118.737 63.8675C118.736 63.8812 118.736 63.9042 118.736 63.9137C118.736 63.9324 118.737 63.9474 118.738 63.9543C118.739 63.9694 118.741 63.9827 118.742 63.9901C118.743 64.0065 118.746 64.0251 118.748 64.0428C118.754 64.0795 118.761 64.1299 118.77 64.1913C118.789 64.3151 118.817 64.493 118.853 64.7163C118.925 65.1634 119.028 65.7974 119.152 66.5554C119.4 68.0715 119.732 70.0861 120.065 72.0981C120.398 74.1102 120.731 76.1201 120.981 77.6269C121.106 78.3803 121.211 79.0079 121.284 79.4472L121.398 80.1374C121.398 80.1375 121.398 80.1375 122.035 80.0317L121.398 80.1375L121.486 80.6622L127.646 80.8291L127.404 79.9832L127.404 79.983L127.404 79.9821L127.402 79.9767C127.401 79.9716 127.399 79.9635 127.396 79.9525C127.389 79.9305 127.38 79.8968 127.368 79.8521C127.345 79.7625 127.31 79.6286 127.268 79.4547C127.183 79.1069 127.069 78.5996 126.949 77.9682C126.708 76.7042 126.449 74.9492 126.371 72.9842C126.216 69.0548 126.769 66.0901 127.357 63.0431C127.636 61.5921 128.445 59.4438 129.302 57.4456C130.154 55.4594 131.025 53.6865 131.395 53.0085C131.973 51.9519 131.462 51.0179 130.993 50.4804C130.752 50.2041 130.488 49.9871 130.29 49.8415C130.19 49.7677 130.104 49.7099 130.041 49.6696C130.009 49.6494 129.984 49.6335 129.965 49.6221C129.955 49.6164 129.947 49.6118 129.942 49.6084L129.938 49.606L128.106 48.5072L124.04 53.4189L124.008 53.481L124.582 53.7766Z" fill="#1C1C1C"/>
<path d="M128.375 46.4609C128.375 46.4609 130.265 47.7513 129.389 49.0877C128.513 50.4242 125.311 55.9543 124.481 58.9498C123.652 61.9452 122.845 64.9177 122.684 68.927C122.522 72.9363 123.168 76.1392 123.168 76.1392L118.444 75.6323C118.444 75.6323 117.061 59.4106 117.085 59.3415C117.108 59.2724 123.075 49.6638 123.075 49.6638L127.085 45.5393L128.375 46.4609Z" fill="#CA3123"/>
<path fill-rule="evenodd" clip-rule="evenodd" d="M122.391 75.4068L119.042 75.0474L119.028 74.8803C118.99 74.4366 118.936 73.8027 118.871 73.0418C118.742 71.52 118.57 69.4903 118.399 67.4584C118.227 65.4265 118.057 63.3928 117.93 61.8628C117.867 61.0978 117.815 60.4593 117.78 60.0103C117.762 59.793 117.749 59.6213 117.741 59.5013C117.782 59.4338 117.835 59.3472 117.899 59.2432C118.063 58.9747 118.298 58.5944 118.579 58.1392C119.142 57.2291 119.89 56.0219 120.637 54.8166C121.384 53.6113 122.131 52.4082 122.691 51.5063C122.971 51.0554 123.204 50.6798 123.367 50.417L123.587 50.0633L127.161 46.3863L128.006 46.9897L128.01 46.9925L128.01 46.9928L128.011 46.9931C128.012 46.9942 128.016 46.9964 128.02 46.9998C128.029 47.0064 128.045 47.0176 128.065 47.0328C128.105 47.0635 128.164 47.1102 128.234 47.1705C128.375 47.2933 128.548 47.4622 128.692 47.6572C128.993 48.0632 129.065 48.4049 128.85 48.734C128.397 49.4242 127.367 51.1596 126.347 53.0957C125.333 55.0202 124.295 57.206 123.859 58.7774C123.029 61.7778 122.204 64.8117 122.039 68.9009C121.957 70.9454 122.08 72.7814 122.224 74.106C122.28 74.6222 122.339 75.0617 122.391 75.4068ZM123.076 49.6636C122.528 49.3232 122.528 49.3233 122.527 49.3233L122.271 49.7363C122.108 49.9992 121.875 50.3748 121.595 50.8258C121.035 51.7277 120.288 52.931 119.54 54.1366C118.793 55.342 118.045 56.5499 117.482 57.4608C117.2 57.9162 116.965 58.2979 116.799 58.568C116.716 58.703 116.65 58.811 116.604 58.8867C116.581 58.9244 116.562 58.9556 116.549 58.9787C116.542 58.9899 116.535 59.0018 116.529 59.0126C116.526 59.0176 116.522 59.0259 116.516 59.0355C116.514 59.0401 116.51 59.0486 116.504 59.0593L116.504 59.0598C116.501 59.0653 116.486 59.0966 116.473 59.1373C116.461 59.1754 116.448 59.2353 116.445 59.2569C116.443 59.2705 116.441 59.2934 116.441 59.3029C116.439 59.3215 116.439 59.3365 116.439 59.3434C116.439 59.3585 116.44 59.3718 116.44 59.3793C116.44 59.3958 116.441 59.4145 116.442 59.4323C116.445 59.4693 116.448 59.5202 116.453 59.5822C116.462 59.707 116.475 59.8866 116.493 60.112C116.529 60.5634 116.581 61.2036 116.644 61.969C116.771 63.5001 116.941 65.5348 117.113 67.5669C117.284 69.5991 117.456 71.6291 117.586 73.151C117.65 73.912 117.704 74.546 117.742 74.9897L117.801 75.6867C117.801 75.6869 117.801 75.6869 118.444 75.6321L117.801 75.6869L117.846 76.2169L123.974 76.8745L123.8 76.0119L123.8 76.0117L123.8 76.0108L123.799 76.0053C123.798 76.0001 123.796 75.9918 123.794 75.9806C123.79 75.9582 123.783 75.9239 123.775 75.8783C123.759 75.7872 123.735 75.6509 123.707 75.4742C123.65 75.1207 123.576 74.6059 123.507 73.9669C123.368 72.6878 123.25 70.9177 123.329 68.9528C123.487 65.0233 124.275 62.1124 125.103 59.1218C125.497 57.6977 126.475 55.6207 127.489 53.6972C128.496 51.7852 129.505 50.0874 129.929 49.4411C130.589 48.4338 130.154 47.4621 129.729 46.8888C129.511 46.5942 129.265 46.3569 129.08 46.196C128.986 46.1145 128.904 46.0499 128.845 46.0048C128.815 45.9822 128.79 45.9643 128.772 45.9514C128.763 45.945 128.756 45.9398 128.751 45.9358L128.747 45.9332L127.009 44.6918L122.564 49.2639L122.527 49.3233L123.076 49.6636Z" fill="#1C1C1C"/>
<path d="M193.723 52.9464C193.723 52.9464 191.618 53.8434 192.216 55.3249C192.814 56.8064 194.877 62.8552 195.106 65.9549C195.335 69.0547 195.546 72.1274 194.922 76.091C194.298 80.0548 193.04 83.0702 193.04 83.0702L197.772 83.4945C197.772 83.4945 202.293 67.8545 202.284 67.782C202.275 67.7098 198.296 57.1216 198.296 57.1216L195.168 52.294L193.723 52.9464Z" fill="#CA3123"/>
<path fill-rule="evenodd" clip-rule="evenodd" d="M198.392 83.6736L197.772 83.4945C198.392 83.6736 198.392 83.6736 198.392 83.6735L198.586 83.0014C198.71 82.5736 198.886 81.9623 199.098 81.2286C199.522 79.7611 200.087 77.8037 200.651 75.844C201.216 73.8844 201.78 71.9221 202.203 70.4451C202.414 69.7067 202.59 69.089 202.713 68.6533C202.775 68.4356 202.823 68.2622 202.857 68.1415C202.873 68.0815 202.886 68.0324 202.896 67.9965C202.9 67.9792 202.905 67.9611 202.909 67.945C202.91 67.9378 202.913 67.9248 202.916 67.91C202.918 67.9032 202.92 67.8885 202.923 67.8701C202.924 67.8607 202.926 67.8379 202.928 67.8243C202.929 67.8026 202.928 67.7415 202.924 67.7021L202.924 67.7019C202.918 67.6573 202.909 67.6224 202.908 67.6188C202.905 67.6073 202.902 67.598 202.901 67.593C202.898 67.5826 202.895 67.5734 202.893 67.568C202.889 67.5562 202.884 67.5432 202.88 67.5309C202.871 67.5055 202.859 67.4712 202.844 67.4299C202.813 67.3466 202.77 67.2278 202.715 67.0793C202.605 66.782 202.448 66.3617 202.261 65.8602C201.887 64.8569 201.388 63.5263 200.891 62.1981C200.393 60.87 199.895 59.5441 199.522 58.5503C199.335 58.0534 199.18 57.6394 199.071 57.3498L198.9 56.8947C198.9 56.8946 198.9 56.8946 198.296 57.1215L198.9 56.8947L198.875 56.8293L195.408 51.4778L193.462 52.3564L193.457 52.3583C193.451 52.361 193.443 52.3647 193.433 52.3692C193.413 52.3784 193.385 52.3911 193.351 52.4075C193.284 52.4402 193.192 52.4876 193.084 52.5492C192.87 52.6708 192.583 52.8557 192.312 53.1021C191.783 53.5814 191.167 54.4497 191.618 55.5664C191.907 56.2828 192.566 58.1449 193.181 60.2166C193.8 62.3009 194.353 64.5288 194.462 66.0024C194.691 69.0971 194.896 72.106 194.285 75.9906C193.979 77.9332 193.517 79.6461 193.132 80.8736C192.939 81.4868 192.766 81.9773 192.642 82.3129C192.579 82.4807 192.529 82.6097 192.495 82.6959C192.478 82.739 192.465 82.7714 192.457 82.7925C192.453 82.8031 192.449 82.8109 192.447 82.8158L192.445 82.8209L192.445 82.8218L192.106 83.6341L198.244 84.1846L198.392 83.6736ZM193.945 82.5036C194.063 82.1752 194.207 81.7557 194.363 81.2603C194.762 79.9892 195.241 78.2125 195.559 76.1913C196.196 72.1487 195.979 69.0121 195.749 65.9072C195.629 64.2812 195.037 61.9348 194.418 59.8494C193.795 57.7515 193.123 55.8485 192.814 55.0833C192.667 54.7185 192.804 54.3974 193.179 54.0579C193.358 53.8948 193.56 53.7628 193.723 53.67C193.803 53.6244 193.87 53.5901 193.916 53.5679C193.939 53.5569 193.956 53.549 193.966 53.5442C193.971 53.5419 193.975 53.5403 193.976 53.5396L193.977 53.5393L193.978 53.5391L193.982 53.5372L194.928 53.1101L197.717 57.4138L197.863 57.8035C197.972 58.0932 198.127 58.507 198.314 59.0039C198.687 59.9976 199.184 61.3232 199.682 62.6511C200.18 63.9791 200.678 65.309 201.052 66.3114C201.239 66.8126 201.395 67.2315 201.505 67.527C201.547 67.6413 201.582 67.7367 201.609 67.8109C201.577 67.9268 201.531 68.0927 201.472 68.3025C201.349 68.736 201.174 69.352 200.962 70.0901C200.54 71.566 199.976 73.5273 199.411 75.4868C198.847 77.4462 198.282 79.4033 197.859 80.8706C197.647 81.6043 197.47 82.2155 197.347 82.6432L197.3 82.8044L193.945 82.5036Z" fill="#1C1C1C"/>
<path d="M195.486 50.1616C195.486 50.1616 193.5 51.2973 194.266 52.6992C195.032 54.1013 197.784 59.869 198.372 62.9211C198.96 65.9732 199.527 69.0005 199.369 73.0099C199.21 77.0194 198.311 80.1605 198.311 80.1605L203.061 80.0318C203.061 80.0318 205.732 63.9718 205.714 63.901C205.697 63.8302 200.513 53.7767 200.513 53.7767L196.846 49.3458L195.486 50.1616Z" fill="#CA3123"/>
<path fill-rule="evenodd" clip-rule="evenodd" d="M197.449 80.8291L203.61 80.6622L203.697 80.1375L203.06 80.0317C203.697 80.1375 203.697 80.1375 203.697 80.1374L203.812 79.4472C203.885 79.0079 203.989 78.3803 204.114 77.6269C204.364 76.1201 204.697 74.1102 205.03 72.0981C205.363 70.0861 205.695 68.0715 205.943 66.5554C206.067 65.7974 206.17 65.1634 206.242 64.7163C206.278 64.493 206.306 64.3151 206.325 64.1914C206.334 64.1299 206.342 64.0795 206.347 64.0428C206.349 64.0251 206.352 64.0065 206.354 63.9901C206.355 63.9827 206.356 63.9694 206.357 63.9543C206.358 63.9474 206.359 63.9324 206.359 63.9137C206.359 63.9042 206.359 63.8812 206.358 63.8675C206.357 63.846 206.349 63.7865 206.341 63.7475C206.34 63.747 206.34 63.7465 206.34 63.746M206.34 63.746C206.33 63.7029 206.316 63.6699 206.315 63.6665C206.312 63.6594 206.31 63.6532 206.308 63.6483C206.307 63.6456 206.306 63.6433 206.305 63.6416C206.301 63.6316 206.297 63.6229 206.294 63.6176C206.289 63.6064 206.283 63.5939 206.277 63.5822C206.265 63.5581 206.249 63.5254 206.229 63.4861C206.19 63.4069 206.132 63.294 206.06 63.1529C205.917 62.8703 205.712 62.4711 205.468 61.9947C204.98 61.0418 204.33 59.7781 203.681 58.517C203.032 57.2557 202.383 55.9967 201.897 55.053C201.654 54.5812 201.451 54.1882 201.309 53.9131L201.087 53.4814L201.087 53.481C201.087 53.4809 201.087 53.4809 200.513 53.7766L201.087 53.481L201.055 53.4189L196.989 48.5072L195.158 49.606L195.154 49.6084C195.148 49.6118 195.14 49.6164 195.13 49.6221C195.112 49.6335 195.086 49.6494 195.054 49.6696C194.991 49.7099 194.905 49.7677 194.805 49.8415C194.607 49.9871 194.344 50.2041 194.102 50.4804C193.633 51.0179 193.122 51.9519 193.7 53.0085C194.07 53.6865 194.941 55.4594 195.793 57.4456C196.65 59.4438 197.459 61.5921 197.739 63.043C198.326 66.0901 198.88 69.0547 198.724 72.9842C198.646 74.9492 198.387 76.7041 198.147 77.9682C198.027 78.5996 197.912 79.1068 197.827 79.4547C197.785 79.6286 197.75 79.7625 197.727 79.852C197.715 79.8968 197.706 79.9305 197.7 79.9525C197.696 79.9635 197.694 79.9715 197.693 79.9766L197.691 79.9821L197.691 79.9829L197.449 80.8291M199.144 79.4924C199.223 79.1525 199.317 78.7191 199.414 78.2091C199.663 76.9001 199.932 75.0798 200.013 73.0353C200.013 73.0352 200.013 73.0353 200.013 73.0353C200.175 68.9461 199.595 65.8559 199.006 62.7989C198.697 61.1977 197.836 58.9362 196.979 56.937C196.116 54.9258 195.228 53.1138 194.832 52.3897C194.643 52.0445 194.742 51.7097 195.075 51.3289C195.234 51.146 195.419 50.9914 195.57 50.8803C195.644 50.8257 195.707 50.7839 195.75 50.7565C195.771 50.7429 195.787 50.733 195.797 50.7271C195.802 50.7242 195.805 50.7222 195.807 50.7213L195.807 50.7209L195.808 50.7207L195.812 50.7182L196.702 50.1842L199.972 54.1342L200.162 54.5043C200.304 54.7793 200.507 55.1723 200.75 55.6441C201.236 56.5876 201.884 57.8464 202.533 59.1074C203.182 60.3685 203.832 61.6315 204.32 62.5835C204.564 63.0596 204.768 63.4574 204.911 63.7382C204.966 63.8469 205.012 63.9375 205.047 64.0081C205.029 64.127 205.002 64.2971 204.968 64.5124C204.897 64.9572 204.794 65.5894 204.67 66.347C204.422 67.862 204.09 69.8757 203.757 71.8876C203.424 73.8993 203.091 75.9089 202.841 77.4155C202.716 78.1689 202.612 78.7965 202.539 79.2357L202.511 79.4011L199.144 79.4924Z" fill="#1C1C1C"/>
<path d="M196.72 46.4609C196.72 46.4609 194.831 47.7513 195.706 49.0877C196.582 50.4242 199.785 55.9543 200.614 58.9498C201.444 61.9452 202.25 64.9177 202.412 68.927C202.573 72.9363 201.928 76.1392 201.928 76.1392L206.651 75.6323C206.651 75.6323 208.034 59.4106 208.011 59.3415C207.988 59.2724 202.02 49.6638 202.02 49.6638L198.011 45.5393L196.72 46.4609Z" fill="#CA3123"/>
<path fill-rule="evenodd" clip-rule="evenodd" d="M201.121 76.8745L207.249 76.2169L207.294 75.6869L206.651 75.6321C207.294 75.6869 207.294 75.6869 207.294 75.6867L207.294 75.6862L207.354 74.9897C207.391 74.546 207.445 73.912 207.51 73.151C207.639 71.6291 207.811 69.5991 207.983 67.5669C208.154 65.5348 208.325 63.5001 208.451 61.969C208.514 61.2036 208.567 60.5634 208.602 60.112C208.62 59.8866 208.634 59.707 208.643 59.5822C208.647 59.5202 208.651 59.4693 208.653 59.4323C208.654 59.4145 208.655 59.3958 208.656 59.3793C208.656 59.3718 208.656 59.3585 208.656 59.3434C208.656 59.3365 208.656 59.3215 208.655 59.3029C208.654 59.2934 208.652 59.2705 208.651 59.2569C208.647 59.2353 208.634 59.1754 208.623 59.1373C208.609 59.0948 208.593 59.0626 208.591 59.0593C208.586 59.0486 208.582 59.0401 208.579 59.0355C208.574 59.0259 208.569 59.0176 208.567 59.0126C208.56 59.0018 208.553 58.9899 208.547 58.9787C208.533 58.9556 208.514 58.9244 208.492 58.8867C208.446 58.811 208.38 58.703 208.297 58.568C208.131 58.2979 207.895 57.9162 207.614 57.4608C207.051 56.5499 206.303 55.342 205.555 54.1366C204.808 52.931 204.061 51.7277 203.501 50.8258C203.221 50.3748 202.988 49.9992 202.825 49.7363L202.568 49.3233C202.568 49.3233 202.568 49.3232 202.02 49.6636L202.568 49.3233L202.531 49.2639L198.087 44.6918L196.349 45.9332L196.345 45.9358C196.339 45.9398 196.332 45.945 196.323 45.9514C196.305 45.9643 196.281 45.9822 196.251 46.0048C196.191 46.0499 196.11 46.1145 196.016 46.196C195.83 46.3569 195.585 46.5942 195.367 46.8888C194.942 47.4621 194.507 48.4338 195.167 49.4411C195.59 50.0874 196.599 51.7852 197.607 53.6972C198.62 55.6207 199.598 57.6977 199.993 59.1218C200.821 62.1124 201.609 65.0233 201.767 68.9528C201.846 70.9177 201.727 72.6878 201.589 73.9669C201.52 74.6059 201.445 75.1207 201.389 75.4742C201.361 75.6509 201.337 75.7872 201.32 75.8783C201.312 75.9239 201.306 75.9582 201.301 75.9806C201.299 75.9918 201.298 76.0001 201.297 76.0053L201.295 76.0108L201.295 76.0117L201.121 76.8745ZM202.705 75.4068C202.757 75.0617 202.816 74.6222 202.872 74.106C203.015 72.7814 203.139 70.9454 203.056 68.9009C202.892 64.8117 202.067 61.7778 201.236 58.7774C200.801 57.206 199.763 55.0202 198.748 53.0957C197.728 51.1596 196.698 49.4242 196.246 48.734C196.03 48.4049 196.102 48.0632 196.403 47.6572C196.548 47.4622 196.72 47.2933 196.862 47.1705C196.931 47.1102 196.99 47.0635 197.031 47.0328C197.051 47.0176 197.066 47.0064 197.075 46.9998C197.078 46.9978 197.08 46.9962 197.082 46.995L197.084 46.9936L197.084 46.9933L197.085 46.9932L197.085 46.9928L197.086 46.9925L197.09 46.9897L197.934 46.3863L201.509 50.0633L201.728 50.417C201.892 50.6798 202.125 51.0554 202.405 51.5063C202.964 52.4082 203.711 53.6113 204.458 54.8166C205.206 56.0219 205.954 57.2291 206.516 58.1392C206.798 58.5944 207.032 58.9747 207.197 59.2432C207.261 59.3472 207.314 59.4338 207.355 59.5013C207.346 59.6213 207.333 59.793 207.316 60.0103C207.28 60.4593 207.228 61.0978 207.165 61.8628C207.039 63.3928 206.868 65.4265 206.697 67.4584C206.526 69.4903 206.353 71.52 206.224 73.0418C206.16 73.8027 206.106 74.4366 206.068 74.8803L206.054 75.0474L202.705 75.4068Z" fill="#1C1C1C"/>
<path d="M203.223 85.5019C203.223 108.001 184.984 126.24 162.485 126.24C139.986 126.24 121.746 108.001 121.746 85.5019C121.746 63.0026 139.986 44.7634 162.485 44.7634C184.984 44.7634 203.223 63.0026 203.223 85.5019Z" fill="#89AE3A"/>
<path fill-rule="evenodd" clip-rule="evenodd" d="M121.286 85.5019C121.286 108.256 139.731 126.701 162.485 126.701C185.239 126.701 203.685 108.256 203.685 85.5019C203.685 62.7482 185.239 44.3026 162.485 44.3026C139.731 44.3026 121.286 62.7482 121.286 85.5019ZM162.485 125.78C140.24 125.78 122.208 107.747 122.208 85.5019C122.208 63.2572 140.24 45.2243 162.485 45.2243C184.73 45.2243 202.763 63.2572 202.763 85.5019C202.763 107.747 184.73 125.78 162.485 125.78Z" fill="#1C1C1C"/>
<path d="M138.122 106.486V58.4657C138.122 58.4657 138.329 55.1246 134.251 55.1246C130.172 55.1246 130.334 58.3966 130.334 58.3966V71.2311C130.334 71.2311 129.619 75.4939 125.449 75.4939C121.278 75.4939 119.504 72.4062 119.527 69.3647C119.55 66.3231 120.702 59.733 122.223 56.0693C123.744 52.4056 126.578 47.9355 127.776 46.3916C128.974 44.8478 130.541 43.7418 130.034 41.5528C129.527 39.3638 128.053 38.6034 127.246 38.3269C126.44 38.0504 125.08 37.8661 123.859 38.6034C122.638 39.3407 119.596 42.5206 118.674 43.7418C117.753 44.963 114.227 49.9632 113.144 54.2951C112.061 58.627 111.047 61.7607 111.047 66.3922C111.047 71.0237 110.771 74.2035 113.144 81.024C115.518 87.8444 120.356 93.0059 120.863 93.4898C121.37 93.9737 123.675 97.1074 124.435 99.9185C125.195 102.73 125.357 104.043 125.357 104.803V106.416L138.122 106.486Z" fill="#CA3123"/>
<path fill-rule="evenodd" clip-rule="evenodd" d="M138.767 107.134V58.4809C138.767 58.4731 138.768 58.4637 138.768 58.4529C138.768 58.4494 138.768 58.4458 138.768 58.442C138.769 58.4082 138.769 58.3623 138.768 58.306C138.765 58.1935 138.756 58.038 138.729 57.8534C138.678 57.4869 138.558 56.9893 138.282 56.485C138.002 55.9753 137.565 55.4644 136.894 55.085C136.225 54.707 135.359 54.4794 134.251 54.4794C132.003 54.4794 130.799 55.402 130.203 56.4395C129.919 56.9343 129.792 57.4234 129.735 57.7844C129.706 57.9661 129.694 58.1194 129.69 58.2304C129.688 58.286 129.687 58.3314 129.688 58.3649C129.688 58.3816 129.688 58.3954 129.688 58.406C129.688 58.4068 129.688 58.4075 129.688 58.4082V71.1695C129.684 71.1932 129.677 71.2255 129.667 71.2652C129.643 71.3661 129.604 71.5146 129.544 71.6946C129.425 72.0567 129.227 72.5349 128.916 73.0083C128.305 73.9387 127.267 74.8487 125.449 74.8487C123.539 74.8487 122.24 74.1498 121.41 73.1563C120.566 72.1456 120.161 70.7721 120.172 69.3696C120.183 67.9053 120.469 65.5411 120.947 63.0729C121.424 60.6052 122.083 58.0903 122.819 56.3167C124.315 52.7125 127.118 48.2916 128.286 46.7872C128.512 46.4959 128.749 46.2236 128.997 45.9405C129.062 45.8661 129.127 45.7909 129.193 45.7145C129.503 45.3571 129.821 44.9763 130.087 44.5633C130.638 43.7075 130.964 42.7071 130.663 41.4072C130.088 38.9263 128.387 38.0362 127.455 37.7166C126.554 37.4074 124.974 37.1764 123.525 38.0511C122.835 38.4682 121.714 39.5074 120.696 40.5375C119.661 41.5833 118.646 42.7078 118.159 43.3531C117.686 43.98 116.56 45.5568 115.412 47.5273C114.269 49.4903 113.082 51.8851 112.518 54.1386C112.362 54.765 112.206 55.3687 112.054 55.9576C111.163 59.4074 110.402 62.3514 110.402 66.3922C110.402 66.8365 110.4 67.2682 110.397 67.6919C110.373 71.6892 110.354 74.9682 112.535 81.236C114.954 88.1888 119.87 93.4336 120.418 93.9565C120.608 94.1381 121.275 94.9827 122.004 96.1692C122.725 97.3417 123.455 98.7674 123.812 100.087C124.568 102.883 124.711 104.13 124.711 104.803V107.058L138.767 107.134ZM130.334 71.2311L130.97 71.3377L130.979 71.2848V58.3807L130.978 58.3688C130.978 58.3694 130.978 58.3693 130.978 58.3684C130.978 58.3683 130.978 58.3682 130.978 58.3681C130.978 58.3662 130.978 58.3617 130.978 58.3549C130.978 58.3404 130.978 58.3155 130.979 58.2816C130.982 58.2137 130.99 58.1113 131.009 57.9863C131.049 57.7339 131.137 57.4049 131.322 57.0818C131.666 56.4833 132.42 55.7698 134.251 55.7698C135.182 55.7698 135.819 55.9599 136.259 56.2083C136.696 56.4554 136.972 56.7798 137.15 57.1054C137.332 57.4364 137.415 57.774 137.452 58.034C137.47 58.1626 137.476 58.2681 137.478 58.3384C137.479 58.3734 137.479 58.3992 137.478 58.4144C137.478 58.422 137.478 58.4269 137.478 58.4288L137.478 58.4296L137.477 58.4457V105.837L126.002 105.775V104.803C126.002 103.956 125.822 102.577 125.058 99.7501C124.654 98.2586 123.852 96.7118 123.104 95.4937C122.364 94.2896 121.626 93.3254 121.309 93.0231C120.843 92.5782 116.081 87.5001 113.754 80.812C111.646 74.7543 111.664 71.6525 111.687 67.7007C111.69 67.2759 111.693 66.8414 111.693 66.3922C111.693 62.5259 112.41 59.7455 113.298 56.3C113.452 55.7066 113.61 55.0934 113.77 54.4516C114.29 52.3732 115.406 50.1019 116.527 48.1766C117.644 46.2588 118.741 44.7249 119.189 44.1305C119.624 43.5546 120.591 42.4786 121.613 41.4448C122.651 40.3954 123.662 39.476 124.192 39.1557C125.186 38.5557 126.326 38.6934 127.037 38.9372C127.718 39.1706 128.966 39.8013 129.406 41.6984C129.611 42.5875 129.408 43.2346 129.002 43.8651C128.79 44.1952 128.523 44.5171 128.218 44.8697C128.159 44.9378 128.098 45.0074 128.036 45.0784C127.787 45.3643 127.518 45.6724 127.266 45.9961C126.038 47.5793 123.172 52.0988 121.627 55.822C120.842 57.7121 120.164 60.324 119.68 62.8277C119.195 65.3308 118.894 67.7825 118.882 69.3598C118.869 70.9989 119.34 72.6899 120.42 73.9834C121.514 75.2941 123.188 76.1391 125.449 76.1391C127.801 76.1391 129.206 74.9176 129.994 73.7167C130.383 73.1244 130.625 72.5368 130.769 72.0997C130.842 71.8801 130.891 71.6955 130.923 71.5633C130.938 71.4971 130.95 71.4439 130.957 71.4056C130.961 71.3865 130.964 71.3711 130.966 71.3597C130.967 71.354 130.968 71.3493 130.969 71.3456L130.969 71.3409L130.97 71.3391L130.97 71.3384C130.97 71.338 130.97 71.3377 130.334 71.2311Z" fill="#1C1C1C"/>
<path d="M186.986 106.486V58.4657C186.986 58.4657 186.779 55.1246 190.857 55.1246C194.936 55.1246 194.775 58.3966 194.775 58.3966V71.2311C194.775 71.2311 195.489 75.4939 199.66 75.4939C203.83 75.4939 205.604 72.4062 205.581 69.3647C205.558 66.3231 204.406 59.733 202.885 56.0693C201.365 52.4056 198.53 47.9355 197.332 46.3916C196.134 44.8478 194.567 43.7418 195.074 41.5528C195.581 39.3638 197.056 38.6034 197.862 38.3269C198.669 38.0504 200.028 37.8661 201.249 38.6034C202.471 39.3407 205.512 42.5206 206.434 43.7418C207.356 44.963 210.881 49.9632 211.964 54.2951C213.047 58.627 214.061 61.7607 214.061 66.3922C214.061 71.0237 214.337 74.2035 211.964 81.024C209.591 87.8444 204.752 93.0059 204.245 93.4898C203.738 93.9737 201.434 97.1074 200.673 99.9185C199.913 102.73 199.752 104.043 199.752 104.803V106.416L186.986 106.486Z" fill="#CA3123"/>
<path fill-rule="evenodd" clip-rule="evenodd" d="M186.341 107.134L200.397 107.058V104.803C200.397 104.13 200.54 102.883 201.296 100.087C201.653 98.7674 202.383 97.3417 203.104 96.1692C203.833 94.9827 204.5 94.1381 204.69 93.9565C205.238 93.4336 210.154 88.1888 212.573 81.236C214.754 74.9682 214.735 71.6892 214.711 67.6919C214.708 67.2682 214.706 66.8365 214.706 66.3922C214.706 62.3514 213.945 59.4074 213.054 55.9577C212.902 55.3687 212.746 54.765 212.59 54.1386C212.026 51.8851 210.839 49.4903 209.696 47.5273C208.548 45.5568 207.422 43.98 206.949 43.3531C206.462 42.7078 205.447 41.5833 204.412 40.5375C203.394 39.5074 202.273 38.4682 201.583 38.0511C200.134 37.1764 198.554 37.4074 197.653 37.7166C196.721 38.0362 195.02 38.9263 194.445 41.4072C194.144 42.7071 194.47 43.7075 195.021 44.5633C195.287 44.9763 195.605 45.3571 195.915 45.7145C195.981 45.7909 196.046 45.8661 196.111 45.9405C196.358 46.2236 196.596 46.4959 196.822 46.7872C197.99 48.2916 200.793 52.7125 202.289 56.3167C203.025 58.0903 203.684 60.6052 204.161 63.0729C204.639 65.5411 204.925 67.9053 204.936 69.3696C204.947 70.7721 204.542 72.1456 203.698 73.1563C202.868 74.1498 201.569 74.8487 199.659 74.8487C197.841 74.8487 196.803 73.9387 196.192 73.0083C195.881 72.5349 195.683 72.0567 195.564 71.6946C195.504 71.5146 195.465 71.3661 195.441 71.2652C195.431 71.2255 195.424 71.1932 195.419 71.1695V58.4081L195.42 58.406C195.42 58.3954 195.42 58.3816 195.42 58.3649C195.421 58.3314 195.42 58.286 195.418 58.2304C195.414 58.1194 195.402 57.9661 195.373 57.7844C195.316 57.4234 195.189 56.9343 194.905 56.4395C194.309 55.402 193.105 54.4794 190.857 54.4794C189.749 54.4794 188.883 54.707 188.214 55.085C187.543 55.4644 187.106 55.9753 186.826 56.485C186.55 56.9893 186.43 57.4869 186.379 57.8534C186.352 58.038 186.343 58.1935 186.34 58.306C186.339 58.3623 186.339 58.4082 186.34 58.442C186.34 58.4576 186.34 58.4706 186.341 58.4809V107.134ZM194.774 71.2311C194.138 71.3377 194.138 71.338 194.138 71.3384L194.138 71.3391L194.139 71.3409L194.139 71.3456C194.14 71.3493 194.141 71.354 194.142 71.3597C194.144 71.3711 194.147 71.3865 194.151 71.4056C194.158 71.4439 194.17 71.4971 194.185 71.5633C194.217 71.6955 194.266 71.8801 194.339 72.0997C194.483 72.5368 194.725 73.1244 195.114 73.7167C195.902 74.9176 197.306 76.1391 199.659 76.1391C201.92 76.1391 203.594 75.2941 204.688 73.9834C205.768 72.6899 206.239 70.9989 206.226 69.3598C206.214 67.7825 205.913 65.3308 205.428 62.8277C204.944 60.324 204.266 57.7121 203.481 55.822C201.936 52.0988 199.07 47.5793 197.842 45.9961C197.59 45.6724 197.321 45.3643 197.072 45.0783C197.01 45.0074 196.949 44.9378 196.89 44.8697C196.585 44.5171 196.318 44.1952 196.106 43.8651C195.7 43.2346 195.496 42.5875 195.702 41.6984C196.142 39.8013 197.39 39.1706 198.071 38.9372C198.782 38.6934 199.922 38.5557 200.916 39.1557C201.446 39.476 202.457 40.3954 203.495 41.4448C204.517 42.4786 205.484 43.5546 205.919 44.1305C206.367 44.7249 207.464 46.2588 208.581 48.1766C209.702 50.1019 210.818 52.3732 211.338 54.4516C211.498 55.0934 211.656 55.7066 211.809 56.3C212.698 59.7455 213.415 62.5259 213.415 66.3922C213.415 66.8414 213.418 67.2759 213.42 67.7007C213.444 71.6525 213.462 74.7543 211.354 80.812C209.027 87.5001 204.265 92.5782 203.799 93.0231C203.482 93.3254 202.744 94.2896 202.004 95.4937C201.256 96.7118 200.454 98.2586 200.05 99.7501C199.286 102.577 199.106 103.956 199.106 104.803V105.775L187.631 105.837V58.4457L187.63 58.4296L187.63 58.4288C187.63 58.4269 187.63 58.422 187.63 58.4144C187.629 58.3992 187.629 58.3734 187.63 58.3384C187.632 58.2681 187.638 58.1626 187.656 58.034C187.693 57.774 187.776 57.4364 187.958 57.1054C188.136 56.7798 188.412 56.4554 188.849 56.2083C189.289 55.9599 189.926 55.7698 190.857 55.7698C192.688 55.7698 193.442 56.4833 193.786 57.0818C193.971 57.4049 194.059 57.7339 194.099 57.9863C194.118 58.1113 194.126 58.2137 194.129 58.2816C194.13 58.3155 194.13 58.3404 194.13 58.3549C194.13 58.3617 194.13 58.3662 194.13 58.3681C194.13 58.3682 194.13 58.3683 194.13 58.3684C194.13 58.3693 194.13 58.3694 194.13 58.3688L194.129 58.3807V71.2848L194.138 71.3377L194.774 71.2311Z" fill="#1C1C1C"/>
<path d="M122.546 103.413C122.546 103.413 128.147 105.625 135.899 105.625C143.652 105.625 150.162 100.648 162.092 100.648C174.022 100.648 181.251 105.41 187.314 105.625C193.377 105.84 202.456 103.413 202.456 103.413V112.261C202.456 112.261 194.938 114.473 187.314 114.473C179.69 114.473 173.313 109.496 162.031 109.496C150.749 109.496 143.808 114.473 135.596 114.473C127.385 114.473 122.557 112.261 122.557 112.261L122.546 103.413Z" fill="#0B8BD2"/>
<path fill-rule="evenodd" clip-rule="evenodd" d="M125.82 114.083C128.104 114.649 131.424 115.211 135.596 115.211C139.491 115.211 143.104 114.124 146.873 112.991C147.205 112.892 147.538 112.791 147.873 112.691C152.032 111.451 156.503 110.234 162.031 110.234C167.557 110.234 171.885 111.45 175.823 112.688C176.21 112.81 176.594 112.932 176.977 113.054C180.455 114.161 183.753 115.211 187.314 115.211C191.191 115.211 195.027 114.649 197.885 114.091C199.316 113.812 200.507 113.532 201.342 113.322C201.759 113.217 202.088 113.129 202.313 113.068C202.426 113.037 202.512 113.012 202.571 112.995C202.601 112.987 202.624 112.98 202.639 112.976L202.657 112.971L202.662 112.969L202.663 112.969L202.664 112.969C202.664 112.969 202.664 112.969 202.456 112.261L202.664 112.969L203.193 112.813V102.453L202.265 102.701L202.26 102.702L202.241 102.707C202.225 102.712 202.199 102.718 202.166 102.727C202.1 102.744 202.001 102.77 201.873 102.802C201.616 102.867 201.241 102.96 200.772 103.072C199.834 103.294 198.521 103.588 197.02 103.876C194.003 104.454 190.285 104.993 187.34 104.888C185.91 104.838 184.387 104.518 182.69 104.046C181.657 103.759 180.591 103.426 179.455 103.071C178.709 102.838 177.932 102.595 177.115 102.35C173.028 101.123 168.16 99.9108 162.091 99.9108C156.017 99.9108 151.324 101.18 147.214 102.431C146.775 102.565 146.343 102.698 145.918 102.829C142.343 103.931 139.242 104.888 135.899 104.888C132.092 104.888 128.81 104.344 126.483 103.801C125.32 103.53 124.397 103.259 123.767 103.057C123.453 102.956 123.212 102.872 123.051 102.814C122.97 102.785 122.91 102.763 122.871 102.748C122.851 102.741 122.837 102.735 122.828 102.732L122.818 102.728L122.816 102.727L122.816 102.727L121.807 102.329L121.82 112.735L122.25 112.932L122.557 112.261C122.25 112.932 122.25 112.932 122.25 112.932L122.251 112.932L122.252 112.933L122.257 112.935L122.271 112.941C122.283 112.946 122.299 112.954 122.32 112.963C122.362 112.981 122.423 113.007 122.502 113.039C122.66 113.104 122.891 113.194 123.192 113.301C123.794 113.517 124.678 113.8 125.82 114.083ZM123.294 111.767L123.284 104.451C123.295 104.454 123.306 104.457 123.317 104.461C123.98 104.674 124.941 104.956 126.148 105.237C128.559 105.8 131.954 106.363 135.899 106.363C139.478 106.363 142.802 105.336 146.344 104.242C146.773 104.109 147.207 103.975 147.644 103.842C151.709 102.605 156.236 101.385 162.091 101.385C167.954 101.385 172.665 102.554 176.691 103.762C177.47 103.996 178.233 104.234 178.976 104.466C180.135 104.829 181.246 105.176 182.296 105.467C184.033 105.95 185.686 106.305 187.288 106.362C190.406 106.473 194.259 105.906 197.297 105.324C198.824 105.032 200.159 104.733 201.113 104.507C201.336 104.454 201.539 104.405 201.718 104.361V111.701C201.522 111.753 201.275 111.818 200.982 111.892C200.169 112.097 199.004 112.37 197.603 112.644C194.796 113.192 191.061 113.736 187.314 113.736C183.995 113.736 180.921 112.759 177.404 111.642C177.03 111.523 176.65 111.403 176.265 111.281C172.288 110.031 167.787 108.759 162.031 108.759C156.278 108.759 151.637 110.03 147.452 111.278C147.126 111.375 146.804 111.472 146.485 111.568C142.672 112.713 139.263 113.736 135.596 113.736C131.557 113.736 128.357 113.192 126.174 112.652C125.083 112.381 124.247 112.112 123.688 111.913C123.536 111.858 123.404 111.809 123.294 111.767Z" fill="#1C1C1C"/>
<path d="M122.546 112.261C122.546 112.261 128.147 114.473 135.899 114.473C143.652 114.473 150.162 109.496 162.092 109.496C174.022 109.496 181.251 114.258 187.314 114.473C193.377 114.689 202.456 112.261 202.456 112.261V121.11C202.456 121.11 194.938 123.322 187.314 123.322C179.69 123.322 173.313 118.344 162.031 118.344C150.749 118.344 143.808 123.322 135.596 123.322C127.385 123.322 122.557 121.11 122.557 121.11L122.546 112.261Z" fill="#0B8BD2"/>
<path fill-rule="evenodd" clip-rule="evenodd" d="M125.82 122.931C128.104 123.497 131.424 124.059 135.596 124.059C139.491 124.059 143.104 122.973 146.873 121.84C147.205 121.74 147.538 121.64 147.873 121.54C152.032 120.299 156.503 119.082 162.031 119.082C167.557 119.082 171.885 120.298 175.823 121.536C176.21 121.658 176.594 121.781 176.977 121.902C180.455 123.009 183.753 124.059 187.314 124.059C191.191 124.059 195.027 123.497 197.885 122.939C199.316 122.66 200.507 122.38 201.342 122.17C201.759 122.065 202.088 121.977 202.313 121.916C202.426 121.885 202.512 121.86 202.571 121.844C202.601 121.835 202.624 121.829 202.639 121.824L202.657 121.819L202.662 121.818L202.663 121.817L202.664 121.817C202.664 121.817 202.664 121.817 202.456 121.11L202.664 121.817L203.193 121.661V111.301L202.265 111.549L202.26 111.551L202.241 111.555C202.225 111.56 202.199 111.566 202.166 111.575C202.1 111.592 202.001 111.618 201.873 111.651C201.616 111.716 201.241 111.809 200.772 111.92C199.834 112.142 198.521 112.436 197.02 112.724C194.003 113.302 190.285 113.841 187.34 113.737C185.91 113.686 184.387 113.366 182.69 112.895C181.657 112.608 180.591 112.274 179.455 111.919C178.709 111.686 177.932 111.443 177.115 111.198C173.028 109.971 168.16 108.759 162.091 108.759C156.017 108.759 151.324 110.028 147.214 111.28C146.775 111.413 146.343 111.546 145.918 111.678C142.343 112.78 139.242 113.736 135.899 113.736C132.092 113.736 128.81 113.193 126.483 112.649C125.32 112.378 124.397 112.107 123.767 111.905C123.453 111.804 123.212 111.72 123.051 111.663C122.97 111.634 122.91 111.611 122.871 111.596C122.851 111.589 122.837 111.583 122.828 111.58L122.818 111.576L122.816 111.576L122.816 111.576L121.807 111.177L121.82 121.583L122.25 121.78L122.557 121.11C122.25 121.78 122.25 121.78 122.25 121.78L122.251 121.78L122.252 121.781L122.257 121.783L122.271 121.789C122.283 121.795 122.299 121.802 122.32 121.811C122.362 121.829 122.423 121.855 122.502 121.887C122.66 121.952 122.891 122.042 123.192 122.15C123.794 122.365 124.678 122.649 125.82 122.931ZM123.294 120.615L123.284 113.299C123.295 113.302 123.306 113.306 123.317 113.309C123.98 113.522 124.941 113.804 126.148 114.085C128.559 114.648 131.954 115.211 135.899 115.211C139.478 115.211 142.802 114.184 146.344 113.09C146.773 112.957 147.207 112.823 147.644 112.69C151.709 111.453 156.236 110.234 162.091 110.234C167.954 110.234 172.665 111.402 176.691 112.611C177.47 112.844 178.233 113.083 178.976 113.315C180.135 113.677 181.246 114.024 182.296 114.316C184.033 114.798 185.686 115.154 187.288 115.21C190.406 115.321 194.259 114.754 197.297 114.172C198.824 113.88 200.159 113.581 201.113 113.355C201.336 113.302 201.539 113.253 201.718 113.209V120.549C201.522 120.602 201.275 120.666 200.982 120.74C200.169 120.945 199.004 121.218 197.603 121.492C194.796 122.04 191.061 122.584 187.314 122.584C183.995 122.584 180.921 121.608 177.404 120.49C177.03 120.371 176.65 120.251 176.265 120.13C172.288 118.879 167.787 117.607 162.031 117.607C156.278 117.607 151.637 118.878 147.452 120.126C147.126 120.224 146.804 120.32 146.485 120.416C142.672 121.561 139.263 122.584 135.596 122.584C131.557 122.584 128.357 122.04 126.174 121.5C125.083 121.23 124.247 120.96 123.688 120.761C123.536 120.707 123.404 120.658 123.294 120.615Z" fill="#1C1C1C"/>
<path d="M122.546 121.11C122.546 121.11 128.147 123.322 135.899 123.322C143.652 123.322 150.162 118.344 162.092 118.344C174.022 118.344 181.251 123.107 187.314 123.322C193.377 123.537 202.456 121.11 202.456 121.11V129.958C202.456 129.958 194.938 132.17 187.314 132.17C179.69 132.17 173.313 127.193 162.031 127.193C150.749 127.193 143.808 132.17 135.596 132.17C127.385 132.17 122.557 129.958 122.557 129.958L122.546 121.11Z" fill="#0B8BD2"/>
<path fill-rule="evenodd" clip-rule="evenodd" d="M125.82 131.779C128.104 132.345 131.424 132.907 135.596 132.907C139.491 132.907 143.104 131.821 146.873 130.688C147.205 130.588 147.538 130.488 147.873 130.388C152.032 129.147 156.503 127.93 162.031 127.93C167.557 127.93 171.885 129.146 175.823 130.385C176.21 130.506 176.594 130.629 176.977 130.75C180.455 131.857 183.753 132.907 187.314 132.907C191.191 132.907 195.027 132.345 197.885 131.787C199.316 131.508 200.507 131.228 201.342 131.018C201.759 130.913 202.088 130.826 202.313 130.764C202.426 130.733 202.512 130.709 202.571 130.692C202.601 130.683 202.624 130.677 202.639 130.672L202.657 130.667L202.662 130.666L202.663 130.665L202.664 130.665C202.664 130.665 202.664 130.665 202.456 129.958L202.664 130.665L203.193 130.509V120.149L202.265 120.397L202.26 120.399L202.241 120.404C202.225 120.408 202.199 120.415 202.166 120.423C202.1 120.441 202.001 120.466 201.873 120.499C201.616 120.564 201.241 120.657 200.772 120.768C199.834 120.99 198.521 121.285 197.02 121.572C194.003 122.15 190.285 122.689 187.34 122.585C185.91 122.534 184.387 122.214 182.69 121.743C181.657 121.456 180.591 121.123 179.455 120.767C178.709 120.534 177.932 120.292 177.115 120.046C173.028 118.82 168.16 117.607 162.091 117.607C156.017 117.607 151.324 118.877 147.214 120.128C146.775 120.261 146.343 120.395 145.918 120.526C142.343 121.628 139.242 122.584 135.899 122.584C132.092 122.584 128.81 122.041 126.483 121.498C125.32 121.226 124.397 120.955 123.767 120.753C123.453 120.652 123.212 120.568 123.051 120.511C122.97 120.482 122.91 120.459 122.871 120.445C122.851 120.437 122.837 120.432 122.828 120.428L122.818 120.424L122.816 120.424L122.816 120.424L121.807 120.025L121.82 130.431L122.25 130.628L122.557 129.958C122.25 130.628 122.25 130.628 122.25 130.628L122.251 130.629L122.252 130.629L122.257 130.631L122.271 130.637C122.283 130.643 122.299 130.65 122.32 130.659C122.362 130.677 122.423 130.703 122.502 130.735C122.66 130.8 122.891 130.89 123.192 130.998C123.794 131.213 124.678 131.497 125.82 131.779ZM123.294 129.463L123.284 122.147C123.295 122.15 123.306 122.154 123.317 122.157C123.98 122.37 124.941 122.652 126.148 122.934C128.559 123.496 131.954 124.059 135.899 124.059C139.478 124.059 142.802 123.032 146.344 121.938C146.773 121.805 147.207 121.672 147.644 121.538C151.709 120.301 156.236 119.082 162.091 119.082C167.954 119.082 172.665 120.25 176.691 121.459C177.47 121.692 178.233 121.931 178.976 122.163C180.135 122.525 181.246 122.872 182.296 123.164C184.033 123.646 185.686 124.002 187.288 124.058C190.406 124.169 194.259 123.602 197.297 123.02C198.824 122.728 200.159 122.429 201.113 122.203C201.336 122.15 201.539 122.101 201.718 122.057V129.397C201.522 129.45 201.275 129.515 200.982 129.588C200.169 129.793 199.004 130.067 197.603 130.34C194.796 130.888 191.061 131.432 187.314 131.432C183.995 131.432 180.921 130.456 177.404 129.338C177.03 129.219 176.65 129.099 176.265 128.978C172.288 127.727 167.787 126.455 162.031 126.455C156.278 126.455 151.637 127.727 147.452 128.975C147.126 129.072 146.804 129.168 146.485 129.264C142.672 130.409 139.263 131.432 135.596 131.432C131.557 131.432 128.357 130.888 126.174 130.348C125.083 130.078 124.247 129.809 123.688 129.609C123.536 129.555 123.404 129.506 123.294 129.463Z" fill="#1C1C1C"/>
<path d="M189.875 10.2846C189.875 14.3186 186.604 17.5889 182.57 17.5889C178.536 17.5889 175.266 14.3186 175.266 10.2846C175.266 6.25056 178.536 2.98024 182.57 2.98024C186.604 2.98024 189.875 6.25056 189.875 10.2846Z" fill="#E85427"/>
<path fill-rule="evenodd" clip-rule="evenodd" d="M174.805 10.2846C174.805 14.5731 178.281 18.0498 182.57 18.0498C186.859 18.0498 190.335 14.5731 190.335 10.2846C190.335 5.99604 186.859 2.51938 182.57 2.51938C178.281 2.51938 174.805 5.99604 174.805 10.2846ZM182.57 17.1281C178.79 17.1281 175.727 14.0641 175.727 10.2846C175.727 6.50506 178.79 3.44107 182.57 3.44107C186.35 3.44107 189.414 6.50506 189.414 10.2846C189.414 14.0641 186.35 17.1281 182.57 17.1281Z" fill="#1C1C1C"/>
<path d="M148.56 16.6904C148.56 16.6904 150.574 12.4745 154.574 10.9299C159.228 9.1326 162.915 11.0681 162.915 11.0681C162.915 11.0681 166.011 7.61624 170.266 7.72703C174.69 7.84224 176.946 10.1131 178.169 12.7272C179.344 15.2388 179.137 17.1282 179.137 17.1282C179.137 17.1282 182.271 16.2296 184.897 17.2895C187.524 18.3495 187.91 21.328 187.524 22.7044C187.04 24.4326 184.759 25.8382 184.759 25.8382C184.759 25.8382 185.911 27.0824 185.819 29.1562C185.727 31.23 184.667 32.1517 184.667 32.1517C184.667 32.1517 186.418 34.1333 186.234 36.9445C186.057 39.6436 185.22 42.6129 182.455 44.9632C179.69 47.3135 176.28 47.636 174.621 47.6821C172.962 47.7282 168.906 46.6222 168.906 46.6222C168.906 46.6222 166.464 47.4978 162.961 47.4056C159.459 47.3135 157.823 46.6683 156.348 45.7696C155.289 45.1245 154.205 43.8571 154.205 43.8571C154.205 43.8571 151.578 45.2166 148.859 44.894C146.141 44.5714 143.781 42.1832 143.03 40.9999C142.108 39.5482 141.644 36.962 141.832 34.7555C142.016 32.5895 142.961 31.2761 142.961 31.2761C142.961 31.2761 141.186 29.4788 141.094 26.5755C141.002 23.6722 141.693 20.5154 144.574 18.3955C146.663 16.8576 148.56 16.6904 148.56 16.6904Z" fill="#0A633C"/>
<path fill-rule="evenodd" clip-rule="evenodd" d="M171.042 47.6192C172.253 47.8878 173.737 48.1676 174.634 48.1427C176.322 48.0958 179.865 47.7692 182.754 45.3142C185.645 42.8561 186.512 39.749 186.694 36.9745C186.793 35.466 186.372 34.1866 185.934 33.2911C185.714 32.8425 185.488 32.4862 185.315 32.2403C185.299 32.217 185.283 32.1946 185.267 32.1732C185.37 32.0424 185.489 31.8714 185.61 31.6582C185.919 31.1108 186.23 30.2918 186.28 29.1766C186.33 28.048 186.041 27.1425 185.738 26.5184C185.628 26.2906 185.515 26.0998 185.416 25.9483C185.645 25.7831 185.949 25.5492 186.269 25.2619C186.915 24.68 187.69 23.8233 187.968 22.8286C188.189 22.0415 188.181 20.8548 187.774 19.7225C187.363 18.5759 186.529 17.4508 185.07 16.8621C183.662 16.2941 182.141 16.257 180.994 16.3521C180.434 16.3985 179.955 16.4772 179.608 16.5462C179.602 16.3441 179.586 16.0979 179.551 15.8142C179.451 14.9862 179.198 13.8376 178.587 12.5318C177.951 11.1732 177.036 9.88147 175.686 8.91519C174.333 7.94653 172.571 7.32598 170.278 7.26627C168.023 7.20757 166.093 8.09207 164.744 8.96962C164.067 9.41002 163.528 9.85378 163.157 10.1883C163.018 10.3137 162.902 10.424 162.812 10.5134C162.707 10.4689 162.577 10.4169 162.425 10.361C161.985 10.1997 161.352 10.0059 160.568 9.87082C159.001 9.60059 156.829 9.5652 154.408 10.4999C152.304 11.3123 150.739 12.8191 149.708 14.1004C149.19 14.7436 148.802 15.3369 148.542 15.7706C148.42 15.9748 148.325 16.1442 148.26 16.2673C148.225 16.2731 148.187 16.2799 148.146 16.2876C147.919 16.3304 147.598 16.4038 147.211 16.527C146.436 16.7735 145.393 17.2205 144.301 18.0243C141.248 20.2712 140.539 23.6108 140.634 26.59C140.683 28.1335 141.179 29.3807 141.66 30.2397C141.901 30.6696 142.14 31.0047 142.32 31.2343C142.344 31.2655 142.367 31.2947 142.39 31.322C142.293 31.491 142.17 31.7257 142.042 32.0205C141.767 32.6563 141.47 33.5749 141.373 34.7163C141.179 36.9854 141.648 39.6827 142.641 41.2468C143.049 41.8893 143.865 42.8211 144.926 43.6352C145.988 44.4493 147.334 45.177 148.805 45.3515C150.252 45.5231 151.656 45.247 152.685 44.9378C153.202 44.7823 153.631 44.6164 153.932 44.4887C153.99 44.4642 154.043 44.4411 154.091 44.4197C154.21 44.5484 154.37 44.7156 154.556 44.8996C154.968 45.3051 155.533 45.8127 156.108 46.163C157.661 47.109 159.378 47.7722 162.949 47.8662C164.741 47.9133 166.262 47.713 167.337 47.5004C167.874 47.3941 168.301 47.2845 168.596 47.2007C168.734 47.1615 168.843 47.128 168.921 47.103C168.935 47.1068 168.95 47.1108 168.966 47.1151C169.081 47.1456 169.248 47.189 169.453 47.2409C169.862 47.3446 170.425 47.4826 171.042 47.6192ZM168.751 46.1883L168.747 46.1896C168.743 46.1908 168.737 46.1929 168.729 46.1957C168.713 46.2013 168.687 46.2099 168.653 46.221C168.584 46.2431 168.48 46.2754 168.344 46.3142C168.071 46.3917 167.669 46.4953 167.158 46.5963C166.136 46.7984 164.684 46.9898 162.974 46.9448C159.54 46.8545 157.985 46.2273 156.588 45.376C156.104 45.0812 155.598 44.6325 155.203 44.2431C155.008 44.0509 154.845 43.8781 154.731 43.7537C154.674 43.6915 154.629 43.6417 154.599 43.6077C154.584 43.5907 154.573 43.5778 154.566 43.5692L154.558 43.5598L154.556 43.5577L154.556 43.5575L154.318 43.2798L153.994 43.4476L153.994 43.4476L153.994 43.4477L153.993 43.4479L153.989 43.4499C153.985 43.4519 153.979 43.4551 153.97 43.4594C153.953 43.4681 153.926 43.4813 153.89 43.4983C153.818 43.5324 153.711 43.5816 153.573 43.6401C153.296 43.7573 152.899 43.911 152.419 44.0551C151.455 44.345 150.187 44.5873 148.914 44.4363C147.666 44.2882 146.474 43.6605 145.487 42.904C144.501 42.1475 143.762 41.2935 143.419 40.7528C142.569 39.4135 142.108 36.9384 142.291 34.7945C142.378 33.7699 142.645 32.9488 142.888 32.3865C143.01 32.1055 143.125 31.89 143.209 31.7471C143.25 31.6756 143.284 31.6225 143.306 31.5885C143.317 31.5715 143.325 31.5593 143.33 31.5521C143.333 31.5484 143.334 31.546 143.335 31.5449L143.335 31.5447L143.335 31.5443L143.336 31.544L143.562 31.2292L143.289 30.953L143.289 30.9527L143.289 30.9523L143.288 30.9511C143.287 30.9501 143.285 30.9488 143.284 30.9471C143.282 30.9451 143.28 30.9427 143.277 30.9398C143.267 30.9288 143.25 30.9112 143.229 30.8871C143.186 30.8387 143.122 30.7644 143.045 30.6654C142.889 30.4672 142.678 30.1715 142.464 29.7892C142.035 29.0238 141.598 27.9207 141.555 26.5608C141.465 23.7334 142.139 20.7595 144.847 18.7666C145.844 18.0325 146.794 17.6269 147.49 17.4053C147.838 17.2945 148.122 17.23 148.316 17.1934C148.413 17.1751 148.488 17.1638 148.536 17.1572C148.561 17.1539 148.578 17.1518 148.589 17.1506C148.595 17.15 148.598 17.1496 148.6 17.1495L148.601 17.1494L148.601 17.1494L148.601 17.1493L148.602 17.1493L148.863 17.1263L148.976 16.8893L148.976 16.889L148.976 16.888L148.98 16.881C148.983 16.8744 148.988 16.8639 148.995 16.8497C149.01 16.8214 149.032 16.7784 149.061 16.7225C149.121 16.6105 149.211 16.4467 149.333 16.2443C149.575 15.8393 149.94 15.2821 150.426 14.6782C151.402 13.4654 152.844 12.0918 154.74 11.3597C156.974 10.4972 158.972 10.5309 160.412 10.7791C161.132 10.9033 161.711 11.081 162.108 11.2264C162.306 11.299 162.458 11.3634 162.559 11.4087C162.609 11.4314 162.647 11.4492 162.671 11.4609C162.683 11.4667 162.691 11.471 162.696 11.4736L162.701 11.4761L162.701 11.4762L162.702 11.4764L163.019 11.6429M163.258 11.376L163.258 11.3758L163.264 11.3697C163.269 11.3645 163.276 11.3561 163.287 11.3448C163.308 11.3222 163.341 11.288 163.385 11.2437C163.472 11.1552 163.603 11.027 163.774 10.8726C164.117 10.5633 164.618 10.151 165.246 9.74231C166.508 8.92161 168.254 8.13556 170.254 8.18764C172.385 8.24315 173.963 8.81563 175.15 9.66471C176.339 10.5162 177.164 11.6669 177.752 12.9224C178.316 14.1281 178.546 15.1802 178.636 15.9248C178.681 16.2972 178.691 16.5925 178.69 16.7914C178.69 16.8908 178.686 16.966 178.684 17.0146C178.682 17.0389 178.681 17.0565 178.68 17.0672C178.679 17.0725 178.679 17.0761 178.679 17.0779L178.679 17.0782L178.679 17.0785L178.679 17.0789L178.679 17.0792L178.604 17.7604L179.264 17.5712L179.264 17.5711L179.264 17.571L179.269 17.5697C179.274 17.5683 179.282 17.5663 179.292 17.5634C179.313 17.5578 179.345 17.5494 179.388 17.5389C179.473 17.5179 179.599 17.4884 179.759 17.456C180.08 17.3911 180.536 17.3149 181.07 17.2706C182.147 17.1813 183.506 17.2249 184.725 17.7168C185.893 18.1881 186.565 19.0821 186.907 20.0339C187.253 20.9999 187.246 21.9907 187.081 22.5801C186.875 23.3135 186.267 24.0237 185.652 24.5766C185.352 24.8463 185.066 25.0654 184.855 25.2169C184.749 25.2925 184.663 25.3508 184.604 25.3897C184.575 25.4092 184.552 25.4237 184.537 25.4332C184.53 25.4379 184.525 25.4413 184.521 25.4434L184.518 25.4456L184.518 25.4457L184.517 25.4459L184.04 25.7398L184.42 26.1498L184.42 26.1501C184.421 26.1509 184.423 26.1529 184.425 26.156C184.431 26.1622 184.44 26.1731 184.453 26.1884C184.478 26.219 184.516 26.2675 184.563 26.3329C184.657 26.464 184.784 26.662 184.909 26.9205C185.16 27.437 185.401 28.1904 185.359 29.1357C185.316 30.0942 185.051 30.773 184.807 31.2049C184.685 31.4218 184.567 31.5781 184.483 31.677C184.441 31.7265 184.407 31.7616 184.386 31.7826C184.382 31.7866 184.379 31.79 184.376 31.793C184.371 31.7979 184.367 31.8014 184.365 31.8036L184.363 31.805L184.363 31.8057L184.362 31.8059L184.362 31.8063L184.014 32.1087L184.321 32.4561L184.322 32.4566L184.322 32.4568L184.323 32.4584C184.325 32.4608 184.329 32.465 184.334 32.4711C184.344 32.4833 184.36 32.5028 184.381 32.5293C184.424 32.5824 184.486 32.6634 184.561 32.77C184.711 32.9836 184.911 33.2984 185.106 33.6965C185.497 34.4947 185.86 35.6117 185.774 36.9142C185.602 39.5379 184.795 42.3694 182.157 44.6119C179.515 46.8575 176.238 47.1761 174.608 47.2213C173.845 47.2425 172.472 46.9923 171.241 46.7194C170.636 46.5853 170.082 46.4496 169.679 46.3475C169.478 46.2964 169.314 46.2538 169.201 46.224C169.145 46.2091 169.101 46.1974 169.072 46.1894L169.038 46.1804L169.028 46.1775L168.887 46.1393L168.751 46.1882L168.751 46.1883" fill="#1C1C1C"/>
<path d="M147.617 39.9648L147.615 50.3088H163.929V39.9712" fill="#FEFEFE"/>
<path fill-rule="evenodd" clip-rule="evenodd" d="M147.154 50.7697H164.39V39.9712H163.468V49.848H148.076L148.078 39.9649L147.156 39.9647L147.154 50.7697Z" fill="#1C1C1C"/>
<path d="M179.137 42.0828V53.0739H164.021V42.0857" fill="#FEFEFE"/>
<path fill-rule="evenodd" clip-rule="evenodd" d="M163.56 53.5347H179.598V42.0828H178.676V52.613H164.482V42.0857H163.56V53.5347Z" fill="#1C1C1C"/>
<path d="M171.582 33.7969L163.293 42.0858H179.784C179.784 42.0858 171.582 33.6666 171.582 33.7969Z" fill="#2C2A26"/>
<path d="M155.834 31.0912L146.955 39.9703H164.621C164.621 39.9703 155.834 30.9517 155.834 31.0912Z" fill="#2C2A26"/>
<path d="M154.267 43.7342H157.155V49.8481H154.267V43.7342Z" fill="#2C2A26"/>
<path d="M170.934 43.5343V47.6511H173.269V43.519L170.934 43.5343Z" fill="#2C2A26"/>
<path d="M158.614 56.0079C158.614 57.6199 157.307 58.9265 155.695 58.9265C154.083 58.9265 152.777 57.6199 152.777 56.0079C152.777 54.3961 154.083 53.0893 155.695 53.0893C157.307 53.0893 158.614 54.3961 158.614 56.0079Z" fill="white"/>
<path fill-rule="evenodd" clip-rule="evenodd" d="M152.316 56.0078C152.316 57.8744 153.829 59.3873 155.695 59.3873C157.562 59.3873 159.075 57.8744 159.075 56.0078C159.075 54.1414 157.562 52.6283 155.695 52.6283C153.829 52.6283 152.316 54.1414 152.316 56.0078ZM155.695 58.4656C154.338 58.4656 153.237 57.3653 153.237 56.0078C153.237 54.6505 154.338 53.55 155.695 53.55C157.053 53.55 158.153 54.6505 158.153 56.0078C158.153 57.3653 157.053 58.4656 155.695 58.4656Z" fill="#1C1C1C"/>
<path d="M167.401 58.2507C167.401 59.8626 166.094 61.1693 164.482 61.1693C162.87 61.1693 161.564 59.8626 161.564 58.2507C161.564 56.6387 162.87 55.3321 164.482 55.3321C166.094 55.3321 167.401 56.6387 167.401 58.2507Z" fill="white"/>
<path fill-rule="evenodd" clip-rule="evenodd" d="M161.102 58.2505C161.102 60.1169 162.615 61.63 164.482 61.63C166.348 61.63 167.861 60.1169 167.861 58.2505C167.861 56.384 166.348 54.8711 164.482 54.8711C162.615 54.8711 161.102 56.384 161.102 58.2505ZM164.482 60.7083C163.124 60.7083 162.024 59.6079 162.024 58.2505C162.024 56.893 163.124 55.7928 164.482 55.7928C165.839 55.7928 166.94 56.893 166.94 58.2505C166.94 59.6079 165.839 60.7083 164.482 60.7083Z" fill="#1C1C1C"/>
<path d="M151.026 95.5636H160.335V64.7794C160.335 64.7794 160.081 60.4474 155.68 60.4474C151.279 60.4474 151.072 64.7794 151.072 64.7794L151.026 95.5636Z" fill="white"/>
<path fill-rule="evenodd" clip-rule="evenodd" d="M150.564 96.0244H160.796V64.7658L160.795 64.7524L160.335 64.7793C160.795 64.7524 160.795 64.7522 160.795 64.7519L160.795 64.7498L160.794 64.7456C160.794 64.7436 160.794 64.7413 160.794 64.7387L160.794 64.7325C160.793 64.7217 160.791 64.7069 160.79 64.6883C160.786 64.6511 160.781 64.5987 160.772 64.5333C160.755 64.4026 160.726 64.219 160.676 64.0001C160.576 63.564 160.394 62.9774 160.059 62.3862C159.377 61.1817 158.072 59.9866 155.68 59.9866C153.288 59.9866 151.994 61.1826 151.323 62.3895C150.994 62.9813 150.817 63.5684 150.723 64.0046C150.675 64.2237 150.648 64.4073 150.632 64.5381C150.624 64.6035 150.619 64.6559 150.616 64.6931C150.614 64.7117 150.613 64.7266 150.613 64.7373C150.612 64.7427 150.612 64.7471 150.612 64.7504L150.612 64.7547L150.612 64.7562L150.612 64.7568C150.612 64.757 150.612 64.7573 151.072 64.7793L150.612 64.7573L150.611 64.7679L150.564 96.0244ZM151.533 64.7934C151.533 64.7877 151.534 64.7792 151.535 64.7682C151.537 64.742 151.54 64.7013 151.547 64.6483C151.56 64.5421 151.583 64.3873 151.623 64.2003C151.705 63.8242 151.855 63.3284 152.128 62.8373C152.662 61.8781 153.671 60.9082 155.68 60.9082C157.69 60.9082 158.712 61.8791 159.257 62.8405C159.536 63.3323 159.691 63.8286 159.777 64.2048C159.82 64.392 159.844 64.5469 159.858 64.6531C159.865 64.7061 159.87 64.7468 159.872 64.7731C159.873 64.7826 159.874 64.7902 159.874 64.7958V95.1028H151.487L151.533 64.7934Z" fill="#1C1C1C"/>
<path d="M163.946 95.5636H172.962V65.7489C172.962 65.7489 172.716 61.5534 168.454 61.5534C164.191 61.5534 163.991 65.7489 163.991 65.7489L163.946 95.5636Z" fill="white"/>
<path fill-rule="evenodd" clip-rule="evenodd" d="M163.484 96.0244H173.422V65.7354L173.421 65.722L172.961 65.7489C173.421 65.722 173.421 65.7218 173.421 65.7215L173.421 65.7209L173.421 65.7194L173.421 65.7153C173.421 65.712 173.421 65.7077 173.42 65.7025C173.419 65.6919 173.418 65.6775 173.417 65.6594C173.413 65.6232 173.408 65.5723 173.399 65.5087C173.383 65.3818 173.354 65.2036 173.306 64.991C173.209 64.5677 173.032 63.9981 172.707 63.424C172.044 62.2536 170.775 61.0926 168.453 61.0926C166.131 61.0926 164.872 62.2545 164.221 63.4273C163.901 64.002 163.73 64.5721 163.638 64.9956C163.592 65.2082 163.565 65.3865 163.55 65.5136C163.542 65.5771 163.537 65.6281 163.534 65.6643C163.533 65.6824 163.532 65.6968 163.531 65.7073C163.531 65.7126 163.53 65.7169 163.53 65.7202L163.53 65.7243L163.53 65.7258L163.53 65.7264C163.53 65.7267 163.53 65.7269 163.99 65.7489L163.53 65.7269L163.529 65.7376L163.484 96.0244ZM164.451 65.7631C164.451 65.7576 164.452 65.7496 164.453 65.7393C164.455 65.7141 164.459 65.6749 164.465 65.6237C164.477 65.5213 164.499 65.3718 164.539 65.1912C164.617 64.8279 164.763 64.3492 165.026 63.8751C165.54 62.9501 166.514 62.0143 168.453 62.0143C170.394 62.0143 171.38 62.951 171.905 63.8783C172.174 64.3531 172.324 64.8324 172.407 65.1958C172.448 65.3765 172.472 65.5261 172.486 65.6285C172.492 65.6797 172.496 65.7189 172.499 65.7442C172.5 65.753 172.5 65.7602 172.501 65.7655V95.1028H164.407L164.451 65.7631Z" fill="#1C1C1C"/>
<path d="M156.112 96.854H161.902V84.8938C161.902 84.8938 161.745 82.1992 159.007 82.1992C156.269 82.1992 156.14 84.8938 156.14 84.8938L156.112 96.854Z" fill="white"/>
<path fill-rule="evenodd" clip-rule="evenodd" d="M155.649 97.3147H162.363V84.8803L162.362 84.8668L161.902 84.8937C162.362 84.8668 162.362 84.8666 162.362 84.8663L162.362 84.8658L162.362 84.8645L162.362 84.8611L162.361 84.8516C162.36 84.8439 162.359 84.8337 162.358 84.8211C162.356 84.7959 162.352 84.7611 162.347 84.718C162.335 84.6321 162.316 84.5125 162.284 84.3703C162.219 84.0878 162.101 83.7057 161.882 83.3193C161.431 82.5241 160.566 81.7383 159.007 81.7383C157.446 81.7383 156.587 82.525 156.144 83.3225C155.929 83.7097 155.814 84.0922 155.752 84.3749C155.722 84.5172 155.704 84.6369 155.693 84.7229C155.688 84.7659 155.685 84.8007 155.683 84.826C155.682 84.8386 155.681 84.8488 155.68 84.8565L155.68 84.8661L155.68 84.8694L155.68 84.8707L155.68 84.8712C155.68 84.8715 155.68 84.8717 156.14 84.8937L155.68 84.8717L155.679 84.8822L155.649 97.3147ZM156.601 84.909C156.601 84.9067 156.601 84.9041 156.601 84.901C156.602 84.8867 156.605 84.8637 156.608 84.833C156.616 84.7716 156.629 84.6808 156.653 84.5705C156.701 84.348 156.79 84.0568 156.949 83.7703C157.255 83.2205 157.829 82.6599 159.007 82.6599C160.185 82.6599 160.767 83.2215 161.08 83.7736C161.243 84.0607 161.334 84.3524 161.385 84.5751C161.41 84.6855 161.425 84.7764 161.433 84.8379C161.437 84.8685 161.439 84.8916 161.441 84.9059C161.441 84.9079 161.441 84.9096 161.441 84.9113V96.393H156.573L156.601 84.909Z" fill="#1C1C1C"/>
<path d="M161.409 78.2511C161.409 79.5323 160.371 80.5708 159.09 80.5708C157.809 80.5708 156.77 79.5323 156.77 78.2511C156.77 76.9702 157.809 75.9316 159.09 75.9316C160.371 75.9316 161.409 76.9702 161.409 78.2511Z" fill="white"/>
<path fill-rule="evenodd" clip-rule="evenodd" d="M156.31 78.2512C156.31 79.7869 157.555 81.0317 159.09 81.0317C160.626 81.0317 161.871 79.7868 161.871 78.2512C161.871 76.7157 160.626 75.4708 159.09 75.4708C157.555 75.4708 156.31 76.7157 156.31 78.2512ZM159.09 80.11C158.064 80.11 157.232 79.2778 157.232 78.2512C157.232 77.2248 158.064 76.3925 159.09 76.3925C160.117 76.3925 160.949 77.2247 160.949 78.2512C160.949 79.2778 160.117 80.11 159.09 80.11Z" fill="#1C1C1C"/>
<path d="M158.376 64.8022C158.11 63.9052 156.431 62.2099 155.127 62.7515C153.234 63.5375 153.355 64.9502 153.675 65.9543C154.141 67.4178 155.851 69.4755 157.108 70.5858C158.365 71.6961 161.462 73.6159 162.477 74.1343C163.492 74.6528 165.535 75.788 166.44 74.9408C166.44 74.9408 167.488 73.777 165.98 72.7978C164.471 71.8186 162.869 70.9314 162.224 70.4245C161.358 69.7441 160.265 68.535 159.827 67.7977C159.429 67.1267 158.376 64.8022 158.376 64.8022Z" fill="white"/>
<path fill-rule="evenodd" clip-rule="evenodd" d="M162.879 73.8226C162.813 73.7883 162.748 73.7553 162.687 73.7239C162.2 73.4755 161.188 72.8759 160.134 72.1949C159.077 71.5122 158.014 70.7707 157.414 70.2404C156.809 69.7066 156.087 68.9366 155.461 68.1216C154.828 67.2988 154.323 66.4693 154.115 65.8146C153.965 65.3444 153.886 64.8456 154.014 64.3988C154.135 63.981 154.461 63.527 155.304 63.1771C155.721 63.0036 156.284 63.1653 156.862 63.6043C157.137 63.8131 157.384 64.0636 157.576 64.3102C157.772 64.5624 157.89 64.7847 157.934 64.9331L157.943 64.9635L157.956 64.9925L158.376 64.8022C157.956 64.9925 157.956 64.9924 157.956 64.9925L157.968 65.0192C157.976 65.0365 157.988 65.062 158.003 65.0946C158.032 65.1599 158.075 65.2537 158.128 65.3684C158.233 65.5976 158.378 65.9105 158.535 66.2447C158.845 66.903 159.218 67.6744 159.431 68.033C159.904 68.8283 161.038 70.0786 161.939 70.7869C162.288 71.0612 162.878 71.4255 163.539 71.8278C163.638 71.8882 163.74 71.9498 163.843 72.0124C164.439 72.3742 165.092 72.771 165.729 73.1844C166.05 73.3932 166.2 73.5881 166.27 73.7389C166.338 73.8873 166.345 74.0269 166.322 74.1561C166.298 74.2907 166.242 74.4133 166.186 74.5066C166.158 74.5521 166.133 74.5872 166.116 74.6097C166.113 74.6137 166.11 74.6174 166.108 74.6205C165.991 74.7209 165.822 74.7809 165.576 74.7843C165.312 74.788 164.994 74.725 164.642 74.6112C164.018 74.4095 163.381 74.081 162.879 73.8226ZM166.441 74.9408L166.783 75.2491L166.77 75.2638L166.756 75.2773C166.421 75.5908 165.999 75.7003 165.589 75.7059C165.183 75.7115 164.758 75.6172 164.359 75.4882C163.657 75.2613 162.947 74.895 162.452 74.6396C162.387 74.6059 162.325 74.5741 162.268 74.5448M166.441 74.9408C166.783 75.2491 166.783 75.2489 166.784 75.2487L166.784 75.2482L166.785 75.2473L166.787 75.2451L166.792 75.2393C166.796 75.2349 166.801 75.2293 166.806 75.2225C166.817 75.2089 166.832 75.1907 166.849 75.1681C166.884 75.123 166.929 75.0597 166.976 74.9807C167.069 74.8252 167.18 74.5957 167.23 74.317C167.28 74.0328 167.266 73.6979 167.107 73.3527C166.948 73.0099 166.663 72.6922 166.231 72.4114C165.581 71.9897 164.914 71.5848 164.319 71.2232C164.216 71.1609 164.116 71.0999 164.018 71.0404C163.339 70.6275 162.805 70.2948 162.509 70.0622C161.678 69.4097 160.627 68.2418 160.224 67.5624C160.038 67.25 159.686 66.5237 159.369 65.852C159.214 65.5212 159.07 65.211 158.966 64.9835C158.913 64.8698 158.871 64.7768 158.841 64.7122C158.832 64.6926 158.825 64.6756 158.818 64.6614C158.814 64.6526 158.811 64.6449 158.808 64.6384C158.715 64.3475 158.529 64.0343 158.303 63.7443C158.065 63.4377 157.761 63.13 157.42 62.8705C156.765 62.373 155.837 61.9578 154.95 62.3259C153.9 62.762 153.341 63.4074 153.129 64.1435C152.925 64.8506 153.066 65.5602 153.236 66.0941C153.494 66.9028 154.077 67.8339 154.73 68.6835C155.389 69.5408 156.151 70.3548 156.804 70.9312C157.46 71.5112 158.574 72.2848 159.634 72.9691C160.696 73.6552 161.739 74.2748 162.268 74.5448" fill="#1C1C1C"/>
<path d="M166.295 65.2709C166.755 64.4566 168.2 62.9974 169.905 64.1341C171.61 65.2709 171.318 66.6534 170.78 67.5598C169.997 68.8807 168.046 70.3709 166.571 71.1696C165.096 71.9684 163.315 72.7212 162.209 72.9977C161.103 73.2742 159.198 73.8733 158.506 72.844C158.506 72.844 157.646 71.4308 159.336 70.8163C161.026 70.2019 162.439 69.3876 163.161 68.8346C163.883 68.2816 164.743 67.5137 165.204 66.8838C165.665 66.2539 166.295 65.2709 166.295 65.2709Z" fill="white"/>
<path fill-rule="evenodd" clip-rule="evenodd" d="M162.051 73.5138C162.147 73.489 162.238 73.4656 162.321 73.4448C163.479 73.1553 165.299 72.3832 166.791 71.5749C167.555 71.1608 168.437 70.5716 169.229 69.9155C170.016 69.2643 170.746 68.5218 171.177 67.7948C171.475 67.293 171.731 66.6169 171.641 65.8778C171.549 65.1176 171.102 64.378 170.161 63.7506C169.152 63.0781 168.184 63.17 167.423 63.5609C166.698 63.933 166.166 64.5684 165.901 65.0322L165.88 65.0646C165.862 65.0924 165.836 65.1328 165.803 65.1833C165.737 65.2844 165.645 65.4257 165.538 65.5865C165.324 65.9097 165.056 66.3057 164.833 66.6117C164.411 67.1875 163.593 67.9234 162.881 68.4688C162.202 68.9892 160.831 69.7824 159.179 70.3831C158.691 70.5605 158.343 70.8124 158.119 71.1238C157.895 71.4369 157.824 71.7717 157.827 72.0647C157.83 72.3522 157.902 72.6042 157.968 72.7779C158.002 72.8664 158.036 72.9388 158.062 72.9906C158.075 73.0166 158.087 73.0377 158.096 73.0534C158.1 73.0612 158.104 73.0677 158.107 73.0727L158.11 73.0792L158.112 73.0817L158.113 73.0827L158.113 73.0832C158.113 73.0834 158.113 73.0836 158.507 72.844L158.113 73.0836L158.118 73.0924L158.124 73.1009C158.62 73.8393 159.51 73.9279 160.239 73.8699C160.87 73.8198 161.541 73.646 162.051 73.5138ZM158.897 72.5986C158.894 72.5929 158.89 72.5844 158.884 72.5735C158.87 72.5456 158.85 72.5028 158.829 72.4492C158.787 72.3388 158.75 72.1991 158.749 72.0565C158.747 71.9193 158.779 71.7857 158.868 71.6609C158.959 71.5345 159.136 71.3793 159.494 71.2494M158.897 72.5986C159.096 72.8814 159.502 73.0038 160.166 72.9511C160.709 72.908 161.286 72.7592 161.799 72.6269C161.901 72.6005 162.001 72.5747 162.097 72.5506C163.151 72.2871 164.895 71.5535 166.352 70.7644C167.062 70.3797 167.894 69.8245 168.641 69.2055C169.395 68.5817 170.032 67.9187 170.384 67.3247C170.624 66.9201 170.783 66.4518 170.726 65.9888C170.673 65.5469 170.413 65.0268 169.649 64.5175C168.953 64.0533 168.346 64.1227 167.844 64.3808C167.311 64.6546 166.894 65.1484 166.696 65.4978L166.69 65.5088L166.683 65.5194L166.295 65.2708C166.683 65.5194 166.683 65.5194 166.683 65.5194L166.676 65.5311L166.654 65.564C166.636 65.5925 166.609 65.6338 166.576 65.6852C166.509 65.7882 166.415 65.932 166.307 66.0957C166.091 66.4215 165.813 66.832 165.576 67.1559C165.076 67.8398 164.174 68.6398 163.441 69.2005C162.677 69.786 161.221 70.6213 159.494 71.2494" fill="#1C1C1C"/>
<path fill-rule="evenodd" clip-rule="evenodd" d="M162.009 89.8729C161.976 89.8505 161.944 89.8288 161.913 89.8083C161.671 89.6455 161.173 89.2632 160.658 88.8352C160.141 88.4061 159.625 87.9455 159.341 87.6266C159.055 87.3055 158.722 86.8522 158.443 86.3813C158.16 85.9059 157.946 85.4352 157.878 85.0761C157.829 84.8182 157.819 84.5499 157.916 84.3224C158.007 84.1098 158.21 83.8914 158.68 83.7616C158.912 83.6973 159.201 83.8192 159.478 84.0885C159.611 84.2166 159.726 84.3649 159.811 84.5075C159.899 84.6534 159.947 84.7784 159.961 84.8596L159.964 84.8762L159.969 84.8923L160.204 84.8193C159.969 84.8923 159.969 84.8923 159.969 84.8923L159.974 84.9072C159.977 84.9169 159.981 84.9311 159.987 84.9493C159.999 84.9857 160.015 85.038 160.036 85.1019C160.077 85.2298 160.133 85.4043 160.195 85.5909C160.317 85.9585 160.465 86.3899 160.555 86.593C160.754 87.0435 161.274 87.7771 161.707 88.2096C161.874 88.3771 162.163 88.6078 162.488 88.8631C162.537 88.9014 162.586 88.9405 162.637 88.9803C162.93 89.2101 163.251 89.462 163.562 89.7216C163.719 89.8527 163.786 89.9653 163.813 90.0494C163.839 90.1322 163.834 90.2063 163.813 90.273C163.792 90.3425 163.754 90.4035 163.718 90.4491C163.701 90.4713 163.685 90.4883 163.675 90.499C163.673 90.5009 163.671 90.5027 163.67 90.5042C163.601 90.5495 163.508 90.5702 163.377 90.556C163.237 90.5407 163.072 90.4868 162.893 90.4038C162.575 90.2568 162.258 90.0419 162.009 89.8729ZM163.826 90.6949L163.987 90.8799L163.979 90.8867L163.971 90.8929C163.773 91.0366 163.542 91.0669 163.324 91.0432C163.109 91.0198 162.889 90.9422 162.686 90.8482C162.328 90.6828 161.975 90.4432 161.729 90.2763C161.697 90.2542 161.666 90.2334 161.638 90.2142M163.826 90.6949C163.987 90.8799 163.987 90.8798 163.988 90.8797L163.988 90.8795L163.988 90.879L163.989 90.878L163.992 90.8753C163.995 90.8732 163.998 90.8705 164.001 90.8673C164.008 90.8609 164.017 90.8522 164.028 90.8414C164.049 90.8199 164.077 90.7894 164.107 90.7508C164.166 90.6748 164.24 90.5609 164.284 90.417C164.33 90.2703 164.344 90.0926 164.282 89.9001C164.22 89.7089 164.089 89.5227 163.878 89.3463C163.561 89.0815 163.233 88.8244 162.941 88.5948C162.89 88.5552 162.841 88.5165 162.793 88.4787C162.46 88.2167 162.198 88.0062 162.056 87.8642C161.657 87.4658 161.176 86.7811 161.006 86.3963C160.927 86.2193 160.787 85.813 160.663 85.438C160.602 85.2532 160.546 85.0802 160.505 84.9533C160.485 84.8899 160.468 84.838 160.457 84.8021C160.453 84.7911 160.45 84.7816 160.448 84.7737C160.446 84.7688 160.445 84.7646 160.444 84.7609C160.413 84.6013 160.335 84.424 160.234 84.2562C160.127 84.0789 159.986 83.8967 159.822 83.7376C159.507 83.4324 159.041 83.1528 158.547 83.2894C157.962 83.4512 157.623 83.7554 157.463 84.1301C157.309 84.4899 157.338 84.8736 157.394 85.1665C157.478 85.61 157.727 86.1394 158.019 86.6302C158.313 87.1256 158.664 87.6048 158.973 87.9515C159.284 88.3003 159.825 88.7811 160.342 89.2112C160.861 89.6424 161.375 90.0373 161.638 90.2142" fill="#1C1C1C"/>
<path d="M125.338 160L130.123 144.842H125.94L123.099 155.998H122.898L119.972 144.842H115.525L120.437 160H125.338Z" fill="#89AE3A"/>
<path d="M135.891 160V144.842H132.014V160H135.891Z" fill="#89AE3A"/>
<path d="M146.243 160V147.941H150.648V144.842H137.983V147.941H142.377V160H146.243Z" fill="#89AE3A"/>
<path d="M160.905 160H165.131L160.007 144.842H155.264L150.152 160H153.997L154.979 156.67H159.954L160.905 160ZM157.388 148.256H157.588L159.226 153.897H155.719L157.388 148.256Z" fill="#89AE3A"/>
<path d="M177.373 156.817H170.898V144.842H167.021V160H177.373V156.817Z" fill="#89AE3A"/>
<path d="M189.976 156.901H183.405V153.803H189.585V150.966H183.405V147.941H189.976V144.842H179.528V160H189.976V156.901Z" fill="#89AE3A"/>
<path d="M209.338 160V144.842H204.764L201.078 154.139H200.877L197.18 144.842H192.606V160H196.187V150.431H196.377L199.778 158.866H202.176L205.567 150.431H205.757V160H209.338Z" fill="#89AE3A"/>
</g>
<defs>
<clipPath id="clip0">
<rect width="136" height="160" fill="white" transform="translate(95)"/>
</clipPath>
</defs>
</svg>
