<svg width="25" height="26" viewBox="0 0 25 26" fill="none" xmlns="http://www.w3.org/2000/svg">
<path d="M10.1195 26C8.3275 26 6.6635 25.552 5.1275 24.656C3.6235 23.76 2.4075 22.56 1.4795 21.056C0.5835 19.52 0.1355 17.84 0.1355 16.016C0.1355 14.224 0.5835 12.592 1.4795 11.12C2.4075 9.616 3.6235 8.416 5.1275 7.52C6.6635 6.624 8.3275 6.176 10.1195 6.176C12.2315 6.176 14.2155 6.832 16.0715 8.144L20.5355 3.152L16.7435 1.28L24.8075 0.367998L24.8555 8.48L22.5035 4.88L17.9435 9.968C19.3835 11.728 20.1035 13.744 20.1035 16.016C20.1035 17.84 19.6555 19.52 18.7595 21.056C17.8635 22.56 16.6475 23.76 15.1115 24.656C13.6075 25.552 11.9435 26 10.1195 26ZM10.1195 23.6C11.4955 23.6 12.7595 23.264 13.9115 22.592C15.0635 21.888 15.9755 20.96 16.6475 19.808C17.3515 18.656 17.7035 17.392 17.7035 16.016C17.7035 14.672 17.3515 13.44 16.6475 12.32C15.9755 11.168 15.0635 10.256 13.9115 9.584C12.7595 8.912 11.4955 8.576 10.1195 8.576C8.7435 8.576 7.4795 8.912 6.3275 9.584C5.1755 10.256 4.2475 11.168 3.5435 12.32C2.8715 13.44 2.5355 14.672 2.5355 16.016C2.5355 17.392 2.8715 18.656 3.5435 19.808C4.2475 20.96 5.1755 21.888 6.3275 22.592C7.4795 23.264 8.7435 23.6 10.1195 23.6Z" fill="#2D3142"/>
</svg>
