<svg width="75" height="54" viewBox="0 0 75 54" fill="none" xmlns="http://www.w3.org/2000/svg">
<path d="M17.3125 44V38.3633H16.4961L14.5664 43.0664H14.5039L12.5742 38.3633H11.7578V44H12.4141V39.6953H12.4609L14.2383 44H14.832L16.6094 39.6953H16.6562V44H17.3125ZM20.4727 44.0742C21.6719 44.0742 22.4141 43.2461 22.4141 41.8945C22.4141 40.5391 21.6719 39.7148 20.4727 39.7148C19.2734 39.7148 18.5312 40.5391 18.5312 41.8945C18.5312 43.2461 19.2734 44.0742 20.4727 44.0742ZM20.4727 43.4688C19.6758 43.4688 19.2266 42.8906 19.2266 41.8945C19.2266 40.8945 19.6758 40.3203 20.4727 40.3203C21.2695 40.3203 21.7188 40.8945 21.7188 41.8945C21.7188 42.8906 21.2695 43.4688 20.4727 43.4688ZM23.957 37.9219C23.957 38.6484 24.4922 39.2031 25.2969 39.2031C26.1016 39.2031 26.6367 38.6484 26.6367 37.9219H26.0273C26.0273 38.3477 25.7578 38.7422 25.2969 38.7422C24.8438 38.7422 24.5664 38.3477 24.5664 37.9219H23.957ZM24.2148 44L26.3125 40.8594H26.375V44H27.0469V39.7891H26.375L24.2773 42.9297H24.2148V39.7891H23.543V44H24.2148ZM33.3789 44H34.0508V39.7891H30.6445V44H31.3164V40.3516H33.3789V44ZM37.4414 39.7148C36.8672 39.7148 36.3633 40.0078 36.0938 40.4922H36.0312V39.7891H35.3906V45.4062H36.0625V43.3672H36.125C36.3555 43.8125 36.8398 44.0742 37.4414 44.0742C38.5117 44.0742 39.2109 43.2109 39.2109 41.8945C39.2109 40.5703 38.5156 39.7148 37.4414 39.7148ZM37.2812 43.4688C36.5234 43.4688 36.043 42.8594 36.043 41.8945C36.043 40.9258 36.5234 40.3203 37.2852 40.3203C38.0547 40.3203 38.5156 40.9102 38.5156 41.8945C38.5156 42.8789 38.0547 43.4688 37.2812 43.4688ZM42.0742 44.0742C43.2734 44.0742 44.0156 43.2461 44.0156 41.8945C44.0156 40.5391 43.2734 39.7148 42.0742 39.7148C40.875 39.7148 40.1328 40.5391 40.1328 41.8945C40.1328 43.2461 40.875 44.0742 42.0742 44.0742ZM42.0742 43.4688C41.2773 43.4688 40.8281 42.8906 40.8281 41.8945C40.8281 40.8945 41.2773 40.3203 42.0742 40.3203C42.8711 40.3203 43.3203 40.8945 43.3203 41.8945C43.3203 42.8906 42.8711 43.4688 42.0742 43.4688ZM47.1094 44.0508V45.4062H47.7656V44.0508C49.0664 44.0312 49.9336 43.1953 49.9336 41.8945C49.9336 40.5977 49.0664 39.7617 47.7656 39.7383V38.3633H47.1094V39.7383C45.8047 39.7578 44.9375 40.5938 44.9375 41.8945C44.9375 43.1914 45.8047 44.0273 47.1094 44.0508ZM47.1094 43.4688C46.1992 43.4453 45.6211 42.8516 45.6211 41.8945C45.6211 40.9336 46.1992 40.3398 47.1094 40.3203V43.4688ZM49.25 41.8945C49.25 42.8555 48.6719 43.4492 47.7656 43.4688V40.3203C48.6719 40.3438 49.25 40.9375 49.25 41.8945ZM51.7383 44L53.8359 40.8594H53.8984V44H54.5703V39.7891H53.8984L51.8008 42.9297H51.7383V39.7891H51.0664V44H51.7383ZM56.9219 42.1523L57.0547 40.3516H58.5273V44H59.1992V39.7891H56.4453L56.2812 42.1367C56.2266 42.918 56.0664 43.4062 55.6484 43.4062C55.5508 43.4062 55.4727 43.3867 55.4375 43.375V43.9922C55.4844 44.0117 55.5625 44.0352 55.6836 44.0352C56.5586 44.0352 56.8359 43.3086 56.9219 42.1523ZM60.5352 44H62.0391C63.0039 44 63.6211 43.4453 63.6211 42.5703C63.6211 41.6953 63.0039 41.1406 62.0391 41.1406H61.207V39.7891H60.5352V44ZM62.0391 41.7031C62.5898 41.7031 62.9492 42.043 62.9492 42.5703C62.9492 43.0938 62.5938 43.4375 62.0391 43.4375H61.207V41.7031H62.0391Z" fill="#BBC3C6"/>
<path fill-rule="evenodd" clip-rule="evenodd" d="M36.2857 13.1429C37.7059 13.1429 38.8571 11.9916 38.8571 10.5714C38.8571 9.15127 37.7059 8 36.2857 8C34.8656 8 33.7143 9.15127 33.7143 10.5714C33.7143 11.9916 34.8656 13.1429 36.2857 13.1429ZM26 15.2857C26 14.5756 26.5756 14 27.2857 14H46.1429C46.8529 14 47.4286 14.5756 47.4286 15.2857C47.4286 15.9958 46.8529 16.5714 46.1429 16.5714H39.6448C39.6448 16.5714 38.9297 18.1673 38.9297 19.8591C38.9297 21.5508 41.3659 29.9752 41.3659 29.9752C41.6045 30.817 41.1416 31.6699 40.32 31.954C39.4566 32.082 38.6168 31.5459 38.3956 30.6891L38.2208 30.0122C37.7041 28.011 34.8617 28.0126 34.3473 30.0143L34.1729 30.6927C33.9544 31.5429 33.1147 32.0817 32.2513 31.9539C31.4298 31.6697 30.9669 30.8169 31.2055 29.9752C31.2055 29.9752 33.6418 21.5508 33.6418 19.8591C33.6418 18.1673 32.9266 16.5714 32.9266 16.5714H27.2857C26.5756 16.5714 26 15.9958 26 15.2857ZM32.2513 31.9539C32.198 31.946 32.1447 31.9356 32.0914 31.9226L32.4078 32C32.3543 31.9869 32.3021 31.9715 32.2513 31.9539ZM40.32 31.954C40.2692 31.9715 40.217 31.9869 40.1636 32L40.4801 31.9226C40.4267 31.9356 40.3733 31.9461 40.32 31.954Z" fill="#BBC3C6"/>
</svg>
