<svg width="24" height="24" viewBox="0 0 24 24" fill="none" xmlns="http://www.w3.org/2000/svg">
<path d="M2.59998 12.0001C2.59998 11.503 3.00292 11.1001 3.49998 11.1001C3.99703 11.1001 4.39998 11.503 4.39998 12.0001V18.4001C4.39998 18.7222 4.90184 19.1001 5.62498 19.1001H18.375C19.0981 19.1001 19.6 18.7222 19.6 18.4001V12.0001C19.6 11.503 20.0029 11.1001 20.5 11.1001C20.997 11.1001 21.4 11.503 21.4 12.0001V18.4001C21.4 19.8453 19.9991 20.9001 18.375 20.9001H5.62498C4.0009 20.9001 2.59998 19.8453 2.59998 18.4001V12.0001Z" fill="#0B8BD2"/>
<path fill-rule="evenodd" clip-rule="evenodd" d="M11.1 4.50923L7.2381 7.81943C6.92361 8.089 6.45014 8.05257 6.18057 7.73808C5.911 7.42359 5.94743 6.95011 6.26192 6.68055L11.5119 2.18056C11.7928 1.93981 12.2072 1.93981 12.4881 2.18056L17.7381 6.68055C18.0526 6.95011 18.089 7.42359 17.8194 7.73808C17.5499 8.05257 17.0764 8.089 16.7619 7.81943L12.9 4.50923V14.4C12.9 14.8971 12.4971 15.3 12 15.3C11.5029 15.3 11.1 14.8971 11.1 14.4V4.50923Z" fill="#0B8BD2"/>
</svg>
