<svg width="40" height="40" viewBox="0 0 40 40" fill="none" xmlns="http://www.w3.org/2000/svg">
<circle opacity="0.24" cx="20" cy="20" r="20" fill="#FF9500"/>
<path d="M20.4496 10.2224C20.2473 9.92586 19.7506 9.92586 19.5497 10.2224C19.2911 10.6061 13.2069 19.6303 13.2069 23.2072C13.2069 26.9517 16.2555 29.9998 19.9995 29.9998C23.744 29.9998 26.7922 26.9515 26.7922 23.2072C26.7926 19.6303 20.708 10.6051 20.4496 10.2224ZM19.9996 28.913C16.8535 28.913 14.294 26.3551 14.294 23.2072C14.294 20.7253 18.0686 14.4555 19.9996 11.5083C21.9313 14.4555 25.7056 20.7232 25.7056 23.2072C25.7056 26.3551 23.1454 28.913 19.9996 28.913ZM20.5429 27.2828C20.5429 27.5831 20.2987 27.8263 19.9996 27.8263C17.452 27.8263 15.381 25.7544 15.381 23.2074C15.381 22.9081 15.6255 22.6639 15.9244 22.6639C16.2233 22.6639 16.4677 22.9081 16.4677 23.2074C16.4677 25.1561 18.0521 26.7395 19.9998 26.7395C20.2987 26.7394 20.5429 26.9814 20.5429 27.2828Z" fill="#FF9500"/>
</svg>
